<?xml version="1.0" encoding="UTF-8" standalone="no"?>
<!DOCTYPE svg PUBLIC "-//W3C//DTD SVG 1.1//EN"
 "http://www.w3.org/Graphics/SVG/1.1/DTD/svg11.dtd">
<!-- Generated by graphviz version 11.0.0 (20240428.1522)
 -->
<!-- Pages: 1 -->
<svg width="155pt" height="140pt"
 viewBox="0.00 0.00 154.50 140.41" xmlns="http://www.w3.org/2000/svg" xmlns:xlink="http://www.w3.org/1999/xlink">
<g id="graph0" class="graph" transform="scale(1 1) rotate(0) translate(4 136.41)">
<polygon fill="white" stroke="none" points="-4,4 -4,-136.41 150.5,-136.41 150.5,4 -4,4"/>
<!-- bloom&#45;1b7 -->
<g id="node1" class="node">
<title>bloom&#45;1b7</title>
<path fill="#800080" stroke="black" stroke-width="0.5" d="M97.38,-18C97.38,-18 49.12,-18 49.12,-18 46.12,-18 43.12,-15 43.12,-12 43.12,-12 43.12,-6 43.12,-6 43.12,-3 46.12,0 49.12,0 49.12,0 97.38,0 97.38,0 100.38,0 103.38,-3 103.38,-6 103.38,-6 103.38,-12 103.38,-12 103.38,-15 100.38,-18 97.38,-18"/>
<text text-anchor="middle" x="73.25" y="-5.33" font-family="Helvetica,sans-Serif" font-size="9.00" fill="#ffffff">bloom&#45;1b7</text>
</g>
<!-- roots -->
<g id="node2" class="node">
<title>roots</title>
<path fill="#e0b7f3" stroke="black" stroke-width="0.5" d="M146.5,-130.19C146.5,-131.41 113.67,-132.41 73.25,-132.41 32.83,-132.41 0,-131.41 0,-130.19 0,-130.19 0,-110.22 0,-110.22 0,-108.99 32.83,-108 73.25,-108 113.67,-108 146.5,-108.99 146.5,-110.22 146.5,-110.22 146.5,-130.19 146.5,-130.19"/>
<path fill="none" stroke="black" stroke-width="0.5" d="M146.5,-130.19C146.5,-128.96 113.67,-127.97 73.25,-127.97 32.83,-127.97 0,-128.96 0,-130.19"/>
<text text-anchor="middle" x="73.25" y="-116.53" font-family="Helvetica,sans-Serif" font-size="9.00">The BigScience ROOTS Corpus</text>
</g>
<!-- bloom -->
<g id="node3" class="node">
<title>bloom</title>
<path fill="#800080" stroke="black" stroke-width="0.5" d="M94.25,-72C94.25,-72 52.25,-72 52.25,-72 49.25,-72 46.25,-69 46.25,-66 46.25,-66 46.25,-60 46.25,-60 46.25,-57 49.25,-54 52.25,-54 52.25,-54 94.25,-54 94.25,-54 97.25,-54 100.25,-57 100.25,-60 100.25,-60 100.25,-66 100.25,-66 100.25,-69 97.25,-72 94.25,-72"/>
<text text-anchor="middle" x="73.25" y="-59.33" font-family="Helvetica,sans-Serif" font-size="9.00" fill="#ffffff">BLOOM</text>
</g>
<!-- roots&#45;&gt;bloom -->
<g id="edge1" class="edge">
<title>roots&#45;&gt;bloom</title>
<path fill="none" stroke="#545454" stroke-width="0.75" d="M73.25,-108.07C73.25,-108.07 73.25,-80.39 73.25,-80.39"/>
<polygon fill="#545454" stroke="#545454" stroke-width="0.75" points="75.88,-80.39 73.25,-72.89 70.63,-80.39 75.88,-80.39"/>
</g>
<!-- bloom&#45;&gt;bloom&#45;1b7 -->
<g id="edge2" class="edge">
<title>bloom&#45;&gt;bloom&#45;1b7</title>
<path fill="none" stroke="#545454" stroke-width="0.75" d="M73.25,-54.08C73.25,-54.08 73.25,-26.39 73.25,-26.39"/>
<polygon fill="#545454" stroke="#545454" stroke-width="0.75" points="75.88,-26.39 73.25,-18.89 70.63,-26.39 75.88,-26.39"/>
</g>
</g>
</svg>
