<?xml version="1.0" encoding="UTF-8" standalone="no"?>
<!DOCTYPE svg PUBLIC "-//W3C//DTD SVG 1.1//EN"
 "http://www.w3.org/Graphics/SVG/1.1/DTD/svg11.dtd">
<!-- Generated by graphviz version 11.0.0 (20240428.1522)
 -->
<!-- Pages: 1 -->
<svg width="130pt" height="153pt"
 viewBox="0.00 0.00 130.00 153.43" xmlns="http://www.w3.org/2000/svg" xmlns:xlink="http://www.w3.org/1999/xlink">
<g id="graph0" class="graph" transform="scale(1 1) rotate(0) translate(4 149.43)">
<polygon fill="white" stroke="none" points="-4,4 -4,-149.43 126,-149.43 126,4 -4,4"/>
<!-- xp3 -->
<g id="node1" class="node">
<title>xp3</title>
<path fill="#e0b7f3" stroke="black" stroke-width="0.5" d="M54,-143.22C54,-144.44 41.9,-145.43 27,-145.43 12.1,-145.43 0,-144.44 0,-143.22 0,-143.22 0,-123.25 0,-123.25 0,-122.02 12.1,-121.03 27,-121.03 41.9,-121.03 54,-122.02 54,-123.25 54,-123.25 54,-143.22 54,-143.22"/>
<path fill="none" stroke="black" stroke-width="0.5" d="M54,-143.22C54,-141.99 41.9,-141 27,-141 12.1,-141 0,-141.99 0,-143.22"/>
<text text-anchor="middle" x="27" y="-129.56" font-family="Helvetica,sans-Serif" font-size="9.00">xP3</text>
</g>
<!-- bloomz -->
<g id="node2" class="node">
<title>bloomz</title>
<path fill="#cbc3e3" stroke="black" stroke-width="0.5" d="M102.12,-75.6C102.12,-75.6 66.64,-83.74 66.64,-83.74 63.82,-84.38 58.18,-84.38 55.36,-83.74 55.36,-83.74 19.88,-75.6 19.88,-75.6 17.06,-74.95 14.25,-71.42 14.25,-68.53 14.25,-68.53 14.27,-62.74 14.27,-62.74 14.28,-59.85 17.17,-56.96 20.07,-56.96 20.07,-56.96 101.93,-56.96 101.93,-56.96 104.83,-56.96 107.72,-59.85 107.73,-62.74 107.73,-62.74 107.75,-68.53 107.75,-68.53 107.75,-71.42 104.94,-74.95 102.12,-75.6"/>
<text text-anchor="middle" x="61" y="-65.84" font-family="Helvetica,sans-Serif" font-size="9.00">BLOOMZ</text>
</g>
<!-- xp3&#45;&gt;bloomz -->
<g id="edge1" class="edge">
<title>xp3&#45;&gt;bloomz</title>
<path fill="none" stroke="#545454" stroke-width="0.75" d="M34.12,-121.25C34.12,-121.25 34.12,-87.2 34.12,-87.2"/>
<polygon fill="#545454" stroke="#545454" stroke-width="0.75" points="36.74,-87.2 34.12,-79.7 31.49,-87.2 36.74,-87.2"/>
</g>
<!-- bloomz&#45;7b1 -->
<g id="node3" class="node">
<title>bloomz&#45;7b1</title>
<path fill="#800080" stroke="black" stroke-width="0.5" d="M87.38,-18C87.38,-18 34.62,-18 34.62,-18 31.62,-18 28.62,-15 28.62,-12 28.62,-12 28.62,-6 28.62,-6 28.62,-3 31.62,0 34.62,0 34.62,0 87.38,0 87.38,0 90.38,0 93.38,-3 93.38,-6 93.38,-6 93.38,-12 93.38,-12 93.38,-15 90.38,-18 87.38,-18"/>
<text text-anchor="middle" x="61" y="-5.33" font-family="Helvetica,sans-Serif" font-size="9.00" fill="#ffffff">bloomz&#45;7b1</text>
</g>
<!-- bloomz&#45;&gt;bloomz&#45;7b1 -->
<g id="edge2" class="edge">
<title>bloomz&#45;&gt;bloomz&#45;7b1</title>
<path fill="none" stroke="#545454" stroke-width="0.75" d="M61,-56.98C61,-56.98 61,-26.62 61,-26.62"/>
<polygon fill="#545454" stroke="#545454" stroke-width="0.75" points="63.63,-26.62 61,-19.12 58.38,-26.62 63.63,-26.62"/>
</g>
<!-- xp3&#45;all -->
<g id="node4" class="node">
<title>xp3&#45;all</title>
<path fill="#e0b7f3" stroke="black" stroke-width="0.5" d="M122,-143.22C122,-144.44 109.9,-145.43 95,-145.43 80.1,-145.43 68,-144.44 68,-143.22 68,-143.22 68,-123.25 68,-123.25 68,-122.02 80.1,-121.03 95,-121.03 109.9,-121.03 122,-122.02 122,-123.25 122,-123.25 122,-143.22 122,-143.22"/>
<path fill="none" stroke="black" stroke-width="0.5" d="M122,-143.22C122,-141.99 109.9,-141 95,-141 80.1,-141 68,-141.99 68,-143.22"/>
<text text-anchor="middle" x="95" y="-129.56" font-family="Helvetica,sans-Serif" font-size="9.00">xP3all</text>
</g>
<!-- xp3&#45;all&#45;&gt;bloomz -->
<g id="edge3" class="edge">
<title>xp3&#45;all&#45;&gt;bloomz</title>
<path fill="none" stroke="#545454" stroke-width="0.75" d="M87.88,-121.25C87.88,-121.25 87.88,-87.2 87.88,-87.2"/>
<polygon fill="#545454" stroke="#545454" stroke-width="0.75" points="90.51,-87.2 87.88,-79.7 85.26,-87.2 90.51,-87.2"/>
</g>
</g>
</svg>
