<?xml version="1.0" encoding="UTF-8" standalone="no"?>
<!DOCTYPE svg PUBLIC "-//W3C//DTD SVG 1.1//EN"
 "http://www.w3.org/Graphics/SVG/1.1/DTD/svg11.dtd">
<!-- Generated by graphviz version 11.0.0 (20240428.1522)
 -->
<!-- Pages: 1 -->
<svg width="155pt" height="86pt"
 viewBox="0.00 0.00 154.50 86.41" xmlns="http://www.w3.org/2000/svg" xmlns:xlink="http://www.w3.org/1999/xlink">
<g id="graph0" class="graph" transform="scale(1 1) rotate(0) translate(4 82.41)">
<polygon fill="white" stroke="none" points="-4,4 -4,-82.41 150.5,-82.41 150.5,4 -4,4"/>
<!-- bloom -->
<g id="node1" class="node">
<title>bloom</title>
<path fill="#800080" stroke="black" stroke-width="0.5" d="M94.25,-18C94.25,-18 52.25,-18 52.25,-18 49.25,-18 46.25,-15 46.25,-12 46.25,-12 46.25,-6 46.25,-6 46.25,-3 49.25,0 52.25,0 52.25,0 94.25,0 94.25,0 97.25,0 100.25,-3 100.25,-6 100.25,-6 100.25,-12 100.25,-12 100.25,-15 97.25,-18 94.25,-18"/>
<text text-anchor="middle" x="73.25" y="-5.33" font-family="Helvetica,sans-Serif" font-size="9.00" fill="#ffffff">BLOOM</text>
</g>
<!-- roots -->
<g id="node2" class="node">
<title>roots</title>
<path fill="#e0b7f3" stroke="black" stroke-width="0.5" d="M146.5,-76.19C146.5,-77.41 113.67,-78.41 73.25,-78.41 32.83,-78.41 0,-77.41 0,-76.19 0,-76.19 0,-56.22 0,-56.22 0,-54.99 32.83,-54 73.25,-54 113.67,-54 146.5,-54.99 146.5,-56.22 146.5,-56.22 146.5,-76.19 146.5,-76.19"/>
<path fill="none" stroke="black" stroke-width="0.5" d="M146.5,-76.19C146.5,-74.96 113.67,-73.97 73.25,-73.97 32.83,-73.97 0,-74.96 0,-76.19"/>
<text text-anchor="middle" x="73.25" y="-62.53" font-family="Helvetica,sans-Serif" font-size="9.00">The BigScience ROOTS Corpus</text>
</g>
<!-- roots&#45;&gt;bloom -->
<g id="edge1" class="edge">
<title>roots&#45;&gt;bloom</title>
<path fill="none" stroke="#545454" stroke-width="0.75" d="M73.25,-54.07C73.25,-54.07 73.25,-26.39 73.25,-26.39"/>
<polygon fill="#545454" stroke="#545454" stroke-width="0.75" points="75.88,-26.39 73.25,-18.89 70.63,-26.39 75.88,-26.39"/>
</g>
</g>
</svg>
