<?xml version="1.0" encoding="UTF-8" standalone="no"?>
<!DOCTYPE svg PUBLIC "-//W3C//DTD SVG 1.1//EN"
 "http://www.w3.org/Graphics/SVG/1.1/DTD/svg11.dtd">
<!-- Generated by graphviz version 11.0.0 (20240428.1522)
 -->
<!-- Pages: 1 -->
<svg width="62pt" height="32pt"
 viewBox="0.00 0.00 62.00 32.41" xmlns="http://www.w3.org/2000/svg" xmlns:xlink="http://www.w3.org/1999/xlink">
<g id="graph0" class="graph" transform="scale(1 1) rotate(0) translate(4 28.41)">
<polygon fill="white" stroke="none" points="-4,4 -4,-28.41 58,-28.41 58,4 -4,4"/>
<!-- CC3M -->
<g id="node1" class="node">
<title>CC3M</title>
<path fill="#e0b7f3" stroke="black" stroke-width="0.5" d="M54,-22.19C54,-23.41 41.9,-24.41 27,-24.41 12.1,-24.41 0,-23.41 0,-22.19 0,-22.19 0,-2.22 0,-2.22 0,-0.99 12.1,0 27,0 41.9,0 54,-0.99 54,-2.22 54,-2.22 54,-22.19 54,-22.19"/>
<path fill="none" stroke="black" stroke-width="0.5" d="M54,-22.19C54,-20.96 41.9,-19.97 27,-19.97 12.1,-19.97 0,-20.96 0,-22.19"/>
<text text-anchor="middle" x="27" y="-8.53" font-family="Helvetica,sans-Serif" font-size="9.00">CC3M</text>
</g>
</g>
</svg>
