<?xml version="1.0" encoding="UTF-8" standalone="no"?>
<!DOCTYPE svg PUBLIC "-//W3C//DTD SVG 1.1//EN"
 "http://www.w3.org/Graphics/SVG/1.1/DTD/svg11.dtd">
<!-- Generated by graphviz version 11.0.0 (20240428.1522)
 -->
<!-- Pages: 1 -->
<svg width="89pt" height="86pt"
 viewBox="0.00 0.00 89.25 86.41" xmlns="http://www.w3.org/2000/svg" xmlns:xlink="http://www.w3.org/1999/xlink">
<g id="graph0" class="graph" transform="scale(1 1) rotate(0) translate(4 82.41)">
<polygon fill="white" stroke="none" points="-4,4 -4,-82.41 85.25,-82.41 85.25,4 -4,4"/>
<!-- clip -->
<g id="node1" class="node">
<title>clip</title>
<path fill="#800080" stroke="black" stroke-width="0.5" d="M61.63,-18C61.63,-18 19.63,-18 19.63,-18 16.63,-18 13.63,-15 13.63,-12 13.63,-12 13.63,-6 13.63,-6 13.63,-3 16.63,0 19.63,0 19.63,0 61.63,0 61.63,0 64.63,0 67.63,-3 67.63,-6 67.63,-6 67.63,-12 67.63,-12 67.63,-15 64.63,-18 61.63,-18"/>
<text text-anchor="middle" x="40.63" y="-5.33" font-family="Helvetica,sans-Serif" font-size="9.00" fill="#ffffff">CLIP</text>
</g>
<!-- WebImageText -->
<g id="node2" class="node">
<title>WebImageText</title>
<path fill="#e0b7f3" stroke="black" stroke-width="0.5" d="M81.25,-76.19C81.25,-77.41 63.04,-78.41 40.63,-78.41 18.21,-78.41 0,-77.41 0,-76.19 0,-76.19 0,-56.22 0,-56.22 0,-54.99 18.21,-54 40.63,-54 63.04,-54 81.25,-54.99 81.25,-56.22 81.25,-56.22 81.25,-76.19 81.25,-76.19"/>
<path fill="none" stroke="black" stroke-width="0.5" d="M81.25,-76.19C81.25,-74.96 63.04,-73.97 40.63,-73.97 18.21,-73.97 0,-74.96 0,-76.19"/>
<text text-anchor="middle" x="40.63" y="-62.53" font-family="Helvetica,sans-Serif" font-size="9.00">Web Image Text</text>
</g>
<!-- WebImageText&#45;&gt;clip -->
<g id="edge1" class="edge">
<title>WebImageText&#45;&gt;clip</title>
<path fill="none" stroke="#545454" stroke-width="0.75" d="M40.63,-54.07C40.63,-54.07 40.63,-26.39 40.63,-26.39"/>
<polygon fill="#545454" stroke="#545454" stroke-width="0.75" points="43.25,-26.39 40.63,-18.89 38,-26.39 43.25,-26.39"/>
</g>
</g>
</svg>
