<?xml version="1.0" encoding="UTF-8" standalone="no"?>
<!DOCTYPE svg PUBLIC "-//W3C//DTD SVG 1.1//EN"
 "http://www.w3.org/Graphics/SVG/1.1/DTD/svg11.dtd">
<!-- Generated by graphviz version 11.0.0 (20240428.1522)
 -->
<!-- Pages: 1 -->
<svg width="88pt" height="32pt"
 viewBox="0.00 0.00 87.75 32.41" xmlns="http://www.w3.org/2000/svg" xmlns:xlink="http://www.w3.org/1999/xlink">
<g id="graph0" class="graph" transform="scale(1 1) rotate(0) translate(4 28.41)">
<polygon fill="white" stroke="none" points="-4,4 -4,-28.41 83.75,-28.41 83.75,4 -4,4"/>
<!-- CommonCrawl -->
<g id="node1" class="node">
<title>CommonCrawl</title>
<path fill="#e0b7f3" stroke="black" stroke-width="0.5" d="M79.75,-22.19C79.75,-23.41 61.88,-24.41 39.88,-24.41 17.87,-24.41 0,-23.41 0,-22.19 0,-22.19 0,-2.22 0,-2.22 0,-0.99 17.87,0 39.88,0 61.88,0 79.75,-0.99 79.75,-2.22 79.75,-2.22 79.75,-22.19 79.75,-22.19"/>
<path fill="none" stroke="black" stroke-width="0.5" d="M79.75,-22.19C79.75,-20.96 61.88,-19.97 39.88,-19.97 17.87,-19.97 0,-20.96 0,-22.19"/>
<text text-anchor="middle" x="39.88" y="-8.53" font-family="Helvetica,sans-Serif" font-size="9.00">Common Crawl</text>
</g>
</g>
</svg>
