<?xml version="1.0" encoding="UTF-8" standalone="no"?>
<!DOCTYPE svg PUBLIC "-//W3C//DTD SVG 1.1//EN"
 "http://www.w3.org/Graphics/SVG/1.1/DTD/svg11.dtd">
<!-- Generated by graphviz version 11.0.0 (20240428.1522)
 -->
<!-- Pages: 1 -->
<svg width="77pt" height="32pt"
 viewBox="0.00 0.00 76.50 32.41" xmlns="http://www.w3.org/2000/svg" xmlns:xlink="http://www.w3.org/1999/xlink">
<g id="graph0" class="graph" transform="scale(1 1) rotate(0) translate(4 28.41)">
<polygon fill="white" stroke="none" points="-4,4 -4,-28.41 72.5,-28.41 72.5,4 -4,4"/>
<!-- coyo&#45;700m -->
<g id="node1" class="node">
<title>coyo&#45;700m</title>
<path fill="#e0b7f3" stroke="black" stroke-width="0.5" d="M68.5,-22.19C68.5,-23.41 53.15,-24.41 34.25,-24.41 15.35,-24.41 0,-23.41 0,-22.19 0,-22.19 0,-2.22 0,-2.22 0,-0.99 15.35,0 34.25,0 53.15,0 68.5,-0.99 68.5,-2.22 68.5,-2.22 68.5,-22.19 68.5,-22.19"/>
<path fill="none" stroke="black" stroke-width="0.5" d="M68.5,-22.19C68.5,-20.96 53.15,-19.97 34.25,-19.97 15.35,-19.97 0,-20.96 0,-22.19"/>
<text text-anchor="middle" x="34.25" y="-8.53" font-family="Helvetica,sans-Serif" font-size="9.00">COYO&#45;700M</text>
</g>
</g>
</svg>
