<?xml version="1.0" encoding="UTF-8" standalone="no"?>
<!DOCTYPE svg PUBLIC "-//W3C//DTD SVG 1.1//EN"
 "http://www.w3.org/Graphics/SVG/1.1/DTD/svg11.dtd">
<!-- Generated by graphviz version 11.0.0 (20240428.1522)
 -->
<!-- Pages: 1 -->
<svg width="339pt" height="153pt"
 viewBox="0.00 0.00 338.88 153.43" xmlns="http://www.w3.org/2000/svg" xmlns:xlink="http://www.w3.org/1999/xlink">
<g id="graph0" class="graph" transform="scale(1 1) rotate(0) translate(4 149.43)">
<polygon fill="white" stroke="none" points="-4,4 -4,-149.43 334.88,-149.43 334.88,4 -4,4"/>
<!-- WebImageText -->
<g id="node1" class="node">
<title>WebImageText</title>
<path fill="#e0b7f3" stroke="black" stroke-width="0.5" d="M81.25,-139.91C81.25,-141.13 63.04,-142.12 40.63,-142.12 18.21,-142.12 0,-141.13 0,-139.91 0,-139.91 0,-119.94 0,-119.94 0,-118.71 18.21,-117.72 40.63,-117.72 63.04,-117.72 81.25,-118.71 81.25,-119.94 81.25,-119.94 81.25,-139.91 81.25,-139.91"/>
<path fill="none" stroke="black" stroke-width="0.5" d="M81.25,-139.91C81.25,-138.68 63.04,-137.69 40.63,-137.69 18.21,-137.69 0,-138.68 0,-139.91"/>
<text text-anchor="middle" x="40.63" y="-126.25" font-family="Helvetica,sans-Serif" font-size="9.00">Web Image Text</text>
</g>
<!-- clip -->
<g id="node2" class="node">
<title>clip</title>
<path fill="#800080" stroke="black" stroke-width="0.5" d="M78.63,-75.2C78.63,-75.2 36.63,-75.2 36.63,-75.2 33.63,-75.2 30.63,-72.2 30.63,-69.2 30.63,-69.2 30.63,-63.2 30.63,-63.2 30.63,-60.2 33.63,-57.2 36.63,-57.2 36.63,-57.2 78.63,-57.2 78.63,-57.2 81.63,-57.2 84.63,-60.2 84.63,-63.2 84.63,-63.2 84.63,-69.2 84.63,-69.2 84.63,-72.2 81.63,-75.2 78.63,-75.2"/>
<text text-anchor="middle" x="57.63" y="-62.53" font-family="Helvetica,sans-Serif" font-size="9.00" fill="#ffffff">CLIP</text>
</g>
<!-- WebImageText&#45;&gt;clip -->
<g id="edge1" class="edge">
<title>WebImageText&#45;&gt;clip</title>
<path fill="none" stroke="#545454" stroke-width="0.75" d="M55.94,-117.94C55.94,-117.94 55.94,-83.5 55.94,-83.5"/>
<polygon fill="#545454" stroke="#545454" stroke-width="0.75" points="58.56,-83.5 55.94,-76 53.31,-83.5 58.56,-83.5"/>
</g>
<!-- eva&#45;g -->
<g id="node3" class="node">
<title>eva&#45;g</title>
<path fill="#800080" stroke="black" stroke-width="0.5" d="M201.63,-18C201.63,-18 159.63,-18 159.63,-18 156.63,-18 153.63,-15 153.63,-12 153.63,-12 153.63,-6 153.63,-6 153.63,-3 156.63,0 159.63,0 159.63,0 201.63,0 201.63,0 204.63,0 207.63,-3 207.63,-6 207.63,-6 207.63,-12 207.63,-12 207.63,-15 204.63,-18 201.63,-18"/>
<text text-anchor="middle" x="180.63" y="-5.33" font-family="Helvetica,sans-Serif" font-size="9.00" fill="#ffffff">EVA&#45;G</text>
</g>
<!-- clip&#45;&gt;eva&#45;g -->
<g id="edge2" class="edge">
<title>clip&#45;&gt;eva&#45;g</title>
<path fill="none" stroke="#545454" stroke-width="0.75" d="M57.63,-57.27C57.63,-41.18 57.63,-9 57.63,-9 57.63,-9 145,-9 145,-9"/>
<polygon fill="#545454" stroke="#545454" stroke-width="0.75" points="145,-11.63 152.5,-9 145,-6.38 145,-11.63"/>
</g>
<!-- laion&#45;400m -->
<g id="node4" class="node">
<title>laion&#45;400m</title>
<path fill="#e0b7f3" stroke="black" stroke-width="0.5" d="M176.88,-76.19C176.88,-77.41 161.52,-78.41 142.63,-78.41 123.73,-78.41 108.38,-77.41 108.38,-76.19 108.38,-76.19 108.38,-56.22 108.38,-56.22 108.38,-54.99 123.73,-54 142.63,-54 161.52,-54 176.88,-54.99 176.88,-56.22 176.88,-56.22 176.88,-76.19 176.88,-76.19"/>
<path fill="none" stroke="black" stroke-width="0.5" d="M176.88,-76.19C176.88,-74.96 161.52,-73.97 142.63,-73.97 123.73,-73.97 108.38,-74.96 108.38,-76.19"/>
<text text-anchor="middle" x="142.63" y="-62.53" font-family="Helvetica,sans-Serif" font-size="9.00">LAION 400m</text>
</g>
<!-- laion&#45;400m&#45;&gt;eva&#45;g -->
<g id="edge3" class="edge">
<title>laion&#45;400m&#45;&gt;eva&#45;g</title>
<path fill="none" stroke="#545454" stroke-width="0.75" d="M165.25,-54.07C165.25,-54.07 165.25,-26.39 165.25,-26.39"/>
<polygon fill="#545454" stroke="#545454" stroke-width="0.75" points="167.88,-26.39 165.25,-18.89 162.63,-26.39 167.88,-26.39"/>
</g>
<!-- CommonCrawl -->
<g id="node5" class="node">
<title>CommonCrawl</title>
<path fill="#e0b7f3" stroke="black" stroke-width="0.5" d="M175.5,-139.91C175.5,-141.13 157.63,-142.12 135.63,-142.12 113.62,-142.12 95.75,-141.13 95.75,-139.91 95.75,-139.91 95.75,-119.94 95.75,-119.94 95.75,-118.71 113.62,-117.72 135.63,-117.72 157.63,-117.72 175.5,-118.71 175.5,-119.94 175.5,-119.94 175.5,-139.91 175.5,-139.91"/>
<path fill="none" stroke="black" stroke-width="0.5" d="M175.5,-139.91C175.5,-138.68 157.63,-137.69 135.63,-137.69 113.62,-137.69 95.75,-138.68 95.75,-139.91"/>
<text text-anchor="middle" x="135.63" y="-126.25" font-family="Helvetica,sans-Serif" font-size="9.00">Common Crawl</text>
</g>
<!-- CommonCrawl&#45;&gt;laion&#45;400m -->
<g id="edge4" class="edge">
<title>CommonCrawl&#45;&gt;laion&#45;400m</title>
<path fill="none" stroke="#545454" stroke-width="0.75" d="M141.94,-117.94C141.94,-117.94 141.94,-86.77 141.94,-86.77"/>
<polygon fill="#545454" stroke="#545454" stroke-width="0.75" points="144.56,-86.77 141.94,-79.27 139.31,-86.77 144.56,-86.77"/>
</g>
<!-- laion&#45;2b -->
<g id="node6" class="node">
<title>laion&#45;2b</title>
<path fill="#e0b7f3" stroke="black" stroke-width="0.5" d="M247.88,-76.19C247.88,-77.41 235.21,-78.41 219.63,-78.41 204.04,-78.41 191.38,-77.41 191.38,-76.19 191.38,-76.19 191.38,-56.22 191.38,-56.22 191.38,-54.99 204.04,-54 219.63,-54 235.21,-54 247.88,-54.99 247.88,-56.22 247.88,-56.22 247.88,-76.19 247.88,-76.19"/>
<path fill="none" stroke="black" stroke-width="0.5" d="M247.88,-76.19C247.88,-74.96 235.21,-73.97 219.63,-73.97 204.04,-73.97 191.38,-74.96 191.38,-76.19"/>
<text text-anchor="middle" x="219.63" y="-62.53" font-family="Helvetica,sans-Serif" font-size="9.00">LAION 2B</text>
</g>
<!-- laion&#45;2b&#45;&gt;eva&#45;g -->
<g id="edge5" class="edge">
<title>laion&#45;2b&#45;&gt;eva&#45;g</title>
<path fill="none" stroke="#545454" stroke-width="0.75" d="M199.5,-54.63C199.5,-54.63 199.5,-26.57 199.5,-26.57"/>
<polygon fill="#545454" stroke="#545454" stroke-width="0.75" points="202.13,-26.57 199.5,-19.07 196.88,-26.57 202.13,-26.57"/>
</g>
<!-- coyo&#45;700m -->
<g id="node7" class="node">
<title>coyo&#45;700m</title>
<path fill="#e0b7f3" stroke="black" stroke-width="0.5" d="M330.88,-76.19C330.88,-77.41 315.52,-78.41 296.63,-78.41 277.73,-78.41 262.38,-77.41 262.38,-76.19 262.38,-76.19 262.38,-56.22 262.38,-56.22 262.38,-54.99 277.73,-54 296.63,-54 315.52,-54 330.88,-54.99 330.88,-56.22 330.88,-56.22 330.88,-76.19 330.88,-76.19"/>
<path fill="none" stroke="black" stroke-width="0.5" d="M330.88,-76.19C330.88,-74.96 315.52,-73.97 296.63,-73.97 277.73,-73.97 262.38,-74.96 262.38,-76.19"/>
<text text-anchor="middle" x="296.63" y="-62.53" font-family="Helvetica,sans-Serif" font-size="9.00">COYO&#45;700M</text>
</g>
<!-- coyo&#45;700m&#45;&gt;eva&#45;g -->
<g id="edge6" class="edge">
<title>coyo&#45;700m&#45;&gt;eva&#45;g</title>
<path fill="none" stroke="#545454" stroke-width="0.75" d="M296.63,-54.07C296.63,-37.28 296.63,-9 296.63,-9 296.63,-9 216.17,-9 216.17,-9"/>
<polygon fill="#545454" stroke="#545454" stroke-width="0.75" points="216.17,-6.38 208.67,-9 216.17,-11.63 216.17,-6.38"/>
</g>
<!-- laion -->
<g id="node8" class="node">
<title>laion</title>
<path fill="#cbc3e3" stroke="black" stroke-width="0.5" d="M258.65,-136.3C258.65,-136.3 232.19,-143.85 232.19,-143.85 229.41,-144.64 223.85,-144.64 221.07,-143.85 221.07,-143.85 194.6,-136.3 194.6,-136.3 191.82,-135.51 189.05,-131.82 189.05,-128.93 189.05,-128.93 189.07,-123.15 189.07,-123.15 189.07,-120.26 191.97,-117.37 194.86,-117.37 194.86,-117.37 258.39,-117.37 258.39,-117.37 261.28,-117.37 264.18,-120.26 264.19,-123.15 264.19,-123.15 264.2,-128.93 264.2,-128.93 264.2,-131.82 261.43,-135.51 258.65,-136.3"/>
<text text-anchor="middle" x="226.63" y="-126.25" font-family="Helvetica,sans-Serif" font-size="9.00">LAION</text>
</g>
<!-- laion&#45;&gt;laion&#45;400m -->
<g id="edge7" class="edge">
<title>laion&#45;&gt;laion&#45;400m</title>
<path fill="none" stroke="#545454" stroke-width="0.75" d="M189.4,-129C185.52,-129 182.96,-129 182.96,-129 182.96,-129 182.96,-66 182.96,-66 182.96,-66 182.33,-66 182.33,-66"/>
<polygon fill="#545454" stroke="#545454" stroke-width="0.75" points="185.29,-63.38 177.79,-66 185.29,-68.63 185.29,-63.38"/>
</g>
<!-- laion&#45;&gt;laion&#45;2b -->
<g id="edge8" class="edge">
<title>laion&#45;&gt;laion&#45;2b</title>
<path fill="none" stroke="#545454" stroke-width="0.75" d="M219.63,-117.64C219.63,-117.64 219.63,-86.66 219.63,-86.66"/>
<polygon fill="#545454" stroke="#545454" stroke-width="0.75" points="222.25,-86.66 219.63,-79.16 217,-86.66 222.25,-86.66"/>
</g>
</g>
</svg>
