<?xml version="1.0" encoding="UTF-8" standalone="no"?>
<!DOCTYPE svg PUBLIC "-//W3C//DTD SVG 1.1//EN"
 "http://www.w3.org/Graphics/SVG/1.1/DTD/svg11.dtd">
<!-- Generated by graphviz version 11.0.0 (20240428.1522)
 -->
<!-- Pages: 1 -->
<svg width="328pt" height="153pt"
 viewBox="0.00 0.00 328.13 153.43" xmlns="http://www.w3.org/2000/svg" xmlns:xlink="http://www.w3.org/1999/xlink">
<g id="graph0" class="graph" transform="scale(1 1) rotate(0) translate(4 149.43)">
<polygon fill="white" stroke="none" points="-4,4 -4,-149.43 324.13,-149.43 324.13,4 -4,4"/>
<!-- coyo&#45;700m -->
<g id="node1" class="node">
<title>coyo&#45;700m</title>
<path fill="#e0b7f3" stroke="black" stroke-width="0.5" d="M68.5,-76.19C68.5,-77.41 53.15,-78.41 34.25,-78.41 15.35,-78.41 0,-77.41 0,-76.19 0,-76.19 0,-56.22 0,-56.22 0,-54.99 15.35,-54 34.25,-54 53.15,-54 68.5,-54.99 68.5,-56.22 68.5,-56.22 68.5,-76.19 68.5,-76.19"/>
<path fill="none" stroke="black" stroke-width="0.5" d="M68.5,-76.19C68.5,-74.96 53.15,-73.97 34.25,-73.97 15.35,-73.97 0,-74.96 0,-76.19"/>
<text text-anchor="middle" x="34.25" y="-62.53" font-family="Helvetica,sans-Serif" font-size="9.00">COYO&#45;700M</text>
</g>
<!-- eva&#45;g -->
<g id="node2" class="node">
<title>eva&#45;g</title>
<path fill="#800080" stroke="black" stroke-width="0.5" d="M164.25,-18C164.25,-18 122.25,-18 122.25,-18 119.25,-18 116.25,-15 116.25,-12 116.25,-12 116.25,-6 116.25,-6 116.25,-3 119.25,0 122.25,0 122.25,0 164.25,0 164.25,0 167.25,0 170.25,-3 170.25,-6 170.25,-6 170.25,-12 170.25,-12 170.25,-15 167.25,-18 164.25,-18"/>
<text text-anchor="middle" x="143.25" y="-5.33" font-family="Helvetica,sans-Serif" font-size="9.00" fill="#ffffff">EVA&#45;G</text>
</g>
<!-- coyo&#45;700m&#45;&gt;eva&#45;g -->
<g id="edge1" class="edge">
<title>coyo&#45;700m&#45;&gt;eva&#45;g</title>
<path fill="none" stroke="#545454" stroke-width="0.75" d="M34.25,-54.07C34.25,-37.28 34.25,-9 34.25,-9 34.25,-9 107.67,-9 107.67,-9"/>
<polygon fill="#545454" stroke="#545454" stroke-width="0.75" points="107.67,-11.63 115.17,-9 107.67,-6.38 107.67,-11.63"/>
</g>
<!-- WebImageText -->
<g id="node3" class="node">
<title>WebImageText</title>
<path fill="#e0b7f3" stroke="black" stroke-width="0.5" d="M137.88,-139.91C137.88,-141.13 119.67,-142.12 97.25,-142.12 74.83,-142.12 56.62,-141.13 56.62,-139.91 56.62,-139.91 56.62,-119.94 56.62,-119.94 56.62,-118.71 74.83,-117.72 97.25,-117.72 119.67,-117.72 137.88,-118.71 137.88,-119.94 137.88,-119.94 137.88,-139.91 137.88,-139.91"/>
<path fill="none" stroke="black" stroke-width="0.5" d="M137.88,-139.91C137.88,-138.68 119.67,-137.69 97.25,-137.69 74.83,-137.69 56.62,-138.68 56.62,-139.91"/>
<text text-anchor="middle" x="97.25" y="-126.25" font-family="Helvetica,sans-Serif" font-size="9.00">Web Image Text</text>
</g>
<!-- clip -->
<g id="node4" class="node">
<title>clip</title>
<path fill="#800080" stroke="black" stroke-width="0.5" d="M130.25,-75.2C130.25,-75.2 88.25,-75.2 88.25,-75.2 85.25,-75.2 82.25,-72.2 82.25,-69.2 82.25,-69.2 82.25,-63.2 82.25,-63.2 82.25,-60.2 85.25,-57.2 88.25,-57.2 88.25,-57.2 130.25,-57.2 130.25,-57.2 133.25,-57.2 136.25,-60.2 136.25,-63.2 136.25,-63.2 136.25,-69.2 136.25,-69.2 136.25,-72.2 133.25,-75.2 130.25,-75.2"/>
<text text-anchor="middle" x="109.25" y="-62.53" font-family="Helvetica,sans-Serif" font-size="9.00" fill="#ffffff">CLIP</text>
</g>
<!-- WebImageText&#45;&gt;clip -->
<g id="edge2" class="edge">
<title>WebImageText&#45;&gt;clip</title>
<path fill="none" stroke="#545454" stroke-width="0.75" d="M109.25,-117.94C109.25,-117.94 109.25,-83.5 109.25,-83.5"/>
<polygon fill="#545454" stroke="#545454" stroke-width="0.75" points="111.88,-83.5 109.25,-76 106.63,-83.5 111.88,-83.5"/>
</g>
<!-- clip&#45;&gt;eva&#45;g -->
<g id="edge3" class="edge">
<title>clip&#45;&gt;eva&#45;g</title>
<path fill="none" stroke="#545454" stroke-width="0.75" d="M126.25,-57.27C126.25,-57.27 126.25,-26.32 126.25,-26.32"/>
<polygon fill="#545454" stroke="#545454" stroke-width="0.75" points="128.88,-26.32 126.25,-18.82 123.63,-26.32 128.88,-26.32"/>
</g>
<!-- laion&#45;2b -->
<g id="node5" class="node">
<title>laion&#45;2b</title>
<path fill="#e0b7f3" stroke="black" stroke-width="0.5" d="M206.5,-76.19C206.5,-77.41 193.84,-78.41 178.25,-78.41 162.66,-78.41 150,-77.41 150,-76.19 150,-76.19 150,-56.22 150,-56.22 150,-54.99 162.66,-54 178.25,-54 193.84,-54 206.5,-54.99 206.5,-56.22 206.5,-56.22 206.5,-76.19 206.5,-76.19"/>
<path fill="none" stroke="black" stroke-width="0.5" d="M206.5,-76.19C206.5,-74.96 193.84,-73.97 178.25,-73.97 162.66,-73.97 150,-74.96 150,-76.19"/>
<text text-anchor="middle" x="178.25" y="-62.53" font-family="Helvetica,sans-Serif" font-size="9.00">LAION 2B</text>
</g>
<!-- laion&#45;2b&#45;&gt;eva&#45;g -->
<g id="edge4" class="edge">
<title>laion&#45;2b&#45;&gt;eva&#45;g</title>
<path fill="none" stroke="#545454" stroke-width="0.75" d="M160.13,-54.35C160.13,-54.35 160.13,-26.48 160.13,-26.48"/>
<polygon fill="#545454" stroke="#545454" stroke-width="0.75" points="162.75,-26.48 160.13,-18.98 157.5,-26.48 162.75,-26.48"/>
</g>
<!-- CommonCrawl -->
<g id="node6" class="node">
<title>CommonCrawl</title>
<path fill="#e0b7f3" stroke="black" stroke-width="0.5" d="M320.13,-139.91C320.13,-141.13 302.25,-142.12 280.25,-142.12 258.25,-142.12 240.38,-141.13 240.38,-139.91 240.38,-139.91 240.38,-119.94 240.38,-119.94 240.38,-118.71 258.25,-117.72 280.25,-117.72 302.25,-117.72 320.13,-118.71 320.13,-119.94 320.13,-119.94 320.13,-139.91 320.13,-139.91"/>
<path fill="none" stroke="black" stroke-width="0.5" d="M320.13,-139.91C320.13,-138.68 302.25,-137.69 280.25,-137.69 258.25,-137.69 240.38,-138.68 240.38,-139.91"/>
<text text-anchor="middle" x="280.25" y="-126.25" font-family="Helvetica,sans-Serif" font-size="9.00">Common Crawl</text>
</g>
<!-- laion&#45;400m -->
<g id="node7" class="node">
<title>laion&#45;400m</title>
<path fill="#e0b7f3" stroke="black" stroke-width="0.5" d="M289.5,-76.19C289.5,-77.41 274.15,-78.41 255.25,-78.41 236.35,-78.41 221,-77.41 221,-76.19 221,-76.19 221,-56.22 221,-56.22 221,-54.99 236.35,-54 255.25,-54 274.15,-54 289.5,-54.99 289.5,-56.22 289.5,-56.22 289.5,-76.19 289.5,-76.19"/>
<path fill="none" stroke="black" stroke-width="0.5" d="M289.5,-76.19C289.5,-74.96 274.15,-73.97 255.25,-73.97 236.35,-73.97 221,-74.96 221,-76.19"/>
<text text-anchor="middle" x="255.25" y="-62.53" font-family="Helvetica,sans-Serif" font-size="9.00">LAION 400m</text>
</g>
<!-- CommonCrawl&#45;&gt;laion&#45;400m -->
<g id="edge5" class="edge">
<title>CommonCrawl&#45;&gt;laion&#45;400m</title>
<path fill="none" stroke="#545454" stroke-width="0.75" d="M264.94,-117.94C264.94,-117.94 264.94,-86.77 264.94,-86.77"/>
<polygon fill="#545454" stroke="#545454" stroke-width="0.75" points="267.56,-86.77 264.94,-79.27 262.31,-86.77 267.56,-86.77"/>
</g>
<!-- laion&#45;400m&#45;&gt;eva&#45;g -->
<g id="edge6" class="edge">
<title>laion&#45;400m&#45;&gt;eva&#45;g</title>
<path fill="none" stroke="#545454" stroke-width="0.75" d="M255.25,-54.07C255.25,-37.28 255.25,-9 255.25,-9 255.25,-9 178.71,-9 178.71,-9"/>
<polygon fill="#545454" stroke="#545454" stroke-width="0.75" points="178.71,-6.38 171.21,-9 178.71,-11.63 178.71,-6.38"/>
</g>
<!-- laion -->
<g id="node8" class="node">
<title>laion</title>
<path fill="#cbc3e3" stroke="black" stroke-width="0.5" d="M221.27,-136.3C221.27,-136.3 194.81,-143.85 194.81,-143.85 192.03,-144.64 186.47,-144.64 183.69,-143.85 183.69,-143.85 157.23,-136.3 157.23,-136.3 154.45,-135.51 151.67,-131.82 151.68,-128.93 151.68,-128.93 151.69,-123.15 151.69,-123.15 151.7,-120.26 154.59,-117.37 157.48,-117.37 157.48,-117.37 221.02,-117.37 221.02,-117.37 223.91,-117.37 226.8,-120.26 226.81,-123.15 226.81,-123.15 226.82,-128.93 226.82,-128.93 226.83,-131.82 224.05,-135.51 221.27,-136.3"/>
<text text-anchor="middle" x="189.25" y="-126.25" font-family="Helvetica,sans-Serif" font-size="9.00">LAION</text>
</g>
<!-- laion&#45;&gt;laion&#45;2b -->
<g id="edge7" class="edge">
<title>laion&#45;&gt;laion&#45;2b</title>
<path fill="none" stroke="#545454" stroke-width="0.75" d="M179.08,-117.64C179.08,-117.64 179.08,-86.66 179.08,-86.66"/>
<polygon fill="#545454" stroke="#545454" stroke-width="0.75" points="181.71,-86.66 179.08,-79.16 176.46,-86.66 181.71,-86.66"/>
</g>
<!-- laion&#45;&gt;laion&#45;400m -->
<g id="edge8" class="edge">
<title>laion&#45;&gt;laion&#45;400m</title>
<path fill="none" stroke="#545454" stroke-width="0.75" d="M213.75,-117.6C213.75,-99.02 213.75,-66 213.75,-66 213.75,-66 214.51,-66 214.51,-66"/>
<polygon fill="#545454" stroke="#545454" stroke-width="0.75" points="212.73,-68.63 220.23,-66 212.73,-63.38 212.73,-68.63"/>
</g>
</g>
</svg>
