<?xml version="1.0" encoding="UTF-8" standalone="no"?>
<!DOCTYPE svg PUBLIC "-//W3C//DTD SVG 1.1//EN"
 "http://www.w3.org/Graphics/SVG/1.1/DTD/svg11.dtd">
<!-- Generated by graphviz version 11.0.0 (20240428.1522)
 -->
<!-- Pages: 1 -->
<svg width="339pt" height="153pt"
 viewBox="0.00 0.00 338.88 153.43" xmlns="http://www.w3.org/2000/svg" xmlns:xlink="http://www.w3.org/1999/xlink">
<g id="graph0" class="graph" transform="scale(1 1) rotate(0) translate(4 149.43)">
<polygon fill="white" stroke="none" points="-4,4 -4,-149.43 334.88,-149.43 334.88,4 -4,4"/>
<!-- clip -->
<g id="node1" class="node">
<title>clip</title>
<path fill="#800080" stroke="black" stroke-width="0.5" d="M301.25,-75.2C301.25,-75.2 259.25,-75.2 259.25,-75.2 256.25,-75.2 253.25,-72.2 253.25,-69.2 253.25,-69.2 253.25,-63.2 253.25,-63.2 253.25,-60.2 256.25,-57.2 259.25,-57.2 259.25,-57.2 301.25,-57.2 301.25,-57.2 304.25,-57.2 307.25,-60.2 307.25,-63.2 307.25,-63.2 307.25,-69.2 307.25,-69.2 307.25,-72.2 304.25,-75.2 301.25,-75.2"/>
<text text-anchor="middle" x="280.25" y="-62.53" font-family="Helvetica,sans-Serif" font-size="9.00" fill="#ffffff">CLIP</text>
</g>
<!-- eva&#45;g -->
<g id="node2" class="node">
<title>eva&#45;g</title>
<path fill="#800080" stroke="black" stroke-width="0.5" d="M170.25,-18C170.25,-18 128.25,-18 128.25,-18 125.25,-18 122.25,-15 122.25,-12 122.25,-12 122.25,-6 122.25,-6 122.25,-3 125.25,0 128.25,0 128.25,0 170.25,0 170.25,0 173.25,0 176.25,-3 176.25,-6 176.25,-6 176.25,-12 176.25,-12 176.25,-15 173.25,-18 170.25,-18"/>
<text text-anchor="middle" x="149.25" y="-5.33" font-family="Helvetica,sans-Serif" font-size="9.00" fill="#ffffff">EVA&#45;G</text>
</g>
<!-- clip&#45;&gt;eva&#45;g -->
<g id="edge1" class="edge">
<title>clip&#45;&gt;eva&#45;g</title>
<path fill="none" stroke="#545454" stroke-width="0.75" d="M280.25,-57.27C280.25,-41.18 280.25,-9 280.25,-9 280.25,-9 184.71,-9 184.71,-9"/>
<polygon fill="#545454" stroke="#545454" stroke-width="0.75" points="184.71,-6.38 177.21,-9 184.71,-11.63 184.71,-6.38"/>
</g>
<!-- coyo&#45;700m -->
<g id="node3" class="node">
<title>coyo&#45;700m</title>
<path fill="#e0b7f3" stroke="black" stroke-width="0.5" d="M68.5,-76.19C68.5,-77.41 53.15,-78.41 34.25,-78.41 15.35,-78.41 0,-77.41 0,-76.19 0,-76.19 0,-56.22 0,-56.22 0,-54.99 15.35,-54 34.25,-54 53.15,-54 68.5,-54.99 68.5,-56.22 68.5,-56.22 68.5,-76.19 68.5,-76.19"/>
<path fill="none" stroke="black" stroke-width="0.5" d="M68.5,-76.19C68.5,-74.96 53.15,-73.97 34.25,-73.97 15.35,-73.97 0,-74.96 0,-76.19"/>
<text text-anchor="middle" x="34.25" y="-62.53" font-family="Helvetica,sans-Serif" font-size="9.00">COYO&#45;700M</text>
</g>
<!-- coyo&#45;700m&#45;&gt;eva&#45;g -->
<g id="edge2" class="edge">
<title>coyo&#45;700m&#45;&gt;eva&#45;g</title>
<path fill="none" stroke="#545454" stroke-width="0.75" d="M34.25,-54.07C34.25,-37.28 34.25,-9 34.25,-9 34.25,-9 113.65,-9 113.65,-9"/>
<polygon fill="#545454" stroke="#545454" stroke-width="0.75" points="113.65,-11.63 121.15,-9 113.65,-6.38 113.65,-11.63"/>
</g>
<!-- laion&#45;2b -->
<g id="node4" class="node">
<title>laion&#45;2b</title>
<path fill="#e0b7f3" stroke="black" stroke-width="0.5" d="M139.5,-76.19C139.5,-77.41 126.84,-78.41 111.25,-78.41 95.66,-78.41 83,-77.41 83,-76.19 83,-76.19 83,-56.22 83,-56.22 83,-54.99 95.66,-54 111.25,-54 126.84,-54 139.5,-54.99 139.5,-56.22 139.5,-56.22 139.5,-76.19 139.5,-76.19"/>
<path fill="none" stroke="black" stroke-width="0.5" d="M139.5,-76.19C139.5,-74.96 126.84,-73.97 111.25,-73.97 95.66,-73.97 83,-74.96 83,-76.19"/>
<text text-anchor="middle" x="111.25" y="-62.53" font-family="Helvetica,sans-Serif" font-size="9.00">LAION 2B</text>
</g>
<!-- laion&#45;2b&#45;&gt;eva&#45;g -->
<g id="edge3" class="edge">
<title>laion&#45;2b&#45;&gt;eva&#45;g</title>
<path fill="none" stroke="#545454" stroke-width="0.75" d="M130.88,-54.35C130.88,-54.35 130.88,-26.48 130.88,-26.48"/>
<polygon fill="#545454" stroke="#545454" stroke-width="0.75" points="133.5,-26.48 130.88,-18.98 128.25,-26.48 133.5,-26.48"/>
</g>
<!-- laion&#45;400m -->
<g id="node5" class="node">
<title>laion&#45;400m</title>
<path fill="#e0b7f3" stroke="black" stroke-width="0.5" d="M222.5,-76.19C222.5,-77.41 207.15,-78.41 188.25,-78.41 169.35,-78.41 154,-77.41 154,-76.19 154,-76.19 154,-56.22 154,-56.22 154,-54.99 169.35,-54 188.25,-54 207.15,-54 222.5,-54.99 222.5,-56.22 222.5,-56.22 222.5,-76.19 222.5,-76.19"/>
<path fill="none" stroke="black" stroke-width="0.5" d="M222.5,-76.19C222.5,-74.96 207.15,-73.97 188.25,-73.97 169.35,-73.97 154,-74.96 154,-76.19"/>
<text text-anchor="middle" x="188.25" y="-62.53" font-family="Helvetica,sans-Serif" font-size="9.00">LAION 400m</text>
</g>
<!-- laion&#45;400m&#45;&gt;eva&#45;g -->
<g id="edge4" class="edge">
<title>laion&#45;400m&#45;&gt;eva&#45;g</title>
<path fill="none" stroke="#545454" stroke-width="0.75" d="M165.13,-54.07C165.13,-54.07 165.13,-26.39 165.13,-26.39"/>
<polygon fill="#545454" stroke="#545454" stroke-width="0.75" points="167.75,-26.39 165.13,-18.89 162.5,-26.39 167.75,-26.39"/>
</g>
<!-- WebImageText -->
<g id="node6" class="node">
<title>WebImageText</title>
<path fill="#e0b7f3" stroke="black" stroke-width="0.5" d="M330.88,-139.91C330.88,-141.13 312.67,-142.12 290.25,-142.12 267.83,-142.12 249.62,-141.13 249.62,-139.91 249.62,-139.91 249.62,-119.94 249.62,-119.94 249.62,-118.71 267.83,-117.72 290.25,-117.72 312.67,-117.72 330.88,-118.71 330.88,-119.94 330.88,-119.94 330.88,-139.91 330.88,-139.91"/>
<path fill="none" stroke="black" stroke-width="0.5" d="M330.88,-139.91C330.88,-138.68 312.67,-137.69 290.25,-137.69 267.83,-137.69 249.62,-138.68 249.62,-139.91"/>
<text text-anchor="middle" x="290.25" y="-126.25" font-family="Helvetica,sans-Serif" font-size="9.00">Web Image Text</text>
</g>
<!-- WebImageText&#45;&gt;clip -->
<g id="edge5" class="edge">
<title>WebImageText&#45;&gt;clip</title>
<path fill="none" stroke="#545454" stroke-width="0.75" d="M280.25,-117.94C280.25,-117.94 280.25,-83.5 280.25,-83.5"/>
<polygon fill="#545454" stroke="#545454" stroke-width="0.75" points="282.88,-83.5 280.25,-76 277.63,-83.5 282.88,-83.5"/>
</g>
<!-- laion -->
<g id="node7" class="node">
<title>laion</title>
<path fill="#cbc3e3" stroke="black" stroke-width="0.5" d="M136.27,-136.3C136.27,-136.3 109.81,-143.85 109.81,-143.85 107.03,-144.64 101.47,-144.64 98.69,-143.85 98.69,-143.85 72.23,-136.3 72.23,-136.3 69.45,-135.51 66.67,-131.82 66.68,-128.93 66.68,-128.93 66.69,-123.15 66.69,-123.15 66.7,-120.26 69.59,-117.37 72.48,-117.37 72.48,-117.37 136.02,-117.37 136.02,-117.37 138.91,-117.37 141.8,-120.26 141.81,-123.15 141.81,-123.15 141.82,-128.93 141.82,-128.93 141.83,-131.82 139.05,-135.51 136.27,-136.3"/>
<text text-anchor="middle" x="104.25" y="-126.25" font-family="Helvetica,sans-Serif" font-size="9.00">LAION</text>
</g>
<!-- laion&#45;&gt;laion&#45;2b -->
<g id="edge6" class="edge">
<title>laion&#45;&gt;laion&#45;2b</title>
<path fill="none" stroke="#545454" stroke-width="0.75" d="M111.25,-117.64C111.25,-117.64 111.25,-86.66 111.25,-86.66"/>
<polygon fill="#545454" stroke="#545454" stroke-width="0.75" points="113.88,-86.66 111.25,-79.16 108.63,-86.66 113.88,-86.66"/>
</g>
<!-- laion&#45;&gt;laion&#45;400m -->
<g id="edge7" class="edge">
<title>laion&#45;&gt;laion&#45;400m</title>
<path fill="none" stroke="#545454" stroke-width="0.75" d="M141.47,-129C145.36,-129 147.92,-129 147.92,-129 147.92,-129 147.92,-66 147.92,-66 147.92,-66 148.55,-66 148.55,-66"/>
<polygon fill="#545454" stroke="#545454" stroke-width="0.75" points="145.58,-68.63 153.08,-66 145.58,-63.38 145.58,-68.63"/>
</g>
<!-- CommonCrawl -->
<g id="node8" class="node">
<title>CommonCrawl</title>
<path fill="#e0b7f3" stroke="black" stroke-width="0.5" d="M235.13,-139.91C235.13,-141.13 217.25,-142.12 195.25,-142.12 173.25,-142.12 155.38,-141.13 155.38,-139.91 155.38,-139.91 155.38,-119.94 155.38,-119.94 155.38,-118.71 173.25,-117.72 195.25,-117.72 217.25,-117.72 235.13,-118.71 235.13,-119.94 235.13,-119.94 235.13,-139.91 235.13,-139.91"/>
<path fill="none" stroke="black" stroke-width="0.5" d="M235.13,-139.91C235.13,-138.68 217.25,-137.69 195.25,-137.69 173.25,-137.69 155.38,-138.68 155.38,-139.91"/>
<text text-anchor="middle" x="195.25" y="-126.25" font-family="Helvetica,sans-Serif" font-size="9.00">Common Crawl</text>
</g>
<!-- CommonCrawl&#45;&gt;laion&#45;400m -->
<g id="edge8" class="edge">
<title>CommonCrawl&#45;&gt;laion&#45;400m</title>
<path fill="none" stroke="#545454" stroke-width="0.75" d="M188.94,-117.94C188.94,-117.94 188.94,-86.77 188.94,-86.77"/>
<polygon fill="#545454" stroke="#545454" stroke-width="0.75" points="191.56,-86.77 188.94,-79.27 186.31,-86.77 191.56,-86.77"/>
</g>
</g>
</svg>
