<?xml version="1.0" encoding="UTF-8" standalone="no"?>
<!DOCTYPE svg PUBLIC "-//W3C//DTD SVG 1.1//EN"
 "http://www.w3.org/Graphics/SVG/1.1/DTD/svg11.dtd">
<!-- Generated by graphviz version 11.0.0 (20240428.1522)
 -->
<!-- Pages: 1 -->
<svg width="317pt" height="153pt"
 viewBox="0.00 0.00 316.83 153.43" xmlns="http://www.w3.org/2000/svg" xmlns:xlink="http://www.w3.org/1999/xlink">
<g id="graph0" class="graph" transform="scale(1 1) rotate(0) translate(4 149.43)">
<polygon fill="white" stroke="none" points="-4,4 -4,-149.43 312.83,-149.43 312.83,4 -4,4"/>
<!-- eva&#45;g -->
<g id="node1" class="node">
<title>eva&#45;g</title>
<path fill="#800080" stroke="black" stroke-width="0.5" d="M182.58,-18C182.58,-18 140.58,-18 140.58,-18 137.58,-18 134.58,-15 134.58,-12 134.58,-12 134.58,-6 134.58,-6 134.58,-3 137.58,0 140.58,0 140.58,0 182.58,0 182.58,0 185.58,0 188.58,-3 188.58,-6 188.58,-6 188.58,-12 188.58,-12 188.58,-15 185.58,-18 182.58,-18"/>
<text text-anchor="middle" x="161.58" y="-5.33" font-family="Helvetica,sans-Serif" font-size="9.00" fill="#ffffff">EVA&#45;G</text>
</g>
<!-- laion -->
<g id="node2" class="node">
<title>laion</title>
<path fill="#cbc3e3" stroke="black" stroke-width="0.5" d="M69.61,-136.3C69.61,-136.3 43.14,-143.85 43.14,-143.85 40.36,-144.64 34.8,-144.64 32.02,-143.85 32.02,-143.85 5.56,-136.3 5.56,-136.3 2.78,-135.51 0.01,-131.82 0.01,-128.93 0.01,-128.93 0.02,-123.15 0.02,-123.15 0.03,-120.26 2.93,-117.37 5.82,-117.37 5.82,-117.37 69.35,-117.37 69.35,-117.37 72.24,-117.37 75.14,-120.26 75.14,-123.15 75.14,-123.15 75.16,-128.93 75.16,-128.93 75.16,-131.82 72.39,-135.51 69.61,-136.3"/>
<text text-anchor="middle" x="37.58" y="-126.25" font-family="Helvetica,sans-Serif" font-size="9.00">LAION</text>
</g>
<!-- laion&#45;2b -->
<g id="node3" class="node">
<title>laion&#45;2b</title>
<path fill="#e0b7f3" stroke="black" stroke-width="0.5" d="M72.83,-76.19C72.83,-77.41 60.17,-78.41 44.58,-78.41 29,-78.41 16.33,-77.41 16.33,-76.19 16.33,-76.19 16.33,-56.22 16.33,-56.22 16.33,-54.99 29,-54 44.58,-54 60.17,-54 72.83,-54.99 72.83,-56.22 72.83,-56.22 72.83,-76.19 72.83,-76.19"/>
<path fill="none" stroke="black" stroke-width="0.5" d="M72.83,-76.19C72.83,-74.96 60.17,-73.97 44.58,-73.97 29,-73.97 16.33,-74.96 16.33,-76.19"/>
<text text-anchor="middle" x="44.58" y="-62.53" font-family="Helvetica,sans-Serif" font-size="9.00">LAION 2B</text>
</g>
<!-- laion&#45;&gt;laion&#45;2b -->
<g id="edge1" class="edge">
<title>laion&#45;&gt;laion&#45;2b</title>
<path fill="none" stroke="#545454" stroke-width="0.75" d="M44.58,-117.64C44.58,-117.64 44.58,-86.66 44.58,-86.66"/>
<polygon fill="#545454" stroke="#545454" stroke-width="0.75" points="47.21,-86.66 44.58,-79.16 41.96,-86.66 47.21,-86.66"/>
</g>
<!-- laion&#45;400m -->
<g id="node4" class="node">
<title>laion&#45;400m</title>
<path fill="#e0b7f3" stroke="black" stroke-width="0.5" d="M158.83,-76.19C158.83,-77.41 143.48,-78.41 124.58,-78.41 105.69,-78.41 90.33,-77.41 90.33,-76.19 90.33,-76.19 90.33,-56.22 90.33,-56.22 90.33,-54.99 105.69,-54 124.58,-54 143.48,-54 158.83,-54.99 158.83,-56.22 158.83,-56.22 158.83,-76.19 158.83,-76.19"/>
<path fill="none" stroke="black" stroke-width="0.5" d="M158.83,-76.19C158.83,-74.96 143.48,-73.97 124.58,-73.97 105.69,-73.97 90.33,-74.96 90.33,-76.19"/>
<text text-anchor="middle" x="124.58" y="-62.53" font-family="Helvetica,sans-Serif" font-size="9.00">LAION 400m</text>
</g>
<!-- laion&#45;&gt;laion&#45;400m -->
<g id="edge2" class="edge">
<title>laion&#45;&gt;laion&#45;400m</title>
<path fill="none" stroke="#545454" stroke-width="0.75" d="M75.01,-129C79.17,-129 81.94,-129 81.94,-129 81.94,-129 81.94,-66 81.94,-66 81.94,-66 82.8,-66 82.8,-66"/>
<polygon fill="#545454" stroke="#545454" stroke-width="0.75" points="81.93,-68.63 89.43,-66 81.93,-63.38 81.93,-68.63"/>
</g>
<!-- laion&#45;2b&#45;&gt;eva&#45;g -->
<g id="edge3" class="edge">
<title>laion&#45;2b&#45;&gt;eva&#45;g</title>
<path fill="none" stroke="#545454" stroke-width="0.75" d="M44.58,-54.07C44.58,-37.28 44.58,-9 44.58,-9 44.58,-9 126.11,-9 126.11,-9"/>
<polygon fill="#545454" stroke="#545454" stroke-width="0.75" points="126.11,-11.63 133.61,-9 126.11,-6.38 126.11,-11.63"/>
</g>
<!-- laion&#45;400m&#45;&gt;eva&#45;g -->
<g id="edge4" class="edge">
<title>laion&#45;400m&#45;&gt;eva&#45;g</title>
<path fill="none" stroke="#545454" stroke-width="0.75" d="M146.71,-54.07C146.71,-54.07 146.71,-26.39 146.71,-26.39"/>
<polygon fill="#545454" stroke="#545454" stroke-width="0.75" points="149.33,-26.39 146.71,-18.89 144.08,-26.39 149.33,-26.39"/>
</g>
<!-- clip -->
<g id="node5" class="node">
<title>clip</title>
<path fill="#800080" stroke="black" stroke-width="0.5" d="M220.58,-75.2C220.58,-75.2 178.58,-75.2 178.58,-75.2 175.58,-75.2 172.58,-72.2 172.58,-69.2 172.58,-69.2 172.58,-63.2 172.58,-63.2 172.58,-60.2 175.58,-57.2 178.58,-57.2 178.58,-57.2 220.58,-57.2 220.58,-57.2 223.58,-57.2 226.58,-60.2 226.58,-63.2 226.58,-63.2 226.58,-69.2 226.58,-69.2 226.58,-72.2 223.58,-75.2 220.58,-75.2"/>
<text text-anchor="middle" x="199.58" y="-62.53" font-family="Helvetica,sans-Serif" font-size="9.00" fill="#ffffff">CLIP</text>
</g>
<!-- clip&#45;&gt;eva&#45;g -->
<g id="edge5" class="edge">
<title>clip&#45;&gt;eva&#45;g</title>
<path fill="none" stroke="#545454" stroke-width="0.75" d="M180.58,-57.27C180.58,-57.27 180.58,-26.32 180.58,-26.32"/>
<polygon fill="#545454" stroke="#545454" stroke-width="0.75" points="183.21,-26.32 180.58,-18.82 177.96,-26.32 183.21,-26.32"/>
</g>
<!-- coyo&#45;700m -->
<g id="node6" class="node">
<title>coyo&#45;700m</title>
<path fill="#e0b7f3" stroke="black" stroke-width="0.5" d="M308.83,-76.19C308.83,-77.41 293.48,-78.41 274.58,-78.41 255.69,-78.41 240.33,-77.41 240.33,-76.19 240.33,-76.19 240.33,-56.22 240.33,-56.22 240.33,-54.99 255.69,-54 274.58,-54 293.48,-54 308.83,-54.99 308.83,-56.22 308.83,-56.22 308.83,-76.19 308.83,-76.19"/>
<path fill="none" stroke="black" stroke-width="0.5" d="M308.83,-76.19C308.83,-74.96 293.48,-73.97 274.58,-73.97 255.69,-73.97 240.33,-74.96 240.33,-76.19"/>
<text text-anchor="middle" x="274.58" y="-62.53" font-family="Helvetica,sans-Serif" font-size="9.00">COYO&#45;700M</text>
</g>
<!-- coyo&#45;700m&#45;&gt;eva&#45;g -->
<g id="edge6" class="edge">
<title>coyo&#45;700m&#45;&gt;eva&#45;g</title>
<path fill="none" stroke="#545454" stroke-width="0.75" d="M274.58,-54.07C274.58,-37.28 274.58,-9 274.58,-9 274.58,-9 197,-9 197,-9"/>
<polygon fill="#545454" stroke="#545454" stroke-width="0.75" points="197,-6.38 189.5,-9 197,-11.63 197,-6.38"/>
</g>
<!-- CommonCrawl -->
<g id="node7" class="node">
<title>CommonCrawl</title>
<path fill="#e0b7f3" stroke="black" stroke-width="0.5" d="M168.46,-139.91C168.46,-141.13 150.59,-142.12 128.58,-142.12 106.58,-142.12 88.71,-141.13 88.71,-139.91 88.71,-139.91 88.71,-119.94 88.71,-119.94 88.71,-118.71 106.58,-117.72 128.58,-117.72 150.59,-117.72 168.46,-118.71 168.46,-119.94 168.46,-119.94 168.46,-139.91 168.46,-139.91"/>
<path fill="none" stroke="black" stroke-width="0.5" d="M168.46,-139.91C168.46,-138.68 150.59,-137.69 128.58,-137.69 106.58,-137.69 88.71,-138.68 88.71,-139.91"/>
<text text-anchor="middle" x="128.58" y="-126.25" font-family="Helvetica,sans-Serif" font-size="9.00">Common Crawl</text>
</g>
<!-- CommonCrawl&#45;&gt;laion&#45;400m -->
<g id="edge7" class="edge">
<title>CommonCrawl&#45;&gt;laion&#45;400m</title>
<path fill="none" stroke="#545454" stroke-width="0.75" d="M124.58,-117.94C124.58,-117.94 124.58,-86.77 124.58,-86.77"/>
<polygon fill="#545454" stroke="#545454" stroke-width="0.75" points="127.21,-86.77 124.58,-79.27 121.96,-86.77 127.21,-86.77"/>
</g>
<!-- WebImageText -->
<g id="node8" class="node">
<title>WebImageText</title>
<path fill="#e0b7f3" stroke="black" stroke-width="0.5" d="M264.21,-139.91C264.21,-141.13 246,-142.12 223.58,-142.12 201.17,-142.12 182.96,-141.13 182.96,-139.91 182.96,-139.91 182.96,-119.94 182.96,-119.94 182.96,-118.71 201.17,-117.72 223.58,-117.72 246,-117.72 264.21,-118.71 264.21,-119.94 264.21,-119.94 264.21,-139.91 264.21,-139.91"/>
<path fill="none" stroke="black" stroke-width="0.5" d="M264.21,-139.91C264.21,-138.68 246,-137.69 223.58,-137.69 201.17,-137.69 182.96,-138.68 182.96,-139.91"/>
<text text-anchor="middle" x="223.58" y="-126.25" font-family="Helvetica,sans-Serif" font-size="9.00">Web Image Text</text>
</g>
<!-- WebImageText&#45;&gt;clip -->
<g id="edge8" class="edge">
<title>WebImageText&#45;&gt;clip</title>
<path fill="none" stroke="#545454" stroke-width="0.75" d="M204.77,-117.94C204.77,-117.94 204.77,-83.5 204.77,-83.5"/>
<polygon fill="#545454" stroke="#545454" stroke-width="0.75" points="207.4,-83.5 204.77,-76 202.15,-83.5 207.4,-83.5"/>
</g>
</g>
</svg>
