<?xml version="1.0" encoding="UTF-8" standalone="no"?>
<!DOCTYPE svg PUBLIC "-//W3C//DTD SVG 1.1//EN"
 "http://www.w3.org/Graphics/SVG/1.1/DTD/svg11.dtd">
<!-- Generated by graphviz version 11.0.0 (20240428.1522)
 -->
<!-- Pages: 1 -->
<svg width="332pt" height="153pt"
 viewBox="0.00 0.00 331.50 153.43" xmlns="http://www.w3.org/2000/svg" xmlns:xlink="http://www.w3.org/1999/xlink">
<g id="graph0" class="graph" transform="scale(1 1) rotate(0) translate(4 149.43)">
<polygon fill="white" stroke="none" points="-4,4 -4,-149.43 327.5,-149.43 327.5,4 -4,4"/>
<!-- clip -->
<g id="node1" class="node">
<title>clip</title>
<path fill="red" stroke="black" stroke-width="0.5" d="M303.88,-75.2C303.88,-75.2 261.88,-75.2 261.88,-75.2 258.88,-75.2 255.88,-72.2 255.88,-69.2 255.88,-69.2 255.88,-63.2 255.88,-63.2 255.88,-60.2 258.88,-57.2 261.88,-57.2 261.88,-57.2 303.88,-57.2 303.88,-57.2 306.88,-57.2 309.88,-60.2 309.88,-63.2 309.88,-63.2 309.88,-69.2 309.88,-69.2 309.88,-72.2 306.88,-75.2 303.88,-75.2"/>
<text text-anchor="middle" x="282.88" y="-62.53" font-family="Helvetica,sans-Serif" font-size="9.00" fill="#ffffff">CLIP</text>
</g>
<!-- eva&#45;g -->
<g id="node2" class="node">
<title>eva&#45;g</title>
<path fill="red" stroke="black" stroke-width="0.5" d="M189.88,-18C189.88,-18 147.88,-18 147.88,-18 144.88,-18 141.88,-15 141.88,-12 141.88,-12 141.88,-6 141.88,-6 141.88,-3 144.88,0 147.88,0 147.88,0 189.88,0 189.88,0 192.88,0 195.88,-3 195.88,-6 195.88,-6 195.88,-12 195.88,-12 195.88,-15 192.88,-18 189.88,-18"/>
<text text-anchor="middle" x="168.88" y="-5.33" font-family="Helvetica,sans-Serif" font-size="9.00" fill="#ffffff">EVA&#45;G</text>
</g>
<!-- clip&#45;&gt;eva&#45;g -->
<g id="edge1" class="edge">
<title>clip&#45;&gt;eva&#45;g</title>
<path fill="none" stroke="#545454" stroke-width="0.75" d="M282.88,-57.27C282.88,-41.18 282.88,-9 282.88,-9 282.88,-9 204.24,-9 204.24,-9"/>
<polygon fill="#545454" stroke="#545454" stroke-width="0.75" points="204.24,-6.38 196.74,-9 204.24,-11.63 204.24,-6.38"/>
</g>
<!-- laion -->
<g id="node3" class="node">
<title>laion</title>
<path fill="#cbc3e3" stroke="black" stroke-width="0.5" d="M162.9,-136.3C162.9,-136.3 136.44,-143.85 136.44,-143.85 133.66,-144.64 128.09,-144.64 125.31,-143.85 125.31,-143.85 98.85,-136.3 98.85,-136.3 96.07,-135.51 93.3,-131.82 93.3,-128.93 93.3,-128.93 93.31,-123.15 93.31,-123.15 93.32,-120.26 96.22,-117.37 99.11,-117.37 99.11,-117.37 162.64,-117.37 162.64,-117.37 165.53,-117.37 168.43,-120.26 168.44,-123.15 168.44,-123.15 168.45,-128.93 168.45,-128.93 168.45,-131.82 165.68,-135.51 162.9,-136.3"/>
<text text-anchor="middle" x="130.88" y="-126.25" font-family="Helvetica,sans-Serif" font-size="9.00">LAION</text>
</g>
<!-- laion&#45;400m -->
<g id="node4" class="node">
<title>laion&#45;400m</title>
<path fill="red" stroke="black" stroke-width="0.5" d="M88.13,-76.19C88.13,-77.41 72.77,-78.41 53.88,-78.41 34.98,-78.41 19.62,-77.41 19.62,-76.19 19.62,-76.19 19.62,-56.22 19.62,-56.22 19.62,-54.99 34.98,-54 53.88,-54 72.77,-54 88.13,-54.99 88.13,-56.22 88.13,-56.22 88.13,-76.19 88.13,-76.19"/>
<path fill="none" stroke="black" stroke-width="0.5" d="M88.13,-76.19C88.13,-74.96 72.77,-73.97 53.88,-73.97 34.98,-73.97 19.62,-74.96 19.62,-76.19"/>
<text text-anchor="middle" x="53.88" y="-62.53" font-family="Helvetica,sans-Serif" font-size="9.00">LAION 400m</text>
</g>
<!-- laion&#45;&gt;laion&#45;400m -->
<g id="edge2" class="edge">
<title>laion&#45;&gt;laion&#45;400m</title>
<path fill="none" stroke="#545454" stroke-width="0.75" d="M97.96,-117.6C97.96,-99.02 97.96,-66 97.96,-66 97.96,-66 96.37,-66 96.37,-66"/>
<polygon fill="#545454" stroke="#545454" stroke-width="0.75" points="96.37,-63.38 88.87,-66 96.37,-68.63 96.37,-63.38"/>
</g>
<!-- laion&#45;2b -->
<g id="node5" class="node">
<title>laion&#45;2b</title>
<path fill="red" stroke="black" stroke-width="0.5" d="M159.12,-76.19C159.12,-77.41 146.46,-78.41 130.88,-78.41 115.29,-78.41 102.62,-77.41 102.62,-76.19 102.62,-76.19 102.62,-56.22 102.62,-56.22 102.62,-54.99 115.29,-54 130.88,-54 146.46,-54 159.12,-54.99 159.12,-56.22 159.12,-56.22 159.12,-76.19 159.12,-76.19"/>
<path fill="none" stroke="black" stroke-width="0.5" d="M159.12,-76.19C159.12,-74.96 146.46,-73.97 130.88,-73.97 115.29,-73.97 102.62,-74.96 102.62,-76.19"/>
<text text-anchor="middle" x="130.88" y="-62.53" font-family="Helvetica,sans-Serif" font-size="9.00">LAION 2B</text>
</g>
<!-- laion&#45;&gt;laion&#45;2b -->
<g id="edge3" class="edge">
<title>laion&#45;&gt;laion&#45;2b</title>
<path fill="none" stroke="#545454" stroke-width="0.75" d="M130.88,-117.64C130.88,-117.64 130.88,-86.66 130.88,-86.66"/>
<polygon fill="#545454" stroke="#545454" stroke-width="0.75" points="133.5,-86.66 130.88,-79.16 128.25,-86.66 133.5,-86.66"/>
</g>
<!-- laion&#45;400m&#45;&gt;eva&#45;g -->
<g id="edge4" class="edge">
<title>laion&#45;400m&#45;&gt;eva&#45;g</title>
<path fill="none" stroke="#545454" stroke-width="0.75" d="M53.88,-54.07C53.88,-37.28 53.88,-9 53.88,-9 53.88,-9 133.28,-9 133.28,-9"/>
<polygon fill="#545454" stroke="#545454" stroke-width="0.75" points="133.28,-11.63 140.78,-9 133.28,-6.38 133.28,-11.63"/>
</g>
<!-- laion&#45;2b&#45;&gt;eva&#45;g -->
<g id="edge5" class="edge">
<title>laion&#45;2b&#45;&gt;eva&#45;g</title>
<path fill="none" stroke="#545454" stroke-width="0.75" d="M150.5,-54.35C150.5,-54.35 150.5,-26.48 150.5,-26.48"/>
<polygon fill="#545454" stroke="#545454" stroke-width="0.75" points="153.13,-26.48 150.5,-18.98 147.88,-26.48 153.13,-26.48"/>
</g>
<!-- WebImageText -->
<g id="node6" class="node">
<title>WebImageText</title>
<path fill="red" stroke="black" stroke-width="0.5" d="M323.5,-139.91C323.5,-141.13 305.29,-142.12 282.88,-142.12 260.46,-142.12 242.25,-141.13 242.25,-139.91 242.25,-139.91 242.25,-119.94 242.25,-119.94 242.25,-118.71 260.46,-117.72 282.88,-117.72 305.29,-117.72 323.5,-118.71 323.5,-119.94 323.5,-119.94 323.5,-139.91 323.5,-139.91"/>
<path fill="none" stroke="black" stroke-width="0.5" d="M323.5,-139.91C323.5,-138.68 305.29,-137.69 282.88,-137.69 260.46,-137.69 242.25,-138.68 242.25,-139.91"/>
<text text-anchor="middle" x="282.88" y="-126.25" font-family="Helvetica,sans-Serif" font-size="9.00">Web Image Text</text>
</g>
<!-- WebImageText&#45;&gt;clip -->
<g id="edge6" class="edge">
<title>WebImageText&#45;&gt;clip</title>
<path fill="none" stroke="#545454" stroke-width="0.75" d="M282.88,-117.94C282.88,-117.94 282.88,-83.5 282.88,-83.5"/>
<polygon fill="#545454" stroke="#545454" stroke-width="0.75" points="285.5,-83.5 282.88,-76 280.25,-83.5 285.5,-83.5"/>
</g>
<!-- coyo&#45;700m -->
<g id="node7" class="node">
<title>coyo&#45;700m</title>
<path fill="red" stroke="black" stroke-width="0.5" d="M242.13,-76.19C242.13,-77.41 226.77,-78.41 207.88,-78.41 188.98,-78.41 173.62,-77.41 173.62,-76.19 173.62,-76.19 173.62,-56.22 173.62,-56.22 173.62,-54.99 188.98,-54 207.88,-54 226.77,-54 242.13,-54.99 242.13,-56.22 242.13,-56.22 242.13,-76.19 242.13,-76.19"/>
<path fill="none" stroke="black" stroke-width="0.5" d="M242.13,-76.19C242.13,-74.96 226.77,-73.97 207.88,-73.97 188.98,-73.97 173.62,-74.96 173.62,-76.19"/>
<text text-anchor="middle" x="207.88" y="-62.53" font-family="Helvetica,sans-Serif" font-size="9.00">COYO&#45;700M</text>
</g>
<!-- coyo&#45;700m&#45;&gt;eva&#45;g -->
<g id="edge7" class="edge">
<title>coyo&#45;700m&#45;&gt;eva&#45;g</title>
<path fill="none" stroke="#545454" stroke-width="0.75" d="M184.75,-54.07C184.75,-54.07 184.75,-26.39 184.75,-26.39"/>
<polygon fill="#545454" stroke="#545454" stroke-width="0.75" points="187.38,-26.39 184.75,-18.89 182.13,-26.39 187.38,-26.39"/>
</g>
<!-- CommonCrawl -->
<g id="node8" class="node">
<title>CommonCrawl</title>
<path fill="red" stroke="black" stroke-width="0.5" d="M79.75,-139.91C79.75,-141.13 61.88,-142.12 39.88,-142.12 17.87,-142.12 0,-141.13 0,-139.91 0,-139.91 0,-119.94 0,-119.94 0,-118.71 17.87,-117.72 39.88,-117.72 61.88,-117.72 79.75,-118.71 79.75,-119.94 79.75,-119.94 79.75,-139.91 79.75,-139.91"/>
<path fill="none" stroke="black" stroke-width="0.5" d="M79.75,-139.91C79.75,-138.68 61.88,-137.69 39.88,-137.69 17.87,-137.69 0,-138.68 0,-139.91"/>
<text text-anchor="middle" x="39.88" y="-126.25" font-family="Helvetica,sans-Serif" font-size="9.00">Common Crawl</text>
</g>
<!-- CommonCrawl&#45;&gt;laion&#45;400m -->
<g id="edge8" class="edge">
<title>CommonCrawl&#45;&gt;laion&#45;400m</title>
<path fill="none" stroke="#545454" stroke-width="0.75" d="M49.69,-117.94C49.69,-117.94 49.69,-86.77 49.69,-86.77"/>
<polygon fill="#545454" stroke="#545454" stroke-width="0.75" points="52.31,-86.77 49.69,-79.27 47.06,-86.77 52.31,-86.77"/>
</g>
</g>
</svg>
