<?xml version="1.0" encoding="UTF-8" standalone="no"?>
<!DOCTYPE svg PUBLIC "-//W3C//DTD SVG 1.1//EN"
 "http://www.w3.org/Graphics/SVG/1.1/DTD/svg11.dtd">
<!-- Generated by graphviz version 11.0.0 (20240428.1522)
 -->
<!-- Pages: 1 -->
<svg width="83pt" height="99pt"
 viewBox="0.00 0.00 83.17 99.43" xmlns="http://www.w3.org/2000/svg" xmlns:xlink="http://www.w3.org/1999/xlink">
<g id="graph0" class="graph" transform="scale(1 1) rotate(0) translate(4 95.43)">
<polygon fill="white" stroke="none" points="-4,4 -4,-95.43 79.17,-95.43 79.17,4 -4,4"/>
<!-- laion&#45;5b -->
<g id="node1" class="node">
<title>laion&#45;5b</title>
<path fill="#e0b7f3" stroke="black" stroke-width="0.5" d="M65.83,-22.19C65.83,-23.41 53.17,-24.41 37.58,-24.41 22,-24.41 9.33,-23.41 9.33,-22.19 9.33,-22.19 9.33,-2.22 9.33,-2.22 9.33,-0.99 22,0 37.58,0 53.17,0 65.83,-0.99 65.83,-2.22 65.83,-2.22 65.83,-22.19 65.83,-22.19"/>
<path fill="none" stroke="black" stroke-width="0.5" d="M65.83,-22.19C65.83,-20.96 53.17,-19.97 37.58,-19.97 22,-19.97 9.33,-20.96 9.33,-22.19"/>
<text text-anchor="middle" x="37.58" y="-8.53" font-family="Helvetica,sans-Serif" font-size="9.00">LAION 5B</text>
</g>
<!-- laion -->
<g id="node2" class="node">
<title>laion</title>
<path fill="#cbc3e3" stroke="black" stroke-width="0.5" d="M69.61,-82.3C69.61,-82.3 43.14,-89.85 43.14,-89.85 40.36,-90.64 34.8,-90.64 32.02,-89.85 32.02,-89.85 5.56,-82.3 5.56,-82.3 2.78,-81.51 0.01,-77.82 0.01,-74.93 0.01,-74.93 0.02,-69.15 0.02,-69.15 0.03,-66.26 2.93,-63.37 5.82,-63.37 5.82,-63.37 69.35,-63.37 69.35,-63.37 72.24,-63.37 75.14,-66.26 75.14,-69.15 75.14,-69.15 75.16,-74.93 75.16,-74.93 75.16,-77.82 72.39,-81.51 69.61,-82.3"/>
<text text-anchor="middle" x="37.58" y="-72.25" font-family="Helvetica,sans-Serif" font-size="9.00">LAION</text>
</g>
<!-- laion&#45;&gt;laion&#45;5b -->
<g id="edge1" class="edge">
<title>laion&#45;&gt;laion&#45;5b</title>
<path fill="none" stroke="#545454" stroke-width="0.75" d="M37.58,-63.64C37.58,-63.64 37.58,-32.66 37.58,-32.66"/>
<polygon fill="#545454" stroke="#545454" stroke-width="0.75" points="40.21,-32.66 37.58,-25.16 34.96,-32.66 40.21,-32.66"/>
</g>
</g>
</svg>
