<?xml version="1.0" encoding="UTF-8" standalone="no"?>
<!DOCTYPE svg PUBLIC "-//W3C//DTD SVG 1.1//EN"
 "http://www.w3.org/Graphics/SVG/1.1/DTD/svg11.dtd">
<!-- Generated by graphviz version 11.0.0 (20240428.1522)
 -->
<!-- Pages: 1 -->
<svg width="83pt" height="39pt"
 viewBox="0.00 0.00 83.17 39.03" xmlns="http://www.w3.org/2000/svg" xmlns:xlink="http://www.w3.org/1999/xlink">
<g id="graph0" class="graph" transform="scale(1 1) rotate(0) translate(4 35.03)">
<polygon fill="white" stroke="none" points="-4,4 -4,-35.03 79.17,-35.03 79.17,4 -4,4"/>
<!-- laion -->
<g id="node1" class="node">
<title>laion</title>
<path fill="#cbc3e3" stroke="black" stroke-width="0.5" d="M69.61,-21.89C69.61,-21.89 43.14,-29.44 43.14,-29.44 40.36,-30.24 34.8,-30.24 32.02,-29.44 32.02,-29.44 5.56,-21.89 5.56,-21.89 2.78,-21.1 0.01,-17.42 0.01,-14.53 0.01,-14.53 0.02,-8.74 0.02,-8.74 0.03,-5.85 2.93,-2.96 5.82,-2.96 5.82,-2.96 69.35,-2.96 69.35,-2.96 72.24,-2.96 75.14,-5.85 75.14,-8.74 75.14,-8.74 75.16,-14.53 75.16,-14.53 75.16,-17.42 72.39,-21.1 69.61,-21.89"/>
<text text-anchor="middle" x="37.58" y="-11.84" font-family="Helvetica,sans-Serif" font-size="9.00">LAION</text>
</g>
</g>
</svg>
