<?xml version="1.0" encoding="UTF-8" standalone="no"?>
<!DOCTYPE svg PUBLIC "-//W3C//DTD SVG 1.1//EN"
 "http://www.w3.org/Graphics/SVG/1.1/DTD/svg11.dtd">
<!-- Generated by graphviz version 11.0.0 (20240428.1522)
 -->
<!-- Pages: 1 -->
<svg width="176pt" height="99pt"
 viewBox="0.00 0.00 176.46 99.43" xmlns="http://www.w3.org/2000/svg" xmlns:xlink="http://www.w3.org/1999/xlink">
<g id="graph0" class="graph" transform="scale(1 1) rotate(0) translate(4 95.43)">
<polygon fill="white" stroke="none" points="-4,4 -4,-95.43 172.46,-95.43 172.46,4 -4,4"/>
<!-- laion -->
<g id="node1" class="node">
<title>laion</title>
<path fill="#cbc3e3" stroke="black" stroke-width="0.5" d="M69.61,-82.3C69.61,-82.3 43.14,-89.85 43.14,-89.85 40.36,-90.64 34.8,-90.64 32.02,-89.85 32.02,-89.85 5.56,-82.3 5.56,-82.3 2.78,-81.51 0.01,-77.82 0.01,-74.93 0.01,-74.93 0.02,-69.15 0.02,-69.15 0.03,-66.26 2.93,-63.37 5.82,-63.37 5.82,-63.37 69.35,-63.37 69.35,-63.37 72.24,-63.37 75.14,-66.26 75.14,-69.15 75.14,-69.15 75.16,-74.93 75.16,-74.93 75.16,-77.82 72.39,-81.51 69.61,-82.3"/>
<text text-anchor="middle" x="37.58" y="-72.25" font-family="Helvetica,sans-Serif" font-size="9.00">LAION</text>
</g>
<!-- laion&#45;400m -->
<g id="node2" class="node">
<title>laion&#45;400m</title>
<path fill="#e0b7f3" stroke="black" stroke-width="0.5" d="M116.83,-22.19C116.83,-23.41 101.48,-24.41 82.58,-24.41 63.69,-24.41 48.33,-23.41 48.33,-22.19 48.33,-22.19 48.33,-2.22 48.33,-2.22 48.33,-0.99 63.69,0 82.58,0 101.48,0 116.83,-0.99 116.83,-2.22 116.83,-2.22 116.83,-22.19 116.83,-22.19"/>
<path fill="none" stroke="black" stroke-width="0.5" d="M116.83,-22.19C116.83,-20.96 101.48,-19.97 82.58,-19.97 63.69,-19.97 48.33,-20.96 48.33,-22.19"/>
<text text-anchor="middle" x="82.58" y="-8.53" font-family="Helvetica,sans-Serif" font-size="9.00">LAION 400m</text>
</g>
<!-- laion&#45;&gt;laion&#45;400m -->
<g id="edge1" class="edge">
<title>laion&#45;&gt;laion&#45;400m</title>
<path fill="none" stroke="#545454" stroke-width="0.75" d="M61.75,-63.64C61.75,-63.64 61.75,-32.66 61.75,-32.66"/>
<polygon fill="#545454" stroke="#545454" stroke-width="0.75" points="64.38,-32.66 61.75,-25.16 59.13,-32.66 64.38,-32.66"/>
</g>
<!-- CommonCrawl -->
<g id="node3" class="node">
<title>CommonCrawl</title>
<path fill="#e0b7f3" stroke="black" stroke-width="0.5" d="M168.46,-85.91C168.46,-87.13 150.59,-88.12 128.58,-88.12 106.58,-88.12 88.71,-87.13 88.71,-85.91 88.71,-85.91 88.71,-65.94 88.71,-65.94 88.71,-64.71 106.58,-63.72 128.58,-63.72 150.59,-63.72 168.46,-64.71 168.46,-65.94 168.46,-65.94 168.46,-85.91 168.46,-85.91"/>
<path fill="none" stroke="black" stroke-width="0.5" d="M168.46,-85.91C168.46,-84.68 150.59,-83.69 128.58,-83.69 106.58,-83.69 88.71,-84.68 88.71,-85.91"/>
<text text-anchor="middle" x="128.58" y="-72.25" font-family="Helvetica,sans-Serif" font-size="9.00">Common Crawl</text>
</g>
<!-- CommonCrawl&#45;&gt;laion&#45;400m -->
<g id="edge2" class="edge">
<title>CommonCrawl&#45;&gt;laion&#45;400m</title>
<path fill="none" stroke="#545454" stroke-width="0.75" d="M102.77,-63.94C102.77,-63.94 102.77,-32.77 102.77,-32.77"/>
<polygon fill="#545454" stroke="#545454" stroke-width="0.75" points="105.4,-32.77 102.77,-25.27 100.15,-32.77 105.4,-32.77"/>
</g>
</g>
</svg>
