<?xml version="1.0" encoding="UTF-8" standalone="no"?>
<!DOCTYPE svg PUBLIC "-//W3C//DTD SVG 1.1//EN"
 "http://www.w3.org/Graphics/SVG/1.1/DTD/svg11.dtd">
<!-- Generated by graphviz version 11.0.0 (20240428.1522)
 -->
<!-- Pages: 1 -->
<svg width="176pt" height="99pt"
 viewBox="0.00 0.00 176.46 99.43" xmlns="http://www.w3.org/2000/svg" xmlns:xlink="http://www.w3.org/1999/xlink">
<g id="graph0" class="graph" transform="scale(1 1) rotate(0) translate(4 95.43)">
<polygon fill="white" stroke="none" points="-4,4 -4,-95.43 172.46,-95.43 172.46,4 -4,4"/>
<!-- CommonCrawl -->
<g id="node1" class="node">
<title>CommonCrawl</title>
<path fill="#e0b7f3" stroke="black" stroke-width="0.5" d="M79.75,-85.91C79.75,-87.13 61.88,-88.12 39.88,-88.12 17.87,-88.12 0,-87.13 0,-85.91 0,-85.91 0,-65.94 0,-65.94 0,-64.71 17.87,-63.72 39.88,-63.72 61.88,-63.72 79.75,-64.71 79.75,-65.94 79.75,-65.94 79.75,-85.91 79.75,-85.91"/>
<path fill="none" stroke="black" stroke-width="0.5" d="M79.75,-85.91C79.75,-84.68 61.88,-83.69 39.88,-83.69 17.87,-83.69 0,-84.68 0,-85.91"/>
<text text-anchor="middle" x="39.88" y="-72.25" font-family="Helvetica,sans-Serif" font-size="9.00">Common Crawl</text>
</g>
<!-- laion&#45;400m -->
<g id="node2" class="node">
<title>laion&#45;400m</title>
<path fill="#e0b7f3" stroke="black" stroke-width="0.5" d="M119.13,-22.19C119.13,-23.41 103.77,-24.41 84.88,-24.41 65.98,-24.41 50.62,-23.41 50.62,-22.19 50.62,-22.19 50.62,-2.22 50.62,-2.22 50.62,-0.99 65.98,0 84.88,0 103.77,0 119.13,-0.99 119.13,-2.22 119.13,-2.22 119.13,-22.19 119.13,-22.19"/>
<path fill="none" stroke="black" stroke-width="0.5" d="M119.13,-22.19C119.13,-20.96 103.77,-19.97 84.88,-19.97 65.98,-19.97 50.62,-20.96 50.62,-22.19"/>
<text text-anchor="middle" x="84.88" y="-8.53" font-family="Helvetica,sans-Serif" font-size="9.00">LAION 400m</text>
</g>
<!-- CommonCrawl&#45;&gt;laion&#45;400m -->
<g id="edge1" class="edge">
<title>CommonCrawl&#45;&gt;laion&#45;400m</title>
<path fill="none" stroke="#545454" stroke-width="0.75" d="M65.19,-63.94C65.19,-63.94 65.19,-32.77 65.19,-32.77"/>
<polygon fill="#545454" stroke="#545454" stroke-width="0.75" points="67.81,-32.77 65.19,-25.27 62.56,-32.77 67.81,-32.77"/>
</g>
<!-- laion -->
<g id="node3" class="node">
<title>laion</title>
<path fill="#cbc3e3" stroke="black" stroke-width="0.5" d="M162.9,-82.3C162.9,-82.3 136.44,-89.85 136.44,-89.85 133.66,-90.64 128.09,-90.64 125.31,-89.85 125.31,-89.85 98.85,-82.3 98.85,-82.3 96.07,-81.51 93.3,-77.82 93.3,-74.93 93.3,-74.93 93.31,-69.15 93.31,-69.15 93.32,-66.26 96.22,-63.37 99.11,-63.37 99.11,-63.37 162.64,-63.37 162.64,-63.37 165.53,-63.37 168.43,-66.26 168.44,-69.15 168.44,-69.15 168.45,-74.93 168.45,-74.93 168.45,-77.82 165.68,-81.51 162.9,-82.3"/>
<text text-anchor="middle" x="130.88" y="-72.25" font-family="Helvetica,sans-Serif" font-size="9.00">LAION</text>
</g>
<!-- laion&#45;&gt;laion&#45;400m -->
<g id="edge2" class="edge">
<title>laion&#45;&gt;laion&#45;400m</title>
<path fill="none" stroke="#545454" stroke-width="0.75" d="M106.21,-63.64C106.21,-63.64 106.21,-32.66 106.21,-32.66"/>
<polygon fill="#545454" stroke="#545454" stroke-width="0.75" points="108.83,-32.66 106.21,-25.16 103.58,-32.66 108.83,-32.66"/>
</g>
</g>
</svg>
