<?xml version="1.0" encoding="UTF-8" standalone="no"?>
<!DOCTYPE svg PUBLIC "-//W3C//DTD SVG 1.1//EN"
 "http://www.w3.org/Graphics/SVG/1.1/DTD/svg11.dtd">
<!-- Generated by graphviz version 11.0.0 (20240428.1522)
 -->
<!-- Pages: 1 -->
<svg width="94pt" height="93pt"
 viewBox="0.00 0.00 93.66 93.03" xmlns="http://www.w3.org/2000/svg" xmlns:xlink="http://www.w3.org/1999/xlink">
<g id="graph0" class="graph" transform="scale(1 1) rotate(0) translate(4 89.03)">
<polygon fill="white" stroke="none" points="-4,4 -4,-89.03 89.66,-89.03 89.66,4 -4,4"/>
<!-- llama2 -->
<g id="node1" class="node">
<title>llama2</title>
<path fill="#cbc3e3" stroke="black" stroke-width="0.5" d="M80.05,-75.71C80.05,-75.71 48.44,-83.62 48.44,-83.62 45.63,-84.33 40.02,-84.33 37.22,-83.62 37.22,-83.62 5.61,-75.71 5.61,-75.71 2.8,-75.01 0.01,-71.42 0.01,-68.53 0.01,-68.53 0.03,-62.74 0.03,-62.74 0.03,-59.85 2.93,-56.96 5.82,-56.96 5.82,-56.96 79.84,-56.96 79.84,-56.96 82.73,-56.96 85.63,-59.85 85.63,-62.74 85.63,-62.74 85.65,-68.53 85.65,-68.53 85.65,-71.42 82.85,-75.01 80.05,-75.71"/>
<text text-anchor="middle" x="42.83" y="-65.84" font-family="Helvetica,sans-Serif" font-size="9.00">Llama 2</text>
</g>
<!-- llama2&#45;13b -->
<g id="node2" class="node">
<title>llama2&#45;13b</title>
<path fill="#800080" stroke="black" stroke-width="0.5" d="M70.7,-18C70.7,-18 14.95,-18 14.95,-18 11.95,-18 8.95,-15 8.95,-12 8.95,-12 8.95,-6 8.95,-6 8.95,-3 11.95,0 14.95,0 14.95,0 70.7,0 70.7,0 73.7,0 76.7,-3 76.7,-6 76.7,-6 76.7,-12 76.7,-12 76.7,-15 73.7,-18 70.7,-18"/>
<text text-anchor="middle" x="42.83" y="-5.33" font-family="Helvetica,sans-Serif" font-size="9.00" fill="#ffffff">Llama 2 13B</text>
</g>
<!-- llama2&#45;&gt;llama2&#45;13b -->
<g id="edge1" class="edge">
<title>llama2&#45;&gt;llama2&#45;13b</title>
<path fill="none" stroke="#545454" stroke-width="0.75" d="M42.83,-56.98C42.83,-56.98 42.83,-26.62 42.83,-26.62"/>
<polygon fill="#545454" stroke="#545454" stroke-width="0.75" points="45.45,-26.62 42.83,-19.12 40.2,-26.62 45.45,-26.62"/>
</g>
</g>
</svg>
