<?xml version="1.0" encoding="UTF-8" standalone="no"?>
<!DOCTYPE svg PUBLIC "-//W3C//DTD SVG 1.1//EN"
 "http://www.w3.org/Graphics/SVG/1.1/DTD/svg11.dtd">
<!-- Generated by graphviz version 11.0.0 (20240428.1522)
 -->
<!-- Pages: 1 -->
<svg width="94pt" height="39pt"
 viewBox="0.00 0.00 93.66 39.03" xmlns="http://www.w3.org/2000/svg" xmlns:xlink="http://www.w3.org/1999/xlink">
<g id="graph0" class="graph" transform="scale(1 1) rotate(0) translate(4 35.03)">
<polygon fill="white" stroke="none" points="-4,4 -4,-35.03 89.66,-35.03 89.66,4 -4,4"/>
<!-- llama2 -->
<g id="node1" class="node">
<title>llama2</title>
<path fill="#cbc3e3" stroke="black" stroke-width="0.5" d="M80.05,-21.71C80.05,-21.71 48.44,-29.62 48.44,-29.62 45.63,-30.33 40.02,-30.33 37.22,-29.62 37.22,-29.62 5.61,-21.71 5.61,-21.71 2.8,-21.01 0.01,-17.42 0.01,-14.53 0.01,-14.53 0.03,-8.74 0.03,-8.74 0.03,-5.85 2.93,-2.96 5.82,-2.96 5.82,-2.96 79.84,-2.96 79.84,-2.96 82.73,-2.96 85.63,-5.85 85.63,-8.74 85.63,-8.74 85.65,-14.53 85.65,-14.53 85.65,-17.42 82.85,-21.01 80.05,-21.71"/>
<text text-anchor="middle" x="42.83" y="-11.84" font-family="Helvetica,sans-Serif" font-size="9.00">Llama 2</text>
</g>
</g>
</svg>
