<?xml version="1.0" encoding="UTF-8" standalone="no"?>
<!DOCTYPE svg PUBLIC "-//W3C//DTD SVG 1.1//EN"
 "http://www.w3.org/Graphics/SVG/1.1/DTD/svg11.dtd">
<!-- Generated by graphviz version 11.0.0 (20240428.1522)
 -->
<!-- Pages: 1 -->
<svg width="84pt" height="39pt"
 viewBox="0.00 0.00 84.48 39.03" xmlns="http://www.w3.org/2000/svg" xmlns:xlink="http://www.w3.org/1999/xlink">
<g id="graph0" class="graph" transform="scale(1 1) rotate(0) translate(4 35.03)">
<polygon fill="white" stroke="none" points="-4,4 -4,-35.03 80.48,-35.03 80.48,4 -4,4"/>
<!-- LLaVA -->
<g id="node1" class="node">
<title>LLaVA</title>
<path fill="#cbc3e3" stroke="black" stroke-width="0.5" d="M70.91,-21.87C70.91,-21.87 43.81,-29.47 43.81,-29.47 41.02,-30.25 35.46,-30.25 32.67,-29.47 32.67,-29.47 5.57,-21.87 5.57,-21.87 2.78,-21.09 0.01,-17.42 0.01,-14.53 0.01,-14.53 0.02,-8.74 0.02,-8.74 0.03,-5.85 2.93,-2.96 5.82,-2.96 5.82,-2.96 70.66,-2.96 70.66,-2.96 73.55,-2.96 76.45,-5.85 76.45,-8.74 76.45,-8.74 76.47,-14.53 76.47,-14.53 76.47,-17.42 73.69,-21.09 70.91,-21.87"/>
<text text-anchor="middle" x="38.24" y="-11.84" font-family="Helvetica,sans-Serif" font-size="9.00">LLaVA</text>
</g>
</g>
</svg>
