<?xml version="1.0" encoding="UTF-8" standalone="no"?>
<!DOCTYPE svg PUBLIC "-//W3C//DTD SVG 1.1//EN"
 "http://www.w3.org/Graphics/SVG/1.1/DTD/svg11.dtd">
<!-- Generated by graphviz version 11.0.0 (20240428.1522)
 -->
<!-- Pages: 1 -->
<svg width="406pt" height="294pt"
 viewBox="0.00 0.00 406.00 294.11" xmlns="http://www.w3.org/2000/svg" xmlns:xlink="http://www.w3.org/1999/xlink">
<g id="graph0" class="graph" transform="scale(1 1) rotate(0) translate(4 290.11)">
<polygon fill="white" stroke="none" points="-4,4 -4,-290.11 402,-290.11 402,4 -4,4"/>
<!-- vicuna&#45;70k&#45;gpt4 -->
<g id="node1" class="node">
<title>vicuna&#45;70k&#45;gpt4</title>
<path fill="#e0b7f3" stroke="black" stroke-width="0.5" d="M208.75,-146.53C208.75,-147.75 186,-148.75 158,-148.75 130,-148.75 107.25,-147.75 107.25,-146.53 107.25,-146.53 107.25,-126.56 107.25,-126.56 107.25,-125.33 130,-124.34 158,-124.34 186,-124.34 208.75,-125.33 208.75,-126.56 208.75,-126.56 208.75,-146.53 208.75,-146.53"/>
<path fill="none" stroke="black" stroke-width="0.5" d="M208.75,-146.53C208.75,-145.3 186,-144.31 158,-144.31 130,-144.31 107.25,-145.3 107.25,-146.53"/>
<text text-anchor="middle" x="158" y="-132.87" font-family="Helvetica,sans-Serif" font-size="9.00">Vicuna 70k ChatGPT</text>
</g>
<!-- vicuna&#45;13b -->
<g id="node2" class="node">
<title>vicuna&#45;13b</title>
<path fill="#800080" stroke="black" stroke-width="0.5" d="M234,-78.51C234,-78.51 182,-78.51 182,-78.51 179,-78.51 176,-75.51 176,-72.51 176,-72.51 176,-66.51 176,-66.51 176,-63.51 179,-60.51 182,-60.51 182,-60.51 234,-60.51 234,-60.51 237,-60.51 240,-63.51 240,-66.51 240,-66.51 240,-72.51 240,-72.51 240,-75.51 237,-78.51 234,-78.51"/>
<text text-anchor="middle" x="208" y="-65.84" font-family="Helvetica,sans-Serif" font-size="9.00" fill="#ffffff">Vicuna&#45;13B</text>
</g>
<!-- vicuna&#45;70k&#45;gpt4&#45;&gt;vicuna&#45;13b -->
<g id="edge1" class="edge">
<title>vicuna&#45;70k&#45;gpt4&#45;&gt;vicuna&#45;13b</title>
<path fill="none" stroke="#545454" stroke-width="0.75" d="M192.37,-124.56C192.37,-124.56 192.37,-87.03 192.37,-87.03"/>
<polygon fill="#545454" stroke="#545454" stroke-width="0.75" points="195,-87.03 192.37,-79.53 189.75,-87.03 195,-87.03"/>
</g>
<!-- LLaVA&#45;1.6&#45;Vicuna&#45;13B -->
<g id="node3" class="node">
<title>LLaVA&#45;1.6&#45;Vicuna&#45;13B</title>
<path fill="#800080" stroke="black" stroke-width="0.5" d="M229.5,-18C229.5,-18 132.5,-18 132.5,-18 129.5,-18 126.5,-15 126.5,-12 126.5,-12 126.5,-6 126.5,-6 126.5,-3 129.5,0 132.5,0 132.5,0 229.5,0 229.5,0 232.5,0 235.5,-3 235.5,-6 235.5,-6 235.5,-12 235.5,-12 235.5,-15 232.5,-18 229.5,-18"/>
<text text-anchor="middle" x="181" y="-5.33" font-family="Helvetica,sans-Serif" font-size="9.00" fill="#ffffff">LLaVA&#45;1.6 Vicuna 13B</text>
</g>
<!-- vicuna&#45;13b&#45;&gt;LLaVA&#45;1.6&#45;Vicuna&#45;13B -->
<g id="edge2" class="edge">
<title>vicuna&#45;13b&#45;&gt;LLaVA&#45;1.6&#45;Vicuna&#45;13B</title>
<path fill="none" stroke="#545454" stroke-width="0.75" d="M205.75,-60.59C205.75,-60.59 205.75,-26.6 205.75,-26.6"/>
<polygon fill="#545454" stroke="#545454" stroke-width="0.75" points="208.38,-26.6 205.75,-19.1 203.13,-26.6 208.38,-26.6"/>
</g>
<!-- CC3M -->
<g id="node4" class="node">
<title>CC3M</title>
<path fill="#e0b7f3" stroke="black" stroke-width="0.5" d="M54,-79.5C54,-80.72 41.9,-81.72 27,-81.72 12.1,-81.72 0,-80.72 0,-79.5 0,-79.5 0,-59.53 0,-59.53 0,-58.31 12.1,-57.31 27,-57.31 41.9,-57.31 54,-58.31 54,-59.53 54,-59.53 54,-79.5 54,-79.5"/>
<path fill="none" stroke="black" stroke-width="0.5" d="M54,-79.5C54,-78.27 41.9,-77.28 27,-77.28 12.1,-77.28 0,-78.27 0,-79.5"/>
<text text-anchor="middle" x="27" y="-65.84" font-family="Helvetica,sans-Serif" font-size="9.00">CC3M</text>
</g>
<!-- CC3M&#45;&gt;LLaVA&#45;1.6&#45;Vicuna&#45;13B -->
<g id="edge3" class="edge">
<title>CC3M&#45;&gt;LLaVA&#45;1.6&#45;Vicuna&#45;13B</title>
<path fill="none" stroke="#545454" stroke-width="0.75" d="M27,-57.57C27,-39.17 27,-6 27,-6 27,-6 118.07,-6 118.07,-6"/>
<polygon fill="#545454" stroke="#545454" stroke-width="0.75" points="118.07,-8.63 125.57,-6 118.07,-3.38 118.07,-8.63"/>
</g>
<!-- science&#45;qa -->
<g id="node5" class="node">
<title>science&#45;qa</title>
<path fill="#e0b7f3" stroke="black" stroke-width="0.5" d="M132,-79.5C132,-80.72 117.66,-81.72 100,-81.72 82.34,-81.72 68,-80.72 68,-79.5 68,-79.5 68,-59.53 68,-59.53 68,-58.31 82.34,-57.31 100,-57.31 117.66,-57.31 132,-58.31 132,-59.53 132,-59.53 132,-79.5 132,-79.5"/>
<path fill="none" stroke="black" stroke-width="0.5" d="M132,-79.5C132,-78.27 117.66,-77.28 100,-77.28 82.34,-77.28 68,-78.27 68,-79.5"/>
<text text-anchor="middle" x="100" y="-65.84" font-family="Helvetica,sans-Serif" font-size="9.00">Science QA</text>
</g>
<!-- science&#45;qa&#45;&gt;LLaVA&#45;1.6&#45;Vicuna&#45;13B -->
<g id="edge4" class="edge">
<title>science&#45;qa&#45;&gt;LLaVA&#45;1.6&#45;Vicuna&#45;13B</title>
<path fill="none" stroke="#545454" stroke-width="0.75" d="M131.72,-69C143.48,-69 154,-69 154,-69 154,-69 154,-26.49 154,-26.49"/>
<polygon fill="#545454" stroke="#545454" stroke-width="0.75" points="156.63,-26.49 154,-18.99 151.38,-26.49 156.63,-26.49"/>
</g>
<!-- llama2 -->
<g id="node6" class="node">
<title>llama2</title>
<path fill="#cbc3e3" stroke="black" stroke-width="0.5" d="M294.22,-209.77C294.22,-209.77 262.61,-217.68 262.61,-217.68 259.8,-218.38 254.2,-218.38 251.39,-217.68 251.39,-217.68 219.78,-209.77 219.78,-209.77 216.98,-209.07 214.18,-205.47 214.18,-202.58 214.18,-202.58 214.2,-196.8 214.2,-196.8 214.2,-193.91 217.1,-191.02 219.99,-191.02 219.99,-191.02 294.01,-191.02 294.01,-191.02 296.9,-191.02 299.8,-193.91 299.8,-196.8 299.8,-196.8 299.82,-202.58 299.82,-202.58 299.82,-205.47 297.02,-209.07 294.22,-209.77"/>
<text text-anchor="middle" x="257" y="-199.9" font-family="Helvetica,sans-Serif" font-size="9.00">Llama 2</text>
</g>
<!-- llama2&#45;13b -->
<g id="node7" class="node">
<title>llama2&#45;13b</title>
<path fill="#800080" stroke="black" stroke-width="0.5" d="M284.88,-145.54C284.88,-145.54 229.12,-145.54 229.12,-145.54 226.12,-145.54 223.12,-142.54 223.12,-139.54 223.12,-139.54 223.12,-133.54 223.12,-133.54 223.12,-130.54 226.12,-127.54 229.12,-127.54 229.12,-127.54 284.88,-127.54 284.88,-127.54 287.88,-127.54 290.88,-130.54 290.88,-133.54 290.88,-133.54 290.88,-139.54 290.88,-139.54 290.88,-142.54 287.88,-145.54 284.88,-145.54"/>
<text text-anchor="middle" x="257" y="-132.87" font-family="Helvetica,sans-Serif" font-size="9.00" fill="#ffffff">Llama 2 13B</text>
</g>
<!-- llama2&#45;&gt;llama2&#45;13b -->
<g id="edge5" class="edge">
<title>llama2&#45;&gt;llama2&#45;13b</title>
<path fill="none" stroke="#545454" stroke-width="0.75" d="M257,-191.28C257,-191.28 257,-153.97 257,-153.97"/>
<polygon fill="#545454" stroke="#545454" stroke-width="0.75" points="259.63,-153.97 257,-146.47 254.38,-153.98 259.63,-153.97"/>
</g>
<!-- llama2&#45;13b&#45;&gt;vicuna&#45;13b -->
<g id="edge6" class="edge">
<title>llama2&#45;13b&#45;&gt;vicuna&#45;13b</title>
<path fill="none" stroke="#545454" stroke-width="0.75" d="M228.75,-127.78C228.75,-127.78 228.75,-87.13 228.75,-87.13"/>
<polygon fill="#545454" stroke="#545454" stroke-width="0.75" points="231.38,-87.13 228.75,-79.63 226.13,-87.13 231.38,-87.13"/>
</g>
<!-- gpt4 -->
<g id="node8" class="node">
<title>gpt4</title>
<path fill="#800080" stroke="black" stroke-width="0.5" d="M124,-212.57C124,-212.57 82,-212.57 82,-212.57 79,-212.57 76,-209.57 76,-206.57 76,-206.57 76,-200.57 76,-200.57 76,-197.57 79,-194.57 82,-194.57 82,-194.57 124,-194.57 124,-194.57 127,-194.57 130,-197.57 130,-200.57 130,-200.57 130,-206.57 130,-206.57 130,-209.57 127,-212.57 124,-212.57"/>
<text text-anchor="middle" x="103" y="-199.9" font-family="Helvetica,sans-Serif" font-size="9.00" fill="#ffffff">GPT 4</text>
</g>
<!-- gpt4&#45;&gt;vicuna&#45;70k&#45;gpt4 -->
<g id="edge7" class="edge">
<title>gpt4&#45;&gt;vicuna&#45;70k&#45;gpt4</title>
<path fill="none" stroke="#545454" stroke-width="0.75" d="M118.62,-194.81C118.62,-194.81 118.62,-156.87 118.62,-156.87"/>
<polygon fill="#545454" stroke="#545454" stroke-width="0.75" points="121.25,-156.87 118.63,-149.37 116,-156.87 121.25,-156.87"/>
</g>
<!-- mm&#45;instruct&#45;data -->
<g id="node9" class="node">
<title>mm&#45;instruct&#45;data</title>
<path fill="#e0b7f3" stroke="black" stroke-width="0.5" d="M92.88,-146.53C92.88,-147.75 72.31,-148.75 47,-148.75 21.69,-148.75 1.12,-147.75 1.12,-146.53 1.12,-146.53 1.12,-126.56 1.12,-126.56 1.12,-125.33 21.69,-124.34 47,-124.34 72.31,-124.34 92.88,-125.33 92.88,-126.56 92.88,-126.56 92.88,-146.53 92.88,-146.53"/>
<path fill="none" stroke="black" stroke-width="0.5" d="M92.88,-146.53C92.88,-145.3 72.31,-144.31 47,-144.31 21.69,-144.31 1.12,-145.3 1.12,-146.53"/>
<text text-anchor="middle" x="47" y="-132.87" font-family="Helvetica,sans-Serif" font-size="9.00">LLaVa MM&#45;Instruct</text>
</g>
<!-- gpt4&#45;&gt;mm&#45;instruct&#45;data -->
<g id="edge8" class="edge">
<title>gpt4&#45;&gt;mm&#45;instruct&#45;data</title>
<path fill="none" stroke="#545454" stroke-width="0.75" d="M84.44,-194.81C84.44,-194.81 84.44,-156.4 84.44,-156.4"/>
<polygon fill="#545454" stroke="#545454" stroke-width="0.75" points="87.06,-156.4 84.44,-148.9 81.81,-156.4 87.06,-156.4"/>
</g>
<!-- mm&#45;instruct&#45;data&#45;&gt;LLaVA&#45;1.6&#45;Vicuna&#45;13B -->
<g id="edge9" class="edge">
<title>mm&#45;instruct&#45;data&#45;&gt;LLaVA&#45;1.6&#45;Vicuna&#45;13B</title>
<path fill="none" stroke="#545454" stroke-width="0.75" d="M61,-124.6C61,-93.43 61,-12 61,-12 61,-12 117.98,-12 117.98,-12"/>
<polygon fill="#545454" stroke="#545454" stroke-width="0.75" points="117.98,-14.63 125.48,-12 117.98,-9.38 117.98,-14.63"/>
</g>
<!-- LLaVA -->
<g id="node10" class="node">
<title>LLaVA</title>
<path fill="#cbc3e3" stroke="black" stroke-width="0.5" d="M324.67,-75.87C324.67,-75.87 297.57,-83.47 297.57,-83.47 294.78,-84.25 289.22,-84.25 286.43,-83.47 286.43,-83.47 259.33,-75.87 259.33,-75.87 256.54,-75.09 253.77,-71.42 253.77,-68.53 253.77,-68.53 253.78,-62.74 253.78,-62.74 253.79,-59.85 256.69,-56.96 259.58,-56.96 259.58,-56.96 324.42,-56.96 324.42,-56.96 327.31,-56.96 330.21,-59.85 330.22,-62.74 330.22,-62.74 330.23,-68.53 330.23,-68.53 330.23,-71.42 327.46,-75.09 324.67,-75.87"/>
<text text-anchor="middle" x="292" y="-65.84" font-family="Helvetica,sans-Serif" font-size="9.00">LLaVA</text>
</g>
<!-- LLaVA&#45;&gt;LLaVA&#45;1.6&#45;Vicuna&#45;13B -->
<g id="edge10" class="edge">
<title>LLaVA&#45;&gt;LLaVA&#45;1.6&#45;Vicuna&#45;13B</title>
<path fill="none" stroke="#545454" stroke-width="0.75" d="M292,-57.03C292,-40.12 292,-12 292,-12 292,-12 243.83,-12 243.83,-12"/>
<polygon fill="#545454" stroke="#545454" stroke-width="0.75" points="243.83,-9.38 236.33,-12 243.83,-14.63 243.83,-9.38"/>
</g>
<!-- openai&#45;gpt -->
<g id="node11" class="node">
<title>openai&#45;gpt</title>
<path fill="#cbc3e3" stroke="black" stroke-width="0.5" d="M155.87,-276.43C155.87,-276.43 108.69,-285.07 108.69,-285.07 105.84,-285.59 100.16,-285.59 97.31,-285.07 97.31,-285.07 50.13,-276.43 50.13,-276.43 47.28,-275.91 44.45,-272.5 44.46,-269.61 44.46,-269.61 44.48,-263.83 44.48,-263.83 44.48,-260.94 47.38,-258.05 50.28,-258.05 50.28,-258.05 155.72,-258.05 155.72,-258.05 158.62,-258.05 161.52,-260.94 161.52,-263.83 161.52,-263.83 161.54,-269.61 161.54,-269.61 161.55,-272.5 158.72,-275.91 155.87,-276.43"/>
<text text-anchor="middle" x="103" y="-266.92" font-family="Helvetica,sans-Serif" font-size="9.00">OpenAI GPT</text>
</g>
<!-- openai&#45;gpt&#45;&gt;gpt4 -->
<g id="edge11" class="edge">
<title>openai&#45;gpt&#45;&gt;gpt4</title>
<path fill="none" stroke="#545454" stroke-width="0.75" d="M112,-258.31C112,-258.31 112,-221 112,-221"/>
<polygon fill="#545454" stroke="#545454" stroke-width="0.75" points="114.63,-221 112,-213.5 109.38,-221 114.63,-221"/>
</g>
<!-- openai&#45;gpt&#45;&gt;gpt4 -->
<g id="edge12" class="edge">
<title>openai&#45;gpt&#45;&gt;gpt4</title>
<path fill="none" stroke="#545454" stroke-width="0.75" d="M94,-258.31C94,-258.31 94,-221 94,-221"/>
<polygon fill="#545454" stroke="#545454" stroke-width="0.75" points="96.63,-221 94,-213.5 91.38,-221 96.63,-221"/>
</g>
<!-- vicuna -->
<g id="node12" class="node">
<title>vicuna</title>
<path fill="#cbc3e3" stroke="black" stroke-width="0.5" d="M377.32,-142.87C377.32,-142.87 349.57,-150.52 349.57,-150.52 346.79,-151.29 341.21,-151.29 338.43,-150.52 338.43,-150.52 310.68,-142.87 310.68,-142.87 307.89,-142.1 305.11,-138.45 305.12,-135.55 305.12,-135.55 305.13,-129.77 305.13,-129.77 305.14,-126.88 308.03,-123.99 310.92,-123.99 310.92,-123.99 377.08,-123.99 377.08,-123.99 379.97,-123.99 382.86,-126.88 382.87,-129.77 382.87,-129.77 382.88,-135.55 382.88,-135.55 382.89,-138.45 380.11,-142.1 377.32,-142.87"/>
<text text-anchor="middle" x="344" y="-132.87" font-family="Helvetica,sans-Serif" font-size="9.00">Vicuna</text>
</g>
<!-- vicuna&#45;&gt;vicuna&#45;13b -->
<g id="edge13" class="edge">
<title>vicuna&#45;&gt;vicuna&#45;13b</title>
<path fill="none" stroke="#545454" stroke-width="0.75" d="M317.67,-124.05C317.67,-114.52 317.67,-103 317.67,-103 317.67,-103 234.38,-103 234.38,-103 234.38,-103 234.38,-86.95 234.38,-86.95"/>
<polygon fill="#545454" stroke="#545454" stroke-width="0.75" points="237,-86.95 234.38,-79.45 231.75,-86.95 237,-86.95"/>
</g>
<!-- coco -->
<g id="node13" class="node">
<title>coco</title>
<path fill="#e0b7f3" stroke="black" stroke-width="0.5" d="M398,-79.5C398,-80.72 385.9,-81.72 371,-81.72 356.1,-81.72 344,-80.72 344,-79.5 344,-79.5 344,-59.53 344,-59.53 344,-58.31 356.1,-57.31 371,-57.31 385.9,-57.31 398,-58.31 398,-59.53 398,-59.53 398,-79.5 398,-79.5"/>
<path fill="none" stroke="black" stroke-width="0.5" d="M398,-79.5C398,-78.27 385.9,-77.28 371,-77.28 356.1,-77.28 344,-78.27 344,-79.5"/>
<text text-anchor="middle" x="371" y="-65.84" font-family="Helvetica,sans-Serif" font-size="9.00">COCO</text>
</g>
<!-- coco&#45;&gt;LLaVA&#45;1.6&#45;Vicuna&#45;13B -->
<g id="edge14" class="edge">
<title>coco&#45;&gt;LLaVA&#45;1.6&#45;Vicuna&#45;13B</title>
<path fill="none" stroke="#545454" stroke-width="0.75" d="M371,-57.57C371,-39.17 371,-6 371,-6 371,-6 244.08,-6 244.08,-6"/>
<polygon fill="#545454" stroke="#545454" stroke-width="0.75" points="244.08,-3.38 236.58,-6 244.08,-8.63 244.08,-3.38"/>
</g>
</g>
</svg>
