<?xml version="1.0" encoding="UTF-8" standalone="no"?>
<!DOCTYPE svg PUBLIC "-//W3C//DTD SVG 1.1//EN"
 "http://www.w3.org/Graphics/SVG/1.1/DTD/svg11.dtd">
<!-- Generated by graphviz version 11.0.0 (20240428.1522)
 -->
<!-- Pages: 1 -->
<svg width="488pt" height="294pt"
 viewBox="0.00 0.00 487.88 294.11" xmlns="http://www.w3.org/2000/svg" xmlns:xlink="http://www.w3.org/1999/xlink">
<g id="graph0" class="graph" transform="scale(1 1) rotate(0) translate(4 290.11)">
<polygon fill="white" stroke="none" points="-4,4 -4,-290.11 483.88,-290.11 483.88,4 -4,4"/>
<!-- vicuna -->
<g id="node1" class="node">
<title>vicuna</title>
<path fill="#cbc3e3" stroke="black" stroke-width="0.5" d="M178.2,-142.87C178.2,-142.87 150.45,-150.52 150.45,-150.52 147.66,-151.29 142.09,-151.29 139.3,-150.52 139.3,-150.52 111.55,-142.87 111.55,-142.87 108.77,-142.1 105.99,-138.45 105.99,-135.55 105.99,-135.55 106,-129.77 106,-129.77 106.01,-126.88 108.91,-123.99 111.8,-123.99 111.8,-123.99 177.95,-123.99 177.95,-123.99 180.84,-123.99 183.74,-126.88 183.75,-129.77 183.75,-129.77 183.76,-135.55 183.76,-135.55 183.76,-138.45 180.98,-142.1 178.2,-142.87"/>
<text text-anchor="middle" x="144.88" y="-132.87" font-family="Helvetica,sans-Serif" font-size="9.00">Vicuna</text>
</g>
<!-- vicuna&#45;13b -->
<g id="node2" class="node">
<title>vicuna&#45;13b</title>
<path fill="#800080" stroke="black" stroke-width="0.5" d="M259.88,-78.51C259.88,-78.51 207.87,-78.51 207.87,-78.51 204.87,-78.51 201.87,-75.51 201.87,-72.51 201.87,-72.51 201.87,-66.51 201.87,-66.51 201.87,-63.51 204.87,-60.51 207.87,-60.51 207.87,-60.51 259.88,-60.51 259.88,-60.51 262.88,-60.51 265.88,-63.51 265.88,-66.51 265.88,-66.51 265.88,-72.51 265.88,-72.51 265.88,-75.51 262.88,-78.51 259.88,-78.51"/>
<text text-anchor="middle" x="233.88" y="-65.84" font-family="Helvetica,sans-Serif" font-size="9.00" fill="#ffffff">Vicuna&#45;13B</text>
</g>
<!-- vicuna&#45;&gt;vicuna&#45;13b -->
<g id="edge1" class="edge">
<title>vicuna&#45;&gt;vicuna&#45;13b</title>
<path fill="none" stroke="#545454" stroke-width="0.75" d="M183.36,-136C189.09,-136 193.12,-136 193.12,-136 193.12,-136 193.12,-69 193.12,-69 193.12,-69 194.02,-69 194.02,-69"/>
<polygon fill="#545454" stroke="#545454" stroke-width="0.75" points="193.53,-71.63 201.03,-69 193.53,-66.38 193.53,-71.63"/>
</g>
<!-- LLaVA&#45;1.6&#45;Vicuna&#45;13B -->
<g id="node3" class="node">
<title>LLaVA&#45;1.6&#45;Vicuna&#45;13B</title>
<path fill="#800080" stroke="black" stroke-width="0.5" d="M321.38,-18C321.38,-18 224.37,-18 224.37,-18 221.37,-18 218.37,-15 218.37,-12 218.37,-12 218.37,-6 218.37,-6 218.37,-3 221.37,0 224.37,0 224.37,0 321.38,0 321.38,0 324.38,0 327.38,-3 327.38,-6 327.38,-6 327.38,-12 327.38,-12 327.38,-15 324.38,-18 321.38,-18"/>
<text text-anchor="middle" x="272.88" y="-5.33" font-family="Helvetica,sans-Serif" font-size="9.00" fill="#ffffff">LLaVA&#45;1.6 Vicuna 13B</text>
</g>
<!-- vicuna&#45;13b&#45;&gt;LLaVA&#45;1.6&#45;Vicuna&#45;13B -->
<g id="edge2" class="edge">
<title>vicuna&#45;13b&#45;&gt;LLaVA&#45;1.6&#45;Vicuna&#45;13B</title>
<path fill="none" stroke="#545454" stroke-width="0.75" d="M242.12,-60.59C242.12,-60.59 242.12,-26.6 242.12,-26.6"/>
<polygon fill="#545454" stroke="#545454" stroke-width="0.75" points="244.75,-26.6 242.12,-19.1 239.5,-26.6 244.75,-26.6"/>
</g>
<!-- vicuna&#45;70k&#45;gpt4 -->
<g id="node4" class="node">
<title>vicuna&#45;70k&#45;gpt4</title>
<path fill="#e0b7f3" stroke="black" stroke-width="0.5" d="M299.62,-146.53C299.62,-147.75 276.88,-148.75 248.88,-148.75 220.87,-148.75 198.12,-147.75 198.12,-146.53 198.12,-146.53 198.12,-126.56 198.12,-126.56 198.12,-125.33 220.87,-124.34 248.88,-124.34 276.88,-124.34 299.62,-125.33 299.62,-126.56 299.62,-126.56 299.62,-146.53 299.62,-146.53"/>
<path fill="none" stroke="black" stroke-width="0.5" d="M299.62,-146.53C299.62,-145.3 276.88,-144.31 248.88,-144.31 220.87,-144.31 198.12,-145.3 198.12,-146.53"/>
<text text-anchor="middle" x="248.88" y="-132.87" font-family="Helvetica,sans-Serif" font-size="9.00">Vicuna 70k ChatGPT</text>
</g>
<!-- vicuna&#45;70k&#45;gpt4&#45;&gt;vicuna&#45;13b -->
<g id="edge3" class="edge">
<title>vicuna&#45;70k&#45;gpt4&#45;&gt;vicuna&#45;13b</title>
<path fill="none" stroke="#545454" stroke-width="0.75" d="M223.21,-124.56C223.21,-124.56 223.21,-87.03 223.21,-87.03"/>
<polygon fill="#545454" stroke="#545454" stroke-width="0.75" points="225.83,-87.03 223.21,-79.53 220.58,-87.03 225.83,-87.03"/>
</g>
<!-- LLaVA -->
<g id="node5" class="node">
<title>LLaVA</title>
<path fill="#cbc3e3" stroke="black" stroke-width="0.5" d="M182.55,-75.87C182.55,-75.87 155.44,-83.47 155.44,-83.47 152.66,-84.25 147.09,-84.25 144.31,-83.47 144.31,-83.47 117.2,-75.87 117.2,-75.87 114.42,-75.09 111.64,-71.42 111.65,-68.53 111.65,-68.53 111.66,-62.74 111.66,-62.74 111.67,-59.85 114.56,-56.96 117.45,-56.96 117.45,-56.96 182.3,-56.96 182.3,-56.96 185.19,-56.96 188.08,-59.85 188.09,-62.74 188.09,-62.74 188.1,-68.53 188.1,-68.53 188.11,-71.42 185.33,-75.09 182.55,-75.87"/>
<text text-anchor="middle" x="149.88" y="-65.84" font-family="Helvetica,sans-Serif" font-size="9.00">LLaVA</text>
</g>
<!-- LLaVA&#45;&gt;LLaVA&#45;1.6&#45;Vicuna&#45;13B -->
<g id="edge4" class="edge">
<title>LLaVA&#45;&gt;LLaVA&#45;1.6&#45;Vicuna&#45;13B</title>
<path fill="none" stroke="#545454" stroke-width="0.75" d="M149.88,-57.03C149.88,-40.12 149.88,-12 149.88,-12 149.88,-12 209.93,-12 209.93,-12"/>
<polygon fill="#545454" stroke="#545454" stroke-width="0.75" points="209.93,-14.63 217.43,-12 209.93,-9.38 209.93,-14.63"/>
</g>
<!-- gpt4 -->
<g id="node6" class="node">
<title>gpt4</title>
<path fill="#800080" stroke="black" stroke-width="0.5" d="M168.88,-212.57C168.88,-212.57 126.88,-212.57 126.88,-212.57 123.88,-212.57 120.88,-209.57 120.88,-206.57 120.88,-206.57 120.88,-200.57 120.88,-200.57 120.88,-197.57 123.88,-194.57 126.88,-194.57 126.88,-194.57 168.88,-194.57 168.88,-194.57 171.88,-194.57 174.88,-197.57 174.88,-200.57 174.88,-200.57 174.88,-206.57 174.88,-206.57 174.88,-209.57 171.88,-212.57 168.88,-212.57"/>
<text text-anchor="middle" x="147.88" y="-199.9" font-family="Helvetica,sans-Serif" font-size="9.00" fill="#ffffff">GPT 4</text>
</g>
<!-- gpt4&#45;&gt;vicuna&#45;70k&#45;gpt4 -->
<g id="edge5" class="edge">
<title>gpt4&#45;&gt;vicuna&#45;70k&#45;gpt4</title>
<path fill="none" stroke="#545454" stroke-width="0.75" d="M174.76,-203C188.47,-203 202.28,-203 202.28,-203 202.28,-203 202.28,-156.45 202.28,-156.45"/>
<polygon fill="#545454" stroke="#545454" stroke-width="0.75" points="204.91,-156.45 202.28,-148.95 199.66,-156.45 204.91,-156.45"/>
</g>
<!-- mm&#45;instruct&#45;data -->
<g id="node7" class="node">
<title>mm&#45;instruct&#45;data</title>
<path fill="#e0b7f3" stroke="black" stroke-width="0.5" d="M91.75,-146.53C91.75,-147.75 71.19,-148.75 45.88,-148.75 20.56,-148.75 0,-147.75 0,-146.53 0,-146.53 0,-126.56 0,-126.56 0,-125.33 20.56,-124.34 45.88,-124.34 71.19,-124.34 91.75,-125.33 91.75,-126.56 91.75,-126.56 91.75,-146.53 91.75,-146.53"/>
<path fill="none" stroke="black" stroke-width="0.5" d="M91.75,-146.53C91.75,-145.3 71.19,-144.31 45.88,-144.31 20.56,-144.31 0,-145.3 0,-146.53"/>
<text text-anchor="middle" x="45.88" y="-132.87" font-family="Helvetica,sans-Serif" font-size="9.00">LLaVa MM&#45;Instruct</text>
</g>
<!-- gpt4&#45;&gt;mm&#45;instruct&#45;data -->
<g id="edge6" class="edge">
<title>gpt4&#45;&gt;mm&#45;instruct&#45;data</title>
<path fill="none" stroke="#545454" stroke-width="0.75" d="M121.03,-203C90.44,-203 44.66,-203 44.66,-203 44.66,-203 44.66,-157.37 44.66,-157.37"/>
<polygon fill="#545454" stroke="#545454" stroke-width="0.75" points="47.28,-157.37 44.66,-149.87 42.03,-157.37 47.28,-157.37"/>
</g>
<!-- mm&#45;instruct&#45;data&#45;&gt;LLaVA&#45;1.6&#45;Vicuna&#45;13B -->
<g id="edge7" class="edge">
<title>mm&#45;instruct&#45;data&#45;&gt;LLaVA&#45;1.6&#45;Vicuna&#45;13B</title>
<path fill="none" stroke="#545454" stroke-width="0.75" d="M45.88,-124.5C45.88,-92.18 45.88,-6 45.88,-6 45.88,-6 209.87,-6 209.87,-6"/>
<polygon fill="#545454" stroke="#545454" stroke-width="0.75" points="209.87,-8.63 217.37,-6 209.87,-3.38 209.87,-8.63"/>
</g>
<!-- science&#45;qa -->
<g id="node8" class="node">
<title>science&#45;qa</title>
<path fill="#e0b7f3" stroke="black" stroke-width="0.5" d="M343.88,-79.5C343.88,-80.72 329.53,-81.72 311.88,-81.72 294.22,-81.72 279.87,-80.72 279.87,-79.5 279.87,-79.5 279.87,-59.53 279.87,-59.53 279.87,-58.31 294.22,-57.31 311.88,-57.31 329.53,-57.31 343.88,-58.31 343.88,-59.53 343.88,-59.53 343.88,-79.5 343.88,-79.5"/>
<path fill="none" stroke="black" stroke-width="0.5" d="M343.88,-79.5C343.88,-78.27 329.53,-77.28 311.88,-77.28 294.22,-77.28 279.87,-78.27 279.87,-79.5"/>
<text text-anchor="middle" x="311.88" y="-65.84" font-family="Helvetica,sans-Serif" font-size="9.00">Science QA</text>
</g>
<!-- science&#45;qa&#45;&gt;LLaVA&#45;1.6&#45;Vicuna&#45;13B -->
<g id="edge8" class="edge">
<title>science&#45;qa&#45;&gt;LLaVA&#45;1.6&#45;Vicuna&#45;13B</title>
<path fill="none" stroke="#545454" stroke-width="0.75" d="M303.63,-57.56C303.63,-57.56 303.63,-26.43 303.63,-26.43"/>
<polygon fill="#545454" stroke="#545454" stroke-width="0.75" points="306.25,-26.43 303.63,-18.93 301,-26.43 306.25,-26.43"/>
</g>
<!-- coco -->
<g id="node9" class="node">
<title>coco</title>
<path fill="#e0b7f3" stroke="black" stroke-width="0.5" d="M411.88,-79.5C411.88,-80.72 399.77,-81.72 384.88,-81.72 369.98,-81.72 357.88,-80.72 357.88,-79.5 357.88,-79.5 357.88,-59.53 357.88,-59.53 357.88,-58.31 369.98,-57.31 384.88,-57.31 399.77,-57.31 411.88,-58.31 411.88,-59.53 411.88,-59.53 411.88,-79.5 411.88,-79.5"/>
<path fill="none" stroke="black" stroke-width="0.5" d="M411.88,-79.5C411.88,-78.27 399.77,-77.28 384.88,-77.28 369.98,-77.28 357.88,-78.27 357.88,-79.5"/>
<text text-anchor="middle" x="384.88" y="-65.84" font-family="Helvetica,sans-Serif" font-size="9.00">COCO</text>
</g>
<!-- coco&#45;&gt;LLaVA&#45;1.6&#45;Vicuna&#45;13B -->
<g id="edge9" class="edge">
<title>coco&#45;&gt;LLaVA&#45;1.6&#45;Vicuna&#45;13B</title>
<path fill="none" stroke="#545454" stroke-width="0.75" d="M384.88,-57.32C384.88,-40.43 384.88,-12 384.88,-12 384.88,-12 335.87,-12 335.87,-12"/>
<polygon fill="#545454" stroke="#545454" stroke-width="0.75" points="335.87,-9.38 328.37,-12 335.87,-14.63 335.87,-9.38"/>
</g>
<!-- CC3M -->
<g id="node10" class="node">
<title>CC3M</title>
<path fill="#e0b7f3" stroke="black" stroke-width="0.5" d="M479.88,-79.5C479.88,-80.72 467.77,-81.72 452.88,-81.72 437.98,-81.72 425.88,-80.72 425.88,-79.5 425.88,-79.5 425.88,-59.53 425.88,-59.53 425.88,-58.31 437.98,-57.31 452.88,-57.31 467.77,-57.31 479.88,-58.31 479.88,-59.53 479.88,-59.53 479.88,-79.5 479.88,-79.5"/>
<path fill="none" stroke="black" stroke-width="0.5" d="M479.88,-79.5C479.88,-78.27 467.77,-77.28 452.88,-77.28 437.98,-77.28 425.88,-78.27 425.88,-79.5"/>
<text text-anchor="middle" x="452.88" y="-65.84" font-family="Helvetica,sans-Serif" font-size="9.00">CC3M</text>
</g>
<!-- CC3M&#45;&gt;LLaVA&#45;1.6&#45;Vicuna&#45;13B -->
<g id="edge10" class="edge">
<title>CC3M&#45;&gt;LLaVA&#45;1.6&#45;Vicuna&#45;13B</title>
<path fill="none" stroke="#545454" stroke-width="0.75" d="M452.88,-57.57C452.88,-39.17 452.88,-6 452.88,-6 452.88,-6 336,-6 336,-6"/>
<polygon fill="#545454" stroke="#545454" stroke-width="0.75" points="336,-3.38 328.5,-6 336,-8.63 336,-3.38"/>
</g>
<!-- openai&#45;gpt -->
<g id="node11" class="node">
<title>openai&#45;gpt</title>
<path fill="#cbc3e3" stroke="black" stroke-width="0.5" d="M200.75,-276.43C200.75,-276.43 153.56,-285.07 153.56,-285.07 150.72,-285.59 145.03,-285.59 142.19,-285.07 142.19,-285.07 95,-276.43 95,-276.43 92.16,-275.91 89.32,-272.5 89.33,-269.61 89.33,-269.61 89.35,-263.83 89.35,-263.83 89.36,-260.94 92.26,-258.05 95.15,-258.05 95.15,-258.05 200.6,-258.05 200.6,-258.05 203.49,-258.05 206.39,-260.94 206.4,-263.83 206.4,-263.83 206.42,-269.61 206.42,-269.61 206.43,-272.5 203.59,-275.91 200.75,-276.43"/>
<text text-anchor="middle" x="147.88" y="-266.92" font-family="Helvetica,sans-Serif" font-size="9.00">OpenAI GPT</text>
</g>
<!-- openai&#45;gpt&#45;&gt;gpt4 -->
<g id="edge11" class="edge">
<title>openai&#45;gpt&#45;&gt;gpt4</title>
<path fill="none" stroke="#545454" stroke-width="0.75" d="M156.88,-258.31C156.88,-258.31 156.88,-221 156.88,-221"/>
<polygon fill="#545454" stroke="#545454" stroke-width="0.75" points="159.5,-221 156.88,-213.5 154.25,-221 159.5,-221"/>
</g>
<!-- openai&#45;gpt&#45;&gt;gpt4 -->
<g id="edge12" class="edge">
<title>openai&#45;gpt&#45;&gt;gpt4</title>
<path fill="none" stroke="#545454" stroke-width="0.75" d="M138.88,-258.31C138.88,-258.31 138.88,-221 138.88,-221"/>
<polygon fill="#545454" stroke="#545454" stroke-width="0.75" points="141.5,-221 138.88,-213.5 136.25,-221 141.5,-221"/>
</g>
<!-- llama2&#45;13b -->
<g id="node12" class="node">
<title>llama2&#45;13b</title>
<path fill="#800080" stroke="black" stroke-width="0.5" d="M375.75,-145.54C375.75,-145.54 320,-145.54 320,-145.54 317,-145.54 314,-142.54 314,-139.54 314,-139.54 314,-133.54 314,-133.54 314,-130.54 317,-127.54 320,-127.54 320,-127.54 375.75,-127.54 375.75,-127.54 378.75,-127.54 381.75,-130.54 381.75,-133.54 381.75,-133.54 381.75,-139.54 381.75,-139.54 381.75,-142.54 378.75,-145.54 375.75,-145.54"/>
<text text-anchor="middle" x="347.88" y="-132.87" font-family="Helvetica,sans-Serif" font-size="9.00" fill="#ffffff">Llama 2 13B</text>
</g>
<!-- llama2&#45;13b&#45;&gt;vicuna&#45;13b -->
<g id="edge13" class="edge">
<title>llama2&#45;13b&#45;&gt;vicuna&#45;13b</title>
<path fill="none" stroke="#545454" stroke-width="0.75" d="M328.94,-127.73C328.94,-117.79 328.94,-103 328.94,-103 328.94,-103 244.54,-103 244.54,-103 244.54,-103 244.54,-86.95 244.54,-86.95"/>
<polygon fill="#545454" stroke="#545454" stroke-width="0.75" points="247.17,-86.95 244.54,-79.45 241.92,-86.95 247.17,-86.95"/>
</g>
<!-- llama2 -->
<g id="node13" class="node">
<title>llama2</title>
<path fill="#cbc3e3" stroke="black" stroke-width="0.5" d="M385.1,-209.77C385.1,-209.77 353.48,-217.68 353.48,-217.68 350.68,-218.38 345.07,-218.38 342.27,-217.68 342.27,-217.68 310.65,-209.77 310.65,-209.77 307.85,-209.07 305.05,-205.47 305.06,-202.58 305.06,-202.58 305.07,-196.8 305.07,-196.8 305.08,-193.91 307.98,-191.02 310.87,-191.02 310.87,-191.02 384.88,-191.02 384.88,-191.02 387.77,-191.02 390.67,-193.91 390.68,-196.8 390.68,-196.8 390.69,-202.58 390.69,-202.58 390.7,-205.47 387.9,-209.07 385.1,-209.77"/>
<text text-anchor="middle" x="347.88" y="-199.9" font-family="Helvetica,sans-Serif" font-size="9.00">Llama 2</text>
</g>
<!-- llama2&#45;&gt;llama2&#45;13b -->
<g id="edge14" class="edge">
<title>llama2&#45;&gt;llama2&#45;13b</title>
<path fill="none" stroke="#545454" stroke-width="0.75" d="M347.88,-191.28C347.88,-191.28 347.88,-153.97 347.88,-153.97"/>
<polygon fill="#545454" stroke="#545454" stroke-width="0.75" points="350.5,-153.97 347.88,-146.47 345.25,-153.98 350.5,-153.97"/>
</g>
</g>
</svg>
