<?xml version="1.0" encoding="UTF-8" standalone="no"?>
<!DOCTYPE svg PUBLIC "-//W3C//DTD SVG 1.1//EN"
 "http://www.w3.org/Graphics/SVG/1.1/DTD/svg11.dtd">
<!-- Generated by graphviz version 11.0.0 (20240428.1522)
 -->
<!-- Pages: 1 -->
<svg width="466pt" height="294pt"
 viewBox="0.00 0.00 465.83 294.11" xmlns="http://www.w3.org/2000/svg" xmlns:xlink="http://www.w3.org/1999/xlink">
<g id="graph0" class="graph" transform="scale(1 1) rotate(0) translate(4 290.11)">
<polygon fill="white" stroke="none" points="-4,4 -4,-290.11 461.83,-290.11 461.83,4 -4,4"/>
<!-- LLaVA -->
<g id="node1" class="node">
<title>LLaVA</title>
<path fill="#cbc3e3" stroke="black" stroke-width="0.5" d="M130.5,-75.87C130.5,-75.87 103.4,-83.47 103.4,-83.47 100.61,-84.25 95.05,-84.25 92.26,-83.47 92.26,-83.47 65.16,-75.87 65.16,-75.87 62.37,-75.09 59.6,-71.42 59.6,-68.53 59.6,-68.53 59.61,-62.74 59.61,-62.74 59.62,-59.85 62.52,-56.96 65.41,-56.96 65.41,-56.96 130.25,-56.96 130.25,-56.96 133.14,-56.96 136.04,-59.85 136.04,-62.74 136.04,-62.74 136.06,-68.53 136.06,-68.53 136.06,-71.42 133.28,-75.09 130.5,-75.87"/>
<text text-anchor="middle" x="97.83" y="-65.84" font-family="Helvetica,sans-Serif" font-size="9.00">LLaVA</text>
</g>
<!-- LLaVA&#45;1.6&#45;Vicuna&#45;13B -->
<g id="node2" class="node">
<title>LLaVA&#45;1.6&#45;Vicuna&#45;13B</title>
<path fill="#800080" stroke="black" stroke-width="0.5" d="M311.33,-18C311.33,-18 214.33,-18 214.33,-18 211.33,-18 208.33,-15 208.33,-12 208.33,-12 208.33,-6 208.33,-6 208.33,-3 211.33,0 214.33,0 214.33,0 311.33,0 311.33,0 314.33,0 317.33,-3 317.33,-6 317.33,-6 317.33,-12 317.33,-12 317.33,-15 314.33,-18 311.33,-18"/>
<text text-anchor="middle" x="262.83" y="-5.33" font-family="Helvetica,sans-Serif" font-size="9.00" fill="#ffffff">LLaVA&#45;1.6 Vicuna 13B</text>
</g>
<!-- LLaVA&#45;&gt;LLaVA&#45;1.6&#45;Vicuna&#45;13B -->
<g id="edge1" class="edge">
<title>LLaVA&#45;&gt;LLaVA&#45;1.6&#45;Vicuna&#45;13B</title>
<path fill="none" stroke="#545454" stroke-width="0.75" d="M97.83,-56.98C97.83,-39.25 97.83,-9 97.83,-9 97.83,-9 199.71,-9 199.71,-9"/>
<polygon fill="#545454" stroke="#545454" stroke-width="0.75" points="199.71,-11.63 207.21,-9 199.71,-6.38 199.71,-11.63"/>
</g>
<!-- gpt4 -->
<g id="node3" class="node">
<title>gpt4</title>
<path fill="#800080" stroke="black" stroke-width="0.5" d="M309.83,-212.57C309.83,-212.57 267.83,-212.57 267.83,-212.57 264.83,-212.57 261.83,-209.57 261.83,-206.57 261.83,-206.57 261.83,-200.57 261.83,-200.57 261.83,-197.57 264.83,-194.57 267.83,-194.57 267.83,-194.57 309.83,-194.57 309.83,-194.57 312.83,-194.57 315.83,-197.57 315.83,-200.57 315.83,-200.57 315.83,-206.57 315.83,-206.57 315.83,-209.57 312.83,-212.57 309.83,-212.57"/>
<text text-anchor="middle" x="288.83" y="-199.9" font-family="Helvetica,sans-Serif" font-size="9.00" fill="#ffffff">GPT 4</text>
</g>
<!-- vicuna&#45;70k&#45;gpt4 -->
<g id="node4" class="node">
<title>vicuna&#45;70k&#45;gpt4</title>
<path fill="#e0b7f3" stroke="black" stroke-width="0.5" d="M284.58,-146.53C284.58,-147.75 261.83,-148.75 233.83,-148.75 205.83,-148.75 183.08,-147.75 183.08,-146.53 183.08,-146.53 183.08,-126.56 183.08,-126.56 183.08,-125.33 205.83,-124.34 233.83,-124.34 261.83,-124.34 284.58,-125.33 284.58,-126.56 284.58,-126.56 284.58,-146.53 284.58,-146.53"/>
<path fill="none" stroke="black" stroke-width="0.5" d="M284.58,-146.53C284.58,-145.3 261.83,-144.31 233.83,-144.31 205.83,-144.31 183.08,-145.3 183.08,-146.53"/>
<text text-anchor="middle" x="233.83" y="-132.87" font-family="Helvetica,sans-Serif" font-size="9.00">Vicuna 70k ChatGPT</text>
</g>
<!-- gpt4&#45;&gt;vicuna&#45;70k&#45;gpt4 -->
<g id="edge2" class="edge">
<title>gpt4&#45;&gt;vicuna&#45;70k&#45;gpt4</title>
<path fill="none" stroke="#545454" stroke-width="0.75" d="M273.2,-194.81C273.2,-194.81 273.2,-156.87 273.2,-156.87"/>
<polygon fill="#545454" stroke="#545454" stroke-width="0.75" points="275.83,-156.87 273.2,-149.37 270.58,-156.87 275.83,-156.87"/>
</g>
<!-- mm&#45;instruct&#45;data -->
<g id="node5" class="node">
<title>mm&#45;instruct&#45;data</title>
<path fill="#e0b7f3" stroke="black" stroke-width="0.5" d="M390.7,-146.53C390.7,-147.75 370.14,-148.75 344.83,-148.75 319.52,-148.75 298.95,-147.75 298.95,-146.53 298.95,-146.53 298.95,-126.56 298.95,-126.56 298.95,-125.33 319.52,-124.34 344.83,-124.34 370.14,-124.34 390.7,-125.33 390.7,-126.56 390.7,-126.56 390.7,-146.53 390.7,-146.53"/>
<path fill="none" stroke="black" stroke-width="0.5" d="M390.7,-146.53C390.7,-145.3 370.14,-144.31 344.83,-144.31 319.52,-144.31 298.95,-145.3 298.95,-146.53"/>
<text text-anchor="middle" x="344.83" y="-132.87" font-family="Helvetica,sans-Serif" font-size="9.00">LLaVa MM&#45;Instruct</text>
</g>
<!-- gpt4&#45;&gt;mm&#45;instruct&#45;data -->
<g id="edge3" class="edge">
<title>gpt4&#45;&gt;mm&#45;instruct&#45;data</title>
<path fill="none" stroke="#545454" stroke-width="0.75" d="M307.39,-194.81C307.39,-194.81 307.39,-156.4 307.39,-156.4"/>
<polygon fill="#545454" stroke="#545454" stroke-width="0.75" points="310.02,-156.4 307.39,-148.9 304.77,-156.4 310.02,-156.4"/>
</g>
<!-- vicuna&#45;13b -->
<g id="node6" class="node">
<title>vicuna&#45;13b</title>
<path fill="#800080" stroke="black" stroke-width="0.5" d="M207.83,-78.51C207.83,-78.51 155.83,-78.51 155.83,-78.51 152.83,-78.51 149.83,-75.51 149.83,-72.51 149.83,-72.51 149.83,-66.51 149.83,-66.51 149.83,-63.51 152.83,-60.51 155.83,-60.51 155.83,-60.51 207.83,-60.51 207.83,-60.51 210.83,-60.51 213.83,-63.51 213.83,-66.51 213.83,-66.51 213.83,-72.51 213.83,-72.51 213.83,-75.51 210.83,-78.51 207.83,-78.51"/>
<text text-anchor="middle" x="181.83" y="-65.84" font-family="Helvetica,sans-Serif" font-size="9.00" fill="#ffffff">Vicuna&#45;13B</text>
</g>
<!-- vicuna&#45;70k&#45;gpt4&#45;&gt;vicuna&#45;13b -->
<g id="edge4" class="edge">
<title>vicuna&#45;70k&#45;gpt4&#45;&gt;vicuna&#45;13b</title>
<path fill="none" stroke="#545454" stroke-width="0.75" d="M198.45,-124.56C198.45,-124.56 198.45,-87.03 198.45,-87.03"/>
<polygon fill="#545454" stroke="#545454" stroke-width="0.75" points="201.08,-87.03 198.45,-79.53 195.83,-87.03 201.08,-87.03"/>
</g>
<!-- mm&#45;instruct&#45;data&#45;&gt;LLaVA&#45;1.6&#45;Vicuna&#45;13B -->
<g id="edge5" class="edge">
<title>mm&#45;instruct&#45;data&#45;&gt;LLaVA&#45;1.6&#45;Vicuna&#45;13B</title>
<path fill="none" stroke="#545454" stroke-width="0.75" d="M328.83,-124.7C328.83,-93.78 328.83,-13 328.83,-13 328.83,-13 325.66,-13 325.66,-13"/>
<polygon fill="#545454" stroke="#545454" stroke-width="0.75" points="325.66,-10.38 318.16,-13 325.66,-15.63 325.66,-10.38"/>
</g>
<!-- vicuna&#45;13b&#45;&gt;LLaVA&#45;1.6&#45;Vicuna&#45;13B -->
<g id="edge6" class="edge">
<title>vicuna&#45;13b&#45;&gt;LLaVA&#45;1.6&#45;Vicuna&#45;13B</title>
<path fill="none" stroke="#545454" stroke-width="0.75" d="M213.55,-69C225.31,-69 235.83,-69 235.83,-69 235.83,-69 235.83,-26.49 235.83,-26.49"/>
<polygon fill="#545454" stroke="#545454" stroke-width="0.75" points="238.45,-26.49 235.83,-18.99 233.2,-26.49 238.45,-26.49"/>
</g>
<!-- science&#45;qa -->
<g id="node7" class="node">
<title>science&#45;qa</title>
<path fill="#e0b7f3" stroke="black" stroke-width="0.5" d="M321.83,-79.5C321.83,-80.72 307.49,-81.72 289.83,-81.72 272.17,-81.72 257.83,-80.72 257.83,-79.5 257.83,-79.5 257.83,-59.53 257.83,-59.53 257.83,-58.31 272.17,-57.31 289.83,-57.31 307.49,-57.31 321.83,-58.31 321.83,-59.53 321.83,-59.53 321.83,-79.5 321.83,-79.5"/>
<path fill="none" stroke="black" stroke-width="0.5" d="M321.83,-79.5C321.83,-78.27 307.49,-77.28 289.83,-77.28 272.17,-77.28 257.83,-78.27 257.83,-79.5"/>
<text text-anchor="middle" x="289.83" y="-65.84" font-family="Helvetica,sans-Serif" font-size="9.00">Science QA</text>
</g>
<!-- science&#45;qa&#45;&gt;LLaVA&#45;1.6&#45;Vicuna&#45;13B -->
<g id="edge7" class="edge">
<title>science&#45;qa&#45;&gt;LLaVA&#45;1.6&#45;Vicuna&#45;13B</title>
<path fill="none" stroke="#545454" stroke-width="0.75" d="M287.58,-57.56C287.58,-57.56 287.58,-26.43 287.58,-26.43"/>
<polygon fill="#545454" stroke="#545454" stroke-width="0.75" points="290.2,-26.43 287.58,-18.93 284.95,-26.43 290.2,-26.43"/>
</g>
<!-- llama2 -->
<g id="node8" class="node">
<title>llama2</title>
<path fill="#cbc3e3" stroke="black" stroke-width="0.5" d="M80.05,-209.77C80.05,-209.77 48.44,-217.68 48.44,-217.68 45.63,-218.38 40.02,-218.38 37.22,-217.68 37.22,-217.68 5.61,-209.77 5.61,-209.77 2.8,-209.07 0.01,-205.47 0.01,-202.58 0.01,-202.58 0.03,-196.8 0.03,-196.8 0.03,-193.91 2.93,-191.02 5.82,-191.02 5.82,-191.02 79.84,-191.02 79.84,-191.02 82.73,-191.02 85.63,-193.91 85.63,-196.8 85.63,-196.8 85.65,-202.58 85.65,-202.58 85.65,-205.47 82.85,-209.07 80.05,-209.77"/>
<text text-anchor="middle" x="42.83" y="-199.9" font-family="Helvetica,sans-Serif" font-size="9.00">Llama 2</text>
</g>
<!-- llama2&#45;13b -->
<g id="node9" class="node">
<title>llama2&#45;13b</title>
<path fill="#800080" stroke="black" stroke-width="0.5" d="M70.7,-145.54C70.7,-145.54 14.95,-145.54 14.95,-145.54 11.95,-145.54 8.95,-142.54 8.95,-139.54 8.95,-139.54 8.95,-133.54 8.95,-133.54 8.95,-130.54 11.95,-127.54 14.95,-127.54 14.95,-127.54 70.7,-127.54 70.7,-127.54 73.7,-127.54 76.7,-130.54 76.7,-133.54 76.7,-133.54 76.7,-139.54 76.7,-139.54 76.7,-142.54 73.7,-145.54 70.7,-145.54"/>
<text text-anchor="middle" x="42.83" y="-132.87" font-family="Helvetica,sans-Serif" font-size="9.00" fill="#ffffff">Llama 2 13B</text>
</g>
<!-- llama2&#45;&gt;llama2&#45;13b -->
<g id="edge8" class="edge">
<title>llama2&#45;&gt;llama2&#45;13b</title>
<path fill="none" stroke="#545454" stroke-width="0.75" d="M42.83,-191.28C42.83,-191.28 42.83,-153.97 42.83,-153.97"/>
<polygon fill="#545454" stroke="#545454" stroke-width="0.75" points="45.45,-153.97 42.83,-146.47 40.2,-153.98 45.45,-153.97"/>
</g>
<!-- llama2&#45;13b&#45;&gt;vicuna&#45;13b -->
<g id="edge9" class="edge">
<title>llama2&#45;13b&#45;&gt;vicuna&#45;13b</title>
<path fill="none" stroke="#545454" stroke-width="0.75" d="M68.15,-127.73C68.15,-117.79 68.15,-103 68.15,-103 68.15,-103 156.13,-103 156.13,-103 156.13,-103 156.13,-86.95 156.13,-86.95"/>
<polygon fill="#545454" stroke="#545454" stroke-width="0.75" points="158.75,-86.95 156.13,-79.45 153.5,-86.95 158.75,-86.95"/>
</g>
<!-- coco -->
<g id="node10" class="node">
<title>coco</title>
<path fill="#e0b7f3" stroke="black" stroke-width="0.5" d="M389.83,-79.5C389.83,-80.72 377.73,-81.72 362.83,-81.72 347.93,-81.72 335.83,-80.72 335.83,-79.5 335.83,-79.5 335.83,-59.53 335.83,-59.53 335.83,-58.31 347.93,-57.31 362.83,-57.31 377.73,-57.31 389.83,-58.31 389.83,-59.53 389.83,-59.53 389.83,-79.5 389.83,-79.5"/>
<path fill="none" stroke="black" stroke-width="0.5" d="M389.83,-79.5C389.83,-78.27 377.73,-77.28 362.83,-77.28 347.93,-77.28 335.83,-78.27 335.83,-79.5"/>
<text text-anchor="middle" x="362.83" y="-65.84" font-family="Helvetica,sans-Serif" font-size="9.00">COCO</text>
</g>
<!-- coco&#45;&gt;LLaVA&#45;1.6&#45;Vicuna&#45;13B -->
<g id="edge10" class="edge">
<title>coco&#45;&gt;LLaVA&#45;1.6&#45;Vicuna&#45;13B</title>
<path fill="none" stroke="#545454" stroke-width="0.75" d="M362.83,-57.56C362.83,-39.92 362.83,-9 362.83,-9 362.83,-9 325.85,-9 325.85,-9"/>
<polygon fill="#545454" stroke="#545454" stroke-width="0.75" points="325.85,-6.38 318.35,-9 325.85,-11.63 325.85,-6.38"/>
</g>
<!-- CC3M -->
<g id="node11" class="node">
<title>CC3M</title>
<path fill="#e0b7f3" stroke="black" stroke-width="0.5" d="M457.83,-79.5C457.83,-80.72 445.73,-81.72 430.83,-81.72 415.93,-81.72 403.83,-80.72 403.83,-79.5 403.83,-79.5 403.83,-59.53 403.83,-59.53 403.83,-58.31 415.93,-57.31 430.83,-57.31 445.73,-57.31 457.83,-58.31 457.83,-59.53 457.83,-59.53 457.83,-79.5 457.83,-79.5"/>
<path fill="none" stroke="black" stroke-width="0.5" d="M457.83,-79.5C457.83,-78.27 445.73,-77.28 430.83,-77.28 415.93,-77.28 403.83,-78.27 403.83,-79.5"/>
<text text-anchor="middle" x="430.83" y="-65.84" font-family="Helvetica,sans-Serif" font-size="9.00">CC3M</text>
</g>
<!-- CC3M&#45;&gt;LLaVA&#45;1.6&#45;Vicuna&#45;13B -->
<g id="edge11" class="edge">
<title>CC3M&#45;&gt;LLaVA&#45;1.6&#45;Vicuna&#45;13B</title>
<path fill="none" stroke="#545454" stroke-width="0.75" d="M430.83,-57.5C430.83,-38.58 430.83,-4 430.83,-4 430.83,-4 325.55,-4 325.55,-4"/>
<polygon fill="#545454" stroke="#545454" stroke-width="0.75" points="325.55,-1.38 318.05,-4 325.55,-6.63 325.55,-1.38"/>
</g>
<!-- vicuna -->
<g id="node12" class="node">
<title>vicuna</title>
<path fill="#cbc3e3" stroke="black" stroke-width="0.5" d="M163.15,-142.87C163.15,-142.87 135.4,-150.52 135.4,-150.52 132.62,-151.29 127.04,-151.29 124.26,-150.52 124.26,-150.52 96.51,-142.87 96.51,-142.87 93.72,-142.1 90.94,-138.45 90.95,-135.55 90.95,-135.55 90.96,-129.77 90.96,-129.77 90.97,-126.88 93.86,-123.99 96.75,-123.99 96.75,-123.99 162.91,-123.99 162.91,-123.99 165.8,-123.99 168.69,-126.88 168.7,-129.77 168.7,-129.77 168.71,-135.55 168.71,-135.55 168.72,-138.45 165.94,-142.1 163.15,-142.87"/>
<text text-anchor="middle" x="129.83" y="-132.87" font-family="Helvetica,sans-Serif" font-size="9.00">Vicuna</text>
</g>
<!-- vicuna&#45;&gt;vicuna&#45;13b -->
<g id="edge12" class="edge">
<title>vicuna&#45;&gt;vicuna&#45;13b</title>
<path fill="none" stroke="#545454" stroke-width="0.75" d="M162.43,-124.25C162.43,-124.25 162.43,-86.95 162.43,-86.95"/>
<polygon fill="#545454" stroke="#545454" stroke-width="0.75" points="165.05,-86.95 162.43,-79.45 159.8,-86.95 165.05,-86.95"/>
</g>
<!-- openai&#45;gpt -->
<g id="node13" class="node">
<title>openai&#45;gpt</title>
<path fill="#cbc3e3" stroke="black" stroke-width="0.5" d="M341.7,-276.43C341.7,-276.43 294.52,-285.07 294.52,-285.07 291.67,-285.59 285.99,-285.59 283.14,-285.07 283.14,-285.07 235.96,-276.43 235.96,-276.43 233.11,-275.91 230.28,-272.5 230.29,-269.61 230.29,-269.61 230.3,-263.83 230.3,-263.83 230.31,-260.94 233.21,-258.05 236.1,-258.05 236.1,-258.05 341.55,-258.05 341.55,-258.05 344.44,-258.05 347.34,-260.94 347.35,-263.83 347.35,-263.83 347.37,-269.61 347.37,-269.61 347.38,-272.5 344.55,-275.91 341.7,-276.43"/>
<text text-anchor="middle" x="288.83" y="-266.92" font-family="Helvetica,sans-Serif" font-size="9.00">OpenAI GPT</text>
</g>
<!-- openai&#45;gpt&#45;&gt;gpt4 -->
<g id="edge13" class="edge">
<title>openai&#45;gpt&#45;&gt;gpt4</title>
<path fill="none" stroke="#545454" stroke-width="0.75" d="M297.83,-258.31C297.83,-258.31 297.83,-221 297.83,-221"/>
<polygon fill="#545454" stroke="#545454" stroke-width="0.75" points="300.45,-221 297.83,-213.5 295.2,-221 300.45,-221"/>
</g>
<!-- openai&#45;gpt&#45;&gt;gpt4 -->
<g id="edge14" class="edge">
<title>openai&#45;gpt&#45;&gt;gpt4</title>
<path fill="none" stroke="#545454" stroke-width="0.75" d="M279.83,-258.31C279.83,-258.31 279.83,-221 279.83,-221"/>
<polygon fill="#545454" stroke="#545454" stroke-width="0.75" points="282.45,-221 279.83,-213.5 277.2,-221 282.45,-221"/>
</g>
</g>
</svg>
