<?xml version="1.0" encoding="UTF-8" standalone="no"?>
<!DOCTYPE svg PUBLIC "-//W3C//DTD SVG 1.1//EN"
 "http://www.w3.org/Graphics/SVG/1.1/DTD/svg11.dtd">
<!-- Generated by graphviz version 11.0.0 (20240428.1522)
 -->
<!-- Pages: 1 -->
<svg width="125pt" height="153pt"
 viewBox="0.00 0.00 125.12 153.43" xmlns="http://www.w3.org/2000/svg" xmlns:xlink="http://www.w3.org/1999/xlink">
<g id="graph0" class="graph" transform="scale(1 1) rotate(0) translate(4 149.43)">
<polygon fill="white" stroke="none" points="-4,4 -4,-149.43 121.12,-149.43 121.12,4 -4,4"/>
<!-- gpt4 -->
<g id="node1" class="node">
<title>gpt4</title>
<path fill="#800080" stroke="black" stroke-width="0.5" d="M79.56,-78.41C79.56,-78.41 37.56,-78.41 37.56,-78.41 34.56,-78.41 31.56,-75.41 31.56,-72.41 31.56,-72.41 31.56,-66.41 31.56,-66.41 31.56,-63.41 34.56,-60.41 37.56,-60.41 37.56,-60.41 79.56,-60.41 79.56,-60.41 82.56,-60.41 85.56,-63.41 85.56,-66.41 85.56,-66.41 85.56,-72.41 85.56,-72.41 85.56,-75.41 82.56,-78.41 79.56,-78.41"/>
<text text-anchor="middle" x="58.56" y="-65.73" font-family="Helvetica,sans-Serif" font-size="9.00" fill="#ffffff">GPT 4</text>
</g>
<!-- mm&#45;instruct&#45;data -->
<g id="node2" class="node">
<title>mm&#45;instruct&#45;data</title>
<path fill="#e0b7f3" stroke="black" stroke-width="0.5" d="M104.44,-22.19C104.44,-23.41 83.87,-24.41 58.56,-24.41 33.25,-24.41 12.69,-23.41 12.69,-22.19 12.69,-22.19 12.69,-2.22 12.69,-2.22 12.69,-0.99 33.25,0 58.56,0 83.87,0 104.44,-0.99 104.44,-2.22 104.44,-2.22 104.44,-22.19 104.44,-22.19"/>
<path fill="none" stroke="black" stroke-width="0.5" d="M104.44,-22.19C104.44,-20.96 83.87,-19.97 58.56,-19.97 33.25,-19.97 12.69,-20.96 12.69,-22.19"/>
<text text-anchor="middle" x="58.56" y="-8.53" font-family="Helvetica,sans-Serif" font-size="9.00">LLaVa MM&#45;Instruct</text>
</g>
<!-- gpt4&#45;&gt;mm&#45;instruct&#45;data -->
<g id="edge1" class="edge">
<title>gpt4&#45;&gt;mm&#45;instruct&#45;data</title>
<path fill="none" stroke="#545454" stroke-width="0.75" d="M58.56,-60.47C58.56,-60.47 58.56,-32.69 58.56,-32.69"/>
<polygon fill="#545454" stroke="#545454" stroke-width="0.75" points="61.19,-32.69 58.56,-25.19 55.94,-32.69 61.19,-32.69"/>
</g>
<!-- openai&#45;gpt -->
<g id="node3" class="node">
<title>openai&#45;gpt</title>
<path fill="#cbc3e3" stroke="black" stroke-width="0.5" d="M111.44,-135.76C111.44,-135.76 64.25,-144.39 64.25,-144.39 61.4,-144.91 55.72,-144.91 52.87,-144.39 52.87,-144.39 5.69,-135.76 5.69,-135.76 2.84,-135.24 0.01,-131.82 0.02,-128.93 0.02,-128.93 0.04,-123.15 0.04,-123.15 0.05,-120.26 2.95,-117.37 5.84,-117.37 5.84,-117.37 111.29,-117.37 111.29,-117.37 114.18,-117.37 117.08,-120.26 117.09,-123.15 117.09,-123.15 117.1,-128.93 117.1,-128.93 117.11,-131.82 114.28,-135.24 111.44,-135.76"/>
<text text-anchor="middle" x="58.56" y="-126.25" font-family="Helvetica,sans-Serif" font-size="9.00">OpenAI GPT</text>
</g>
<!-- openai&#45;gpt&#45;&gt;gpt4 -->
<g id="edge2" class="edge">
<title>openai&#45;gpt&#45;&gt;gpt4</title>
<path fill="none" stroke="#545454" stroke-width="0.75" d="M58.56,-117.38C58.56,-117.38 58.56,-87.03 58.56,-87.03"/>
<polygon fill="#545454" stroke="#545454" stroke-width="0.75" points="61.19,-87.03 58.56,-79.53 55.94,-87.03 61.19,-87.03"/>
</g>
</g>
</svg>
