<?xml version="1.0" encoding="UTF-8" standalone="no"?>
<!DOCTYPE svg PUBLIC "-//W3C//DTD SVG 1.1//EN"
 "http://www.w3.org/Graphics/SVG/1.1/DTD/svg11.dtd">
<!-- Generated by graphviz version 11.0.0 (20240428.1522)
 -->
<!-- Pages: 1 -->
<svg width="198pt" height="153pt"
 viewBox="0.00 0.00 198.00 153.43" xmlns="http://www.w3.org/2000/svg" xmlns:xlink="http://www.w3.org/1999/xlink">
<g id="graph0" class="graph" transform="scale(1 1) rotate(0) translate(4 149.43)">
<polygon fill="white" stroke="none" points="-4,4 -4,-149.43 194,-149.43 194,4 -4,4"/>
<!-- xp3&#45;all -->
<g id="node1" class="node">
<title>xp3&#45;all</title>
<path fill="#e0b7f3" stroke="black" stroke-width="0.5" d="M54,-143.22C54,-144.44 41.9,-145.43 27,-145.43 12.1,-145.43 0,-144.44 0,-143.22 0,-143.22 0,-123.25 0,-123.25 0,-122.02 12.1,-121.03 27,-121.03 41.9,-121.03 54,-122.02 54,-123.25 54,-123.25 54,-143.22 54,-143.22"/>
<path fill="none" stroke="black" stroke-width="0.5" d="M54,-143.22C54,-141.99 41.9,-141 27,-141 12.1,-141 0,-141.99 0,-143.22"/>
<text text-anchor="middle" x="27" y="-129.56" font-family="Helvetica,sans-Serif" font-size="9.00">xP3all</text>
</g>
<!-- mt0 -->
<g id="node2" class="node">
<title>mt0</title>
<path fill="#cbc3e3" stroke="black" stroke-width="0.5" d="M116.72,-76.44C116.72,-76.44 100.38,-82.9 100.38,-82.9 97.69,-83.96 92.31,-83.96 89.62,-82.9 89.62,-82.9 73.28,-76.44 73.28,-76.44 70.59,-75.37 67.91,-71.42 67.91,-68.53 67.91,-68.53 67.92,-62.74 67.92,-62.74 67.93,-59.85 70.82,-56.96 73.71,-56.96 73.71,-56.96 116.29,-56.96 116.29,-56.96 119.18,-56.96 122.07,-59.85 122.08,-62.74 122.08,-62.74 122.09,-68.53 122.09,-68.53 122.09,-71.42 119.41,-75.37 116.72,-76.44"/>
<text text-anchor="middle" x="95" y="-65.84" font-family="Helvetica,sans-Serif" font-size="9.00">mt0</text>
</g>
<!-- xp3&#45;all&#45;&gt;mt0 -->
<g id="edge1" class="edge">
<title>xp3&#45;all&#45;&gt;mt0</title>
<path fill="none" stroke="#545454" stroke-width="0.75" d="M27,-121.15C27,-102.54 27,-69 27,-69 27,-69 59.49,-69 59.49,-69"/>
<polygon fill="#545454" stroke="#545454" stroke-width="0.75" points="59.49,-71.63 66.99,-69 59.49,-66.38 59.49,-71.63"/>
</g>
<!-- mt0&#45;base -->
<g id="node3" class="node">
<title>mt0&#45;base</title>
<path fill="#800080" stroke="black" stroke-width="0.5" d="M116.12,-18C116.12,-18 73.88,-18 73.88,-18 70.88,-18 67.88,-15 67.88,-12 67.88,-12 67.88,-6 67.88,-6 67.88,-3 70.88,0 73.88,0 73.88,0 116.12,0 116.12,0 119.12,0 122.12,-3 122.12,-6 122.12,-6 122.12,-12 122.12,-12 122.12,-15 119.12,-18 116.12,-18"/>
<text text-anchor="middle" x="95" y="-5.33" font-family="Helvetica,sans-Serif" font-size="9.00" fill="#ffffff">mt0&#45;base</text>
</g>
<!-- mt0&#45;&gt;mt0&#45;base -->
<g id="edge2" class="edge">
<title>mt0&#45;&gt;mt0&#45;base</title>
<path fill="none" stroke="#545454" stroke-width="0.75" d="M95,-56.98C95,-56.98 95,-26.62 95,-26.62"/>
<polygon fill="#545454" stroke="#545454" stroke-width="0.75" points="97.63,-26.62 95,-19.12 92.38,-26.62 97.63,-26.62"/>
</g>
<!-- xp3 -->
<g id="node4" class="node">
<title>xp3</title>
<path fill="#e0b7f3" stroke="black" stroke-width="0.5" d="M122,-143.22C122,-144.44 109.9,-145.43 95,-145.43 80.1,-145.43 68,-144.44 68,-143.22 68,-143.22 68,-123.25 68,-123.25 68,-122.02 80.1,-121.03 95,-121.03 109.9,-121.03 122,-122.02 122,-123.25 122,-123.25 122,-143.22 122,-143.22"/>
<path fill="none" stroke="black" stroke-width="0.5" d="M122,-143.22C122,-141.99 109.9,-141 95,-141 80.1,-141 68,-141.99 68,-143.22"/>
<text text-anchor="middle" x="95" y="-129.56" font-family="Helvetica,sans-Serif" font-size="9.00">xP3</text>
</g>
<!-- xp3&#45;&gt;mt0 -->
<g id="edge3" class="edge">
<title>xp3&#45;&gt;mt0</title>
<path fill="none" stroke="#545454" stroke-width="0.75" d="M95,-121.25C95,-121.25 95,-93.23 95,-93.23"/>
<polygon fill="#545454" stroke="#545454" stroke-width="0.75" points="97.63,-93.23 95,-85.73 92.38,-93.23 97.63,-93.23"/>
</g>
<!-- mc4 -->
<g id="node5" class="node">
<title>mc4</title>
<path fill="#e0b7f3" stroke="black" stroke-width="0.5" d="M190,-143.22C190,-144.44 177.9,-145.43 163,-145.43 148.1,-145.43 136,-144.44 136,-143.22 136,-143.22 136,-123.25 136,-123.25 136,-122.02 148.1,-121.03 163,-121.03 177.9,-121.03 190,-122.02 190,-123.25 190,-123.25 190,-143.22 190,-143.22"/>
<path fill="none" stroke="black" stroke-width="0.5" d="M190,-143.22C190,-141.99 177.9,-141 163,-141 148.1,-141 136,-141.99 136,-143.22"/>
<text text-anchor="middle" x="163" y="-129.56" font-family="Helvetica,sans-Serif" font-size="9.00">mC4</text>
</g>
<!-- mc4&#45;&gt;mt0 -->
<g id="edge4" class="edge">
<title>mc4&#45;&gt;mt0</title>
<path fill="none" stroke="#545454" stroke-width="0.75" d="M163,-121.15C163,-102.54 163,-69 163,-69 163,-69 130.51,-69 130.51,-69"/>
<polygon fill="#545454" stroke="#545454" stroke-width="0.75" points="130.51,-66.38 123.01,-69 130.51,-71.63 130.51,-66.38"/>
</g>
</g>
</svg>
