<?xml version="1.0" encoding="UTF-8" standalone="no"?>
<!DOCTYPE svg PUBLIC "-//W3C//DTD SVG 1.1//EN"
 "http://www.w3.org/Graphics/SVG/1.1/DTD/svg11.dtd">
<!-- Generated by graphviz version 11.0.0 (20240428.1522)
 -->
<!-- Pages: 1 -->
<svg width="198pt" height="99pt"
 viewBox="0.00 0.00 198.00 99.43" xmlns="http://www.w3.org/2000/svg" xmlns:xlink="http://www.w3.org/1999/xlink">
<g id="graph0" class="graph" transform="scale(1 1) rotate(0) translate(4 95.43)">
<polygon fill="white" stroke="none" points="-4,4 -4,-95.43 194,-95.43 194,4 -4,4"/>
<!-- mt0 -->
<g id="node1" class="node">
<title>mt0</title>
<path fill="#cbc3e3" stroke="black" stroke-width="0.5" d="M116.72,-22.44C116.72,-22.44 100.38,-28.9 100.38,-28.9 97.69,-29.96 92.31,-29.96 89.62,-28.9 89.62,-28.9 73.28,-22.44 73.28,-22.44 70.59,-21.37 67.91,-17.42 67.91,-14.53 67.91,-14.53 67.92,-8.74 67.92,-8.74 67.93,-5.85 70.82,-2.96 73.71,-2.96 73.71,-2.96 116.29,-2.96 116.29,-2.96 119.18,-2.96 122.07,-5.85 122.08,-8.74 122.08,-8.74 122.09,-14.53 122.09,-14.53 122.09,-17.42 119.41,-21.37 116.72,-22.44"/>
<text text-anchor="middle" x="95" y="-11.84" font-family="Helvetica,sans-Serif" font-size="9.00">mt0</text>
</g>
<!-- xp3 -->
<g id="node2" class="node">
<title>xp3</title>
<path fill="#e0b7f3" stroke="black" stroke-width="0.5" d="M54,-89.22C54,-90.44 41.9,-91.43 27,-91.43 12.1,-91.43 0,-90.44 0,-89.22 0,-89.22 0,-69.25 0,-69.25 0,-68.02 12.1,-67.03 27,-67.03 41.9,-67.03 54,-68.02 54,-69.25 54,-69.25 54,-89.22 54,-89.22"/>
<path fill="none" stroke="black" stroke-width="0.5" d="M54,-89.22C54,-87.99 41.9,-87 27,-87 12.1,-87 0,-87.99 0,-89.22"/>
<text text-anchor="middle" x="27" y="-75.56" font-family="Helvetica,sans-Serif" font-size="9.00">xP3</text>
</g>
<!-- xp3&#45;&gt;mt0 -->
<g id="edge1" class="edge">
<title>xp3&#45;&gt;mt0</title>
<path fill="none" stroke="#545454" stroke-width="0.75" d="M27,-67.15C27,-48.54 27,-15 27,-15 27,-15 59.49,-15 59.49,-15"/>
<polygon fill="#545454" stroke="#545454" stroke-width="0.75" points="59.49,-17.63 66.99,-15 59.49,-12.38 59.49,-17.63"/>
</g>
<!-- xp3&#45;all -->
<g id="node3" class="node">
<title>xp3&#45;all</title>
<path fill="#e0b7f3" stroke="black" stroke-width="0.5" d="M122,-89.22C122,-90.44 109.9,-91.43 95,-91.43 80.1,-91.43 68,-90.44 68,-89.22 68,-89.22 68,-69.25 68,-69.25 68,-68.02 80.1,-67.03 95,-67.03 109.9,-67.03 122,-68.02 122,-69.25 122,-69.25 122,-89.22 122,-89.22"/>
<path fill="none" stroke="black" stroke-width="0.5" d="M122,-89.22C122,-87.99 109.9,-87 95,-87 80.1,-87 68,-87.99 68,-89.22"/>
<text text-anchor="middle" x="95" y="-75.56" font-family="Helvetica,sans-Serif" font-size="9.00">xP3all</text>
</g>
<!-- xp3&#45;all&#45;&gt;mt0 -->
<g id="edge2" class="edge">
<title>xp3&#45;all&#45;&gt;mt0</title>
<path fill="none" stroke="#545454" stroke-width="0.75" d="M95,-67.25C95,-67.25 95,-39.23 95,-39.23"/>
<polygon fill="#545454" stroke="#545454" stroke-width="0.75" points="97.63,-39.23 95,-31.73 92.38,-39.23 97.63,-39.23"/>
</g>
<!-- mc4 -->
<g id="node4" class="node">
<title>mc4</title>
<path fill="#e0b7f3" stroke="black" stroke-width="0.5" d="M190,-89.22C190,-90.44 177.9,-91.43 163,-91.43 148.1,-91.43 136,-90.44 136,-89.22 136,-89.22 136,-69.25 136,-69.25 136,-68.02 148.1,-67.03 163,-67.03 177.9,-67.03 190,-68.02 190,-69.25 190,-69.25 190,-89.22 190,-89.22"/>
<path fill="none" stroke="black" stroke-width="0.5" d="M190,-89.22C190,-87.99 177.9,-87 163,-87 148.1,-87 136,-87.99 136,-89.22"/>
<text text-anchor="middle" x="163" y="-75.56" font-family="Helvetica,sans-Serif" font-size="9.00">mC4</text>
</g>
<!-- mc4&#45;&gt;mt0 -->
<g id="edge3" class="edge">
<title>mc4&#45;&gt;mt0</title>
<path fill="none" stroke="#545454" stroke-width="0.75" d="M163,-67.15C163,-48.54 163,-15 163,-15 163,-15 130.51,-15 130.51,-15"/>
<polygon fill="#545454" stroke="#545454" stroke-width="0.75" points="130.51,-12.38 123.01,-15 130.51,-17.63 130.51,-12.38"/>
</g>
</g>
</svg>
