<?xml version="1.0" encoding="UTF-8" standalone="no"?>
<!DOCTYPE svg PUBLIC "-//W3C//DTD SVG 1.1//EN"
 "http://www.w3.org/Graphics/SVG/1.1/DTD/svg11.dtd">
<!-- Generated by graphviz version 11.0.0 (20240428.1522)
 -->
<!-- Pages: 1 -->
<svg width="63pt" height="140pt"
 viewBox="0.00 0.00 63.00 140.41" xmlns="http://www.w3.org/2000/svg" xmlns:xlink="http://www.w3.org/1999/xlink">
<g id="graph0" class="graph" transform="scale(1 1) rotate(0) translate(4 136.41)">
<polygon fill="white" stroke="none" points="-4,4 -4,-136.41 59,-136.41 59,4 -4,4"/>
<!-- mt5 -->
<g id="node1" class="node">
<title>mt5</title>
<path fill="#800080" stroke="black" stroke-width="0.5" d="M48.5,-72C48.5,-72 6.5,-72 6.5,-72 3.5,-72 0.5,-69 0.5,-66 0.5,-66 0.5,-60 0.5,-60 0.5,-57 3.5,-54 6.5,-54 6.5,-54 48.5,-54 48.5,-54 51.5,-54 54.5,-57 54.5,-60 54.5,-60 54.5,-66 54.5,-66 54.5,-69 51.5,-72 48.5,-72"/>
<text text-anchor="middle" x="27.5" y="-59.33" font-family="Helvetica,sans-Serif" font-size="9.00" fill="#ffffff">mT5</text>
</g>
<!-- mt5&#45;large -->
<g id="node2" class="node">
<title>mt5&#45;large</title>
<path fill="#800080" stroke="black" stroke-width="0.5" d="M49,-18C49,-18 6,-18 6,-18 3,-18 0,-15 0,-12 0,-12 0,-6 0,-6 0,-3 3,0 6,0 6,0 49,0 49,0 52,0 55,-3 55,-6 55,-6 55,-12 55,-12 55,-15 52,-18 49,-18"/>
<text text-anchor="middle" x="27.5" y="-5.33" font-family="Helvetica,sans-Serif" font-size="9.00" fill="#ffffff">mt5&#45;large</text>
</g>
<!-- mt5&#45;&gt;mt5&#45;large -->
<g id="edge1" class="edge">
<title>mt5&#45;&gt;mt5&#45;large</title>
<path fill="none" stroke="#545454" stroke-width="0.75" d="M27.5,-54.08C27.5,-54.08 27.5,-26.39 27.5,-26.39"/>
<polygon fill="#545454" stroke="#545454" stroke-width="0.75" points="30.13,-26.39 27.5,-18.89 24.88,-26.39 30.13,-26.39"/>
</g>
<!-- mc4 -->
<g id="node3" class="node">
<title>mc4</title>
<path fill="#e0b7f3" stroke="black" stroke-width="0.5" d="M54.5,-130.19C54.5,-131.41 42.4,-132.41 27.5,-132.41 12.6,-132.41 0.5,-131.41 0.5,-130.19 0.5,-130.19 0.5,-110.22 0.5,-110.22 0.5,-108.99 12.6,-108 27.5,-108 42.4,-108 54.5,-108.99 54.5,-110.22 54.5,-110.22 54.5,-130.19 54.5,-130.19"/>
<path fill="none" stroke="black" stroke-width="0.5" d="M54.5,-130.19C54.5,-128.96 42.4,-127.97 27.5,-127.97 12.6,-127.97 0.5,-128.96 0.5,-130.19"/>
<text text-anchor="middle" x="27.5" y="-116.53" font-family="Helvetica,sans-Serif" font-size="9.00">mC4</text>
</g>
<!-- mc4&#45;&gt;mt5 -->
<g id="edge2" class="edge">
<title>mc4&#45;&gt;mt5</title>
<path fill="none" stroke="#545454" stroke-width="0.75" d="M27.5,-108.07C27.5,-108.07 27.5,-80.39 27.5,-80.39"/>
<polygon fill="#545454" stroke="#545454" stroke-width="0.75" points="30.13,-80.39 27.5,-72.89 24.88,-80.39 30.13,-80.39"/>
</g>
</g>
</svg>
