<?xml version="1.0" encoding="UTF-8" standalone="no"?>
<!DOCTYPE svg PUBLIC "-//W3C//DTD SVG 1.1//EN"
 "http://www.w3.org/Graphics/SVG/1.1/DTD/svg11.dtd">
<!-- Generated by graphviz version 11.0.0 (20240428.1522)
 -->
<!-- Pages: 1 -->
<svg width="64pt" height="140pt"
 viewBox="0.00 0.00 63.75 140.41" xmlns="http://www.w3.org/2000/svg" xmlns:xlink="http://www.w3.org/1999/xlink">
<g id="graph0" class="graph" transform="scale(1 1) rotate(0) translate(4 136.41)">
<polygon fill="white" stroke="none" points="-4,4 -4,-136.41 59.75,-136.41 59.75,4 -4,4"/>
<!-- mt5&#45;small -->
<g id="node1" class="node">
<title>mt5&#45;small</title>
<path fill="#800080" stroke="black" stroke-width="0.5" d="M49.75,-18C49.75,-18 6,-18 6,-18 3,-18 0,-15 0,-12 0,-12 0,-6 0,-6 0,-3 3,0 6,0 6,0 49.75,0 49.75,0 52.75,0 55.75,-3 55.75,-6 55.75,-6 55.75,-12 55.75,-12 55.75,-15 52.75,-18 49.75,-18"/>
<text text-anchor="middle" x="27.88" y="-5.33" font-family="Helvetica,sans-Serif" font-size="9.00" fill="#ffffff">mt5&#45;small</text>
</g>
<!-- mc4 -->
<g id="node2" class="node">
<title>mc4</title>
<path fill="#e0b7f3" stroke="black" stroke-width="0.5" d="M54.88,-130.19C54.88,-131.41 42.77,-132.41 27.88,-132.41 12.98,-132.41 0.88,-131.41 0.88,-130.19 0.88,-130.19 0.88,-110.22 0.88,-110.22 0.88,-108.99 12.98,-108 27.88,-108 42.77,-108 54.88,-108.99 54.88,-110.22 54.88,-110.22 54.88,-130.19 54.88,-130.19"/>
<path fill="none" stroke="black" stroke-width="0.5" d="M54.88,-130.19C54.88,-128.96 42.77,-127.97 27.88,-127.97 12.98,-127.97 0.88,-128.96 0.88,-130.19"/>
<text text-anchor="middle" x="27.88" y="-116.53" font-family="Helvetica,sans-Serif" font-size="9.00">mC4</text>
</g>
<!-- mt5 -->
<g id="node3" class="node">
<title>mt5</title>
<path fill="#800080" stroke="black" stroke-width="0.5" d="M48.88,-72C48.88,-72 6.88,-72 6.88,-72 3.88,-72 0.88,-69 0.88,-66 0.88,-66 0.88,-60 0.88,-60 0.88,-57 3.88,-54 6.88,-54 6.88,-54 48.88,-54 48.88,-54 51.88,-54 54.88,-57 54.88,-60 54.88,-60 54.88,-66 54.88,-66 54.88,-69 51.88,-72 48.88,-72"/>
<text text-anchor="middle" x="27.88" y="-59.33" font-family="Helvetica,sans-Serif" font-size="9.00" fill="#ffffff">mT5</text>
</g>
<!-- mc4&#45;&gt;mt5 -->
<g id="edge1" class="edge">
<title>mc4&#45;&gt;mt5</title>
<path fill="none" stroke="#545454" stroke-width="0.75" d="M27.88,-108.07C27.88,-108.07 27.88,-80.39 27.88,-80.39"/>
<polygon fill="#545454" stroke="#545454" stroke-width="0.75" points="30.5,-80.39 27.88,-72.89 25.25,-80.39 30.5,-80.39"/>
</g>
<!-- mt5&#45;&gt;mt5&#45;small -->
<g id="edge2" class="edge">
<title>mt5&#45;&gt;mt5&#45;small</title>
<path fill="none" stroke="#545454" stroke-width="0.75" d="M27.88,-54.08C27.88,-54.08 27.88,-26.39 27.88,-26.39"/>
<polygon fill="#545454" stroke="#545454" stroke-width="0.75" points="30.5,-26.39 27.88,-18.89 25.25,-26.39 30.5,-26.39"/>
</g>
</g>
</svg>
