<?xml version="1.0" encoding="UTF-8" standalone="no"?>
<!DOCTYPE svg PUBLIC "-//W3C//DTD SVG 1.1//EN"
 "http://www.w3.org/Graphics/SVG/1.1/DTD/svg11.dtd">
<!-- Generated by graphviz version 11.0.0 (20240428.1522)
 -->
<!-- Pages: 1 -->
<svg width="62pt" height="140pt"
 viewBox="0.00 0.00 62.25 140.41" xmlns="http://www.w3.org/2000/svg" xmlns:xlink="http://www.w3.org/1999/xlink">
<g id="graph0" class="graph" transform="scale(1 1) rotate(0) translate(4 136.41)">
<polygon fill="white" stroke="none" points="-4,4 -4,-136.41 58.25,-136.41 58.25,4 -4,4"/>
<!-- mt5 -->
<g id="node1" class="node">
<title>mt5</title>
<path fill="#800080" stroke="black" stroke-width="0.5" d="M48.12,-72C48.12,-72 6.13,-72 6.13,-72 3.13,-72 0.12,-69 0.12,-66 0.12,-66 0.12,-60 0.12,-60 0.12,-57 3.12,-54 6.12,-54 6.12,-54 48.12,-54 48.12,-54 51.12,-54 54.12,-57 54.12,-60 54.12,-60 54.12,-66 54.12,-66 54.12,-69 51.12,-72 48.12,-72"/>
<text text-anchor="middle" x="27.12" y="-59.33" font-family="Helvetica,sans-Serif" font-size="9.00" fill="#ffffff">mT5</text>
</g>
<!-- mt5&#45;base -->
<g id="node2" class="node">
<title>mt5&#45;base</title>
<path fill="#800080" stroke="black" stroke-width="0.5" d="M48.25,-18C48.25,-18 6,-18 6,-18 3,-18 0,-15 0,-12 0,-12 0,-6 0,-6 0,-3 3,0 6,0 6,0 48.25,0 48.25,0 51.25,0 54.25,-3 54.25,-6 54.25,-6 54.25,-12 54.25,-12 54.25,-15 51.25,-18 48.25,-18"/>
<text text-anchor="middle" x="27.12" y="-5.33" font-family="Helvetica,sans-Serif" font-size="9.00" fill="#ffffff">mt5&#45;base</text>
</g>
<!-- mt5&#45;&gt;mt5&#45;base -->
<g id="edge1" class="edge">
<title>mt5&#45;&gt;mt5&#45;base</title>
<path fill="none" stroke="#545454" stroke-width="0.75" d="M27.12,-54.08C27.12,-54.08 27.12,-26.39 27.12,-26.39"/>
<polygon fill="#545454" stroke="#545454" stroke-width="0.75" points="29.75,-26.39 27.13,-18.89 24.5,-26.39 29.75,-26.39"/>
</g>
<!-- mc4 -->
<g id="node3" class="node">
<title>mc4</title>
<path fill="#e0b7f3" stroke="black" stroke-width="0.5" d="M54.12,-130.19C54.12,-131.41 42.02,-132.41 27.12,-132.41 12.23,-132.41 0.12,-131.41 0.12,-130.19 0.12,-130.19 0.12,-110.22 0.12,-110.22 0.12,-108.99 12.23,-108 27.12,-108 42.02,-108 54.12,-108.99 54.12,-110.22 54.12,-110.22 54.12,-130.19 54.12,-130.19"/>
<path fill="none" stroke="black" stroke-width="0.5" d="M54.12,-130.19C54.12,-128.96 42.02,-127.97 27.12,-127.97 12.23,-127.97 0.12,-128.96 0.12,-130.19"/>
<text text-anchor="middle" x="27.12" y="-116.53" font-family="Helvetica,sans-Serif" font-size="9.00">mC4</text>
</g>
<!-- mc4&#45;&gt;mt5 -->
<g id="edge2" class="edge">
<title>mc4&#45;&gt;mt5</title>
<path fill="none" stroke="#545454" stroke-width="0.75" d="M27.12,-108.07C27.12,-108.07 27.12,-80.39 27.12,-80.39"/>
<polygon fill="#545454" stroke="#545454" stroke-width="0.75" points="29.75,-80.39 27.13,-72.89 24.5,-80.39 29.75,-80.39"/>
</g>
</g>
</svg>
