<?xml version="1.0" encoding="UTF-8" standalone="no"?>
<!DOCTYPE svg PUBLIC "-//W3C//DTD SVG 1.1//EN"
 "http://www.w3.org/Graphics/SVG/1.1/DTD/svg11.dtd">
<!-- Generated by graphviz version 11.0.0 (20240428.1522)
 -->
<!-- Pages: 1 -->
<svg width="62pt" height="140pt"
 viewBox="0.00 0.00 62.00 140.41" xmlns="http://www.w3.org/2000/svg" xmlns:xlink="http://www.w3.org/1999/xlink">
<g id="graph0" class="graph" transform="scale(1 1) rotate(0) translate(4 136.41)">
<polygon fill="white" stroke="none" points="-4,4 -4,-136.41 58,-136.41 58,4 -4,4"/>
<!-- mt5 -->
<g id="node1" class="node">
<title>mt5</title>
<path fill="#800080" stroke="black" stroke-width="0.5" d="M48,-72C48,-72 6,-72 6,-72 3,-72 0,-69 0,-66 0,-66 0,-60 0,-60 0,-57 3,-54 6,-54 6,-54 48,-54 48,-54 51,-54 54,-57 54,-60 54,-60 54,-66 54,-66 54,-69 51,-72 48,-72"/>
<text text-anchor="middle" x="27" y="-59.33" font-family="Helvetica,sans-Serif" font-size="9.00" fill="#ffffff">mT5</text>
</g>
<!-- mt5&#45;xl -->
<g id="node2" class="node">
<title>mt5&#45;xl</title>
<path fill="#800080" stroke="black" stroke-width="0.5" d="M48,-18C48,-18 6,-18 6,-18 3,-18 0,-15 0,-12 0,-12 0,-6 0,-6 0,-3 3,0 6,0 6,0 48,0 48,0 51,0 54,-3 54,-6 54,-6 54,-12 54,-12 54,-15 51,-18 48,-18"/>
<text text-anchor="middle" x="27" y="-5.33" font-family="Helvetica,sans-Serif" font-size="9.00" fill="#ffffff">mt5&#45;xl</text>
</g>
<!-- mt5&#45;&gt;mt5&#45;xl -->
<g id="edge1" class="edge">
<title>mt5&#45;&gt;mt5&#45;xl</title>
<path fill="none" stroke="#545454" stroke-width="0.75" d="M27,-54.08C27,-54.08 27,-26.39 27,-26.39"/>
<polygon fill="#545454" stroke="#545454" stroke-width="0.75" points="29.63,-26.39 27,-18.89 24.38,-26.39 29.63,-26.39"/>
</g>
<!-- mc4 -->
<g id="node3" class="node">
<title>mc4</title>
<path fill="#e0b7f3" stroke="black" stroke-width="0.5" d="M54,-130.19C54,-131.41 41.9,-132.41 27,-132.41 12.1,-132.41 0,-131.41 0,-130.19 0,-130.19 0,-110.22 0,-110.22 0,-108.99 12.1,-108 27,-108 41.9,-108 54,-108.99 54,-110.22 54,-110.22 54,-130.19 54,-130.19"/>
<path fill="none" stroke="black" stroke-width="0.5" d="M54,-130.19C54,-128.96 41.9,-127.97 27,-127.97 12.1,-127.97 0,-128.96 0,-130.19"/>
<text text-anchor="middle" x="27" y="-116.53" font-family="Helvetica,sans-Serif" font-size="9.00">mC4</text>
</g>
<!-- mc4&#45;&gt;mt5 -->
<g id="edge2" class="edge">
<title>mc4&#45;&gt;mt5</title>
<path fill="none" stroke="#545454" stroke-width="0.75" d="M27,-108.07C27,-108.07 27,-80.39 27,-80.39"/>
<polygon fill="#545454" stroke="#545454" stroke-width="0.75" points="29.63,-80.39 27,-72.89 24.38,-80.39 29.63,-80.39"/>
</g>
</g>
</svg>
