<?xml version="1.0" encoding="UTF-8" standalone="no"?>
<!DOCTYPE svg PUBLIC "-//W3C//DTD SVG 1.1//EN"
 "http://www.w3.org/Graphics/SVG/1.1/DTD/svg11.dtd">
<!-- Generated by graphviz version 11.0.0 (20240428.1522)
 -->
<!-- Pages: 1 -->
<svg width="62pt" height="86pt"
 viewBox="0.00 0.00 62.00 86.41" xmlns="http://www.w3.org/2000/svg" xmlns:xlink="http://www.w3.org/1999/xlink">
<g id="graph0" class="graph" transform="scale(1 1) rotate(0) translate(4 82.41)">
<polygon fill="white" stroke="none" points="-4,4 -4,-82.41 58,-82.41 58,4 -4,4"/>
<!-- mc4 -->
<g id="node1" class="node">
<title>mc4</title>
<path fill="#e0b7f3" stroke="black" stroke-width="0.5" d="M54,-76.19C54,-77.41 41.9,-78.41 27,-78.41 12.1,-78.41 0,-77.41 0,-76.19 0,-76.19 0,-56.22 0,-56.22 0,-54.99 12.1,-54 27,-54 41.9,-54 54,-54.99 54,-56.22 54,-56.22 54,-76.19 54,-76.19"/>
<path fill="none" stroke="black" stroke-width="0.5" d="M54,-76.19C54,-74.96 41.9,-73.97 27,-73.97 12.1,-73.97 0,-74.96 0,-76.19"/>
<text text-anchor="middle" x="27" y="-62.53" font-family="Helvetica,sans-Serif" font-size="9.00">mC4</text>
</g>
<!-- mt5 -->
<g id="node2" class="node">
<title>mt5</title>
<path fill="#800080" stroke="black" stroke-width="0.5" d="M48,-18C48,-18 6,-18 6,-18 3,-18 0,-15 0,-12 0,-12 0,-6 0,-6 0,-3 3,0 6,0 6,0 48,0 48,0 51,0 54,-3 54,-6 54,-6 54,-12 54,-12 54,-15 51,-18 48,-18"/>
<text text-anchor="middle" x="27" y="-5.33" font-family="Helvetica,sans-Serif" font-size="9.00" fill="#ffffff">mT5</text>
</g>
<!-- mc4&#45;&gt;mt5 -->
<g id="edge1" class="edge">
<title>mc4&#45;&gt;mt5</title>
<path fill="none" stroke="#545454" stroke-width="0.75" d="M27,-54.07C27,-54.07 27,-26.39 27,-26.39"/>
<polygon fill="#545454" stroke="#545454" stroke-width="0.75" points="29.63,-26.39 27,-18.89 24.38,-26.39 29.63,-26.39"/>
</g>
</g>
</svg>
