<?xml version="1.0" encoding="UTF-8" standalone="no"?>
<!DOCTYPE svg PUBLIC "-//W3C//DTD SVG 1.1//EN"
 "http://www.w3.org/Graphics/SVG/1.1/DTD/svg11.dtd">
<!-- Generated by graphviz version 11.0.0 (20240428.1522)
 -->
<!-- Pages: 1 -->
<svg width="83pt" height="153pt"
 viewBox="0.00 0.00 83.17 153.43" xmlns="http://www.w3.org/2000/svg" xmlns:xlink="http://www.w3.org/1999/xlink">
<g id="graph0" class="graph" transform="scale(1 1) rotate(0) translate(4 149.43)">
<polygon fill="white" stroke="none" points="-4,4 -4,-149.43 79.17,-149.43 79.17,4 -4,4"/>
<!-- laion -->
<g id="node1" class="node">
<title>laion</title>
<path fill="#cbc3e3" stroke="black" stroke-width="0.5" d="M69.61,-136.3C69.61,-136.3 43.14,-143.85 43.14,-143.85 40.36,-144.64 34.8,-144.64 32.02,-143.85 32.02,-143.85 5.56,-136.3 5.56,-136.3 2.78,-135.51 0.01,-131.82 0.01,-128.93 0.01,-128.93 0.02,-123.15 0.02,-123.15 0.03,-120.26 2.93,-117.37 5.82,-117.37 5.82,-117.37 69.35,-117.37 69.35,-117.37 72.24,-117.37 75.14,-120.26 75.14,-123.15 75.14,-123.15 75.16,-128.93 75.16,-128.93 75.16,-131.82 72.39,-135.51 69.61,-136.3"/>
<text text-anchor="middle" x="37.58" y="-126.25" font-family="Helvetica,sans-Serif" font-size="9.00">LAION</text>
</g>
<!-- laion&#45;5b -->
<g id="node2" class="node">
<title>laion&#45;5b</title>
<path fill="red" stroke="black" stroke-width="0.5" d="M65.83,-76.19C65.83,-77.41 53.17,-78.41 37.58,-78.41 22,-78.41 9.33,-77.41 9.33,-76.19 9.33,-76.19 9.33,-56.22 9.33,-56.22 9.33,-54.99 22,-54 37.58,-54 53.17,-54 65.83,-54.99 65.83,-56.22 65.83,-56.22 65.83,-76.19 65.83,-76.19"/>
<path fill="none" stroke="black" stroke-width="0.5" d="M65.83,-76.19C65.83,-74.96 53.17,-73.97 37.58,-73.97 22,-73.97 9.33,-74.96 9.33,-76.19"/>
<text text-anchor="middle" x="37.58" y="-62.53" font-family="Helvetica,sans-Serif" font-size="9.00">LAION 5B</text>
</g>
<!-- laion&#45;&gt;laion&#45;5b -->
<g id="edge1" class="edge">
<title>laion&#45;&gt;laion&#45;5b</title>
<path fill="none" stroke="#545454" stroke-width="0.75" d="M37.58,-117.64C37.58,-117.64 37.58,-86.66 37.58,-86.66"/>
<polygon fill="#545454" stroke="#545454" stroke-width="0.75" points="40.21,-86.66 37.58,-79.16 34.96,-86.66 40.21,-86.66"/>
</g>
<!-- plip -->
<g id="node3" class="node">
<title>plip</title>
<path fill="red" stroke="black" stroke-width="0.5" d="M58.58,-18C58.58,-18 16.58,-18 16.58,-18 13.58,-18 10.58,-15 10.58,-12 10.58,-12 10.58,-6 10.58,-6 10.58,-3 13.58,0 16.58,0 16.58,0 58.58,0 58.58,0 61.58,0 64.58,-3 64.58,-6 64.58,-6 64.58,-12 64.58,-12 64.58,-15 61.58,-18 58.58,-18"/>
<text text-anchor="middle" x="37.58" y="-5.33" font-family="Helvetica,sans-Serif" font-size="9.00" fill="#ffffff">PLIP</text>
</g>
<!-- laion&#45;5b&#45;&gt;plip -->
<g id="edge2" class="edge">
<title>laion&#45;5b&#45;&gt;plip</title>
<path fill="none" stroke="#545454" stroke-width="0.75" d="M37.58,-54.07C37.58,-54.07 37.58,-26.39 37.58,-26.39"/>
<polygon fill="#545454" stroke="#545454" stroke-width="0.75" points="40.21,-26.39 37.58,-18.89 34.96,-26.39 40.21,-26.39"/>
</g>
</g>
</svg>
