<?xml version="1.0" encoding="UTF-8" standalone="no"?>
<!DOCTYPE svg PUBLIC "-//W3C//DTD SVG 1.1//EN"
 "http://www.w3.org/Graphics/SVG/1.1/DTD/svg11.dtd">
<!-- Generated by graphviz version 11.0.0 (20240428.1522)
 -->
<!-- Pages: 1 -->
<svg width="267pt" height="153pt"
 viewBox="0.00 0.00 267.21 153.43" xmlns="http://www.w3.org/2000/svg" xmlns:xlink="http://www.w3.org/1999/xlink">
<g id="graph0" class="graph" transform="scale(1 1) rotate(0) translate(4 149.43)">
<polygon fill="white" stroke="none" points="-4,4 -4,-149.43 263.21,-149.43 263.21,4 -4,4"/>
<!-- WebImageText -->
<g id="node1" class="node">
<title>WebImageText</title>
<path fill="#e0b7f3" stroke="black" stroke-width="0.5" d="M81.25,-139.91C81.25,-141.13 63.04,-142.12 40.63,-142.12 18.21,-142.12 0,-141.13 0,-139.91 0,-139.91 0,-119.94 0,-119.94 0,-118.71 18.21,-117.72 40.63,-117.72 63.04,-117.72 81.25,-118.71 81.25,-119.94 81.25,-119.94 81.25,-139.91 81.25,-139.91"/>
<path fill="none" stroke="black" stroke-width="0.5" d="M81.25,-139.91C81.25,-138.68 63.04,-137.69 40.63,-137.69 18.21,-137.69 0,-138.68 0,-139.91"/>
<text text-anchor="middle" x="40.63" y="-126.25" font-family="Helvetica,sans-Serif" font-size="9.00">Web Image Text</text>
</g>
<!-- clip -->
<g id="node2" class="node">
<title>clip</title>
<path fill="#800080" stroke="black" stroke-width="0.5" d="M66.63,-75.2C66.63,-75.2 24.63,-75.2 24.63,-75.2 21.63,-75.2 18.63,-72.2 18.63,-69.2 18.63,-69.2 18.63,-63.2 18.63,-63.2 18.63,-60.2 21.63,-57.2 24.63,-57.2 24.63,-57.2 66.63,-57.2 66.63,-57.2 69.63,-57.2 72.63,-60.2 72.63,-63.2 72.63,-63.2 72.63,-69.2 72.63,-69.2 72.63,-72.2 69.63,-75.2 66.63,-75.2"/>
<text text-anchor="middle" x="45.63" y="-62.53" font-family="Helvetica,sans-Serif" font-size="9.00" fill="#ffffff">CLIP</text>
</g>
<!-- WebImageText&#45;&gt;clip -->
<g id="edge1" class="edge">
<title>WebImageText&#45;&gt;clip</title>
<path fill="none" stroke="#545454" stroke-width="0.75" d="M45.63,-117.94C45.63,-117.94 45.63,-83.5 45.63,-83.5"/>
<polygon fill="#545454" stroke="#545454" stroke-width="0.75" points="48.25,-83.5 45.63,-76 43,-83.5 48.25,-83.5"/>
</g>
<!-- plip -->
<g id="node3" class="node">
<title>plip</title>
<path fill="#800080" stroke="black" stroke-width="0.5" d="M153.63,-18C153.63,-18 111.63,-18 111.63,-18 108.63,-18 105.63,-15 105.63,-12 105.63,-12 105.63,-6 105.63,-6 105.63,-3 108.63,0 111.63,0 111.63,0 153.63,0 153.63,0 156.63,0 159.63,-3 159.63,-6 159.63,-6 159.63,-12 159.63,-12 159.63,-15 156.63,-18 153.63,-18"/>
<text text-anchor="middle" x="132.63" y="-5.33" font-family="Helvetica,sans-Serif" font-size="9.00" fill="#ffffff">PLIP</text>
</g>
<!-- clip&#45;&gt;plip -->
<g id="edge2" class="edge">
<title>clip&#45;&gt;plip</title>
<path fill="none" stroke="#545454" stroke-width="0.75" d="M45.63,-57.27C45.63,-41.18 45.63,-9 45.63,-9 45.63,-9 97.42,-9 97.42,-9"/>
<polygon fill="#545454" stroke="#545454" stroke-width="0.75" points="97.42,-11.63 104.92,-9 97.42,-6.38 97.42,-11.63"/>
</g>
<!-- pathology&#45;twitter -->
<g id="node4" class="node">
<title>pathology&#45;twitter</title>
<path fill="#e0b7f3" stroke="black" stroke-width="0.5" d="M174.38,-76.19C174.38,-77.41 155.66,-78.41 132.63,-78.41 109.59,-78.41 90.88,-77.41 90.88,-76.19 90.88,-76.19 90.88,-56.22 90.88,-56.22 90.88,-54.99 109.59,-54 132.63,-54 155.66,-54 174.38,-54.99 174.38,-56.22 174.38,-56.22 174.38,-76.19 174.38,-76.19"/>
<path fill="none" stroke="black" stroke-width="0.5" d="M174.38,-76.19C174.38,-74.96 155.66,-73.97 132.63,-73.97 109.59,-73.97 90.88,-74.96 90.88,-76.19"/>
<text text-anchor="middle" x="132.63" y="-62.53" font-family="Helvetica,sans-Serif" font-size="9.00">Pathology twitter</text>
</g>
<!-- pathology&#45;twitter&#45;&gt;plip -->
<g id="edge3" class="edge">
<title>pathology&#45;twitter&#45;&gt;plip</title>
<path fill="none" stroke="#545454" stroke-width="0.75" d="M132.63,-54.07C132.63,-54.07 132.63,-26.39 132.63,-26.39"/>
<polygon fill="#545454" stroke="#545454" stroke-width="0.75" points="135.25,-26.39 132.63,-18.89 130,-26.39 135.25,-26.39"/>
</g>
<!-- laion&#45;5b -->
<g id="node5" class="node">
<title>laion&#45;5b</title>
<path fill="#e0b7f3" stroke="black" stroke-width="0.5" d="M246.88,-76.19C246.88,-77.41 234.21,-78.41 218.63,-78.41 203.04,-78.41 190.38,-77.41 190.38,-76.19 190.38,-76.19 190.38,-56.22 190.38,-56.22 190.38,-54.99 203.04,-54 218.63,-54 234.21,-54 246.88,-54.99 246.88,-56.22 246.88,-56.22 246.88,-76.19 246.88,-76.19"/>
<path fill="none" stroke="black" stroke-width="0.5" d="M246.88,-76.19C246.88,-74.96 234.21,-73.97 218.63,-73.97 203.04,-73.97 190.38,-74.96 190.38,-76.19"/>
<text text-anchor="middle" x="218.63" y="-62.53" font-family="Helvetica,sans-Serif" font-size="9.00">LAION 5B</text>
</g>
<!-- laion&#45;5b&#45;&gt;plip -->
<g id="edge4" class="edge">
<title>laion&#45;5b&#45;&gt;plip</title>
<path fill="none" stroke="#545454" stroke-width="0.75" d="M218.63,-54.07C218.63,-37.28 218.63,-9 218.63,-9 218.63,-9 168,-9 168,-9"/>
<polygon fill="#545454" stroke="#545454" stroke-width="0.75" points="168,-6.38 160.5,-9 168,-11.63 168,-6.38"/>
</g>
<!-- twitter -->
<g id="node6" class="node">
<title>twitter</title>
<path fill="#cbc3e3" stroke="black" stroke-width="0.5" d="M164,-136.33C164,-136.33 138.18,-143.82 138.18,-143.82 135.4,-144.63 129.85,-144.63 127.07,-143.82 127.07,-143.82 101.25,-136.33 101.25,-136.33 98.47,-135.52 95.7,-131.82 95.71,-128.93 95.71,-128.93 95.72,-123.15 95.72,-123.15 95.73,-120.26 98.62,-117.37 101.51,-117.37 101.51,-117.37 163.74,-117.37 163.74,-117.37 166.63,-117.37 169.53,-120.26 169.53,-123.15 169.53,-123.15 169.54,-128.93 169.54,-128.93 169.55,-131.82 166.78,-135.52 164,-136.33"/>
<text text-anchor="middle" x="132.63" y="-126.25" font-family="Helvetica,sans-Serif" font-size="9.00">Twitter</text>
</g>
<!-- twitter&#45;&gt;pathology&#45;twitter -->
<g id="edge5" class="edge">
<title>twitter&#45;&gt;pathology&#45;twitter</title>
<path fill="none" stroke="#545454" stroke-width="0.75" d="M132.63,-117.64C132.63,-117.64 132.63,-86.66 132.63,-86.66"/>
<polygon fill="#545454" stroke="#545454" stroke-width="0.75" points="135.25,-86.66 132.63,-79.16 130,-86.66 135.25,-86.66"/>
</g>
<!-- laion -->
<g id="node7" class="node">
<title>laion</title>
<path fill="#cbc3e3" stroke="black" stroke-width="0.5" d="M253.65,-136.3C253.65,-136.3 227.19,-143.85 227.19,-143.85 224.41,-144.64 218.85,-144.64 216.07,-143.85 216.07,-143.85 189.6,-136.3 189.6,-136.3 186.82,-135.51 184.05,-131.82 184.05,-128.93 184.05,-128.93 184.07,-123.15 184.07,-123.15 184.07,-120.26 186.97,-117.37 189.86,-117.37 189.86,-117.37 253.39,-117.37 253.39,-117.37 256.28,-117.37 259.18,-120.26 259.19,-123.15 259.19,-123.15 259.2,-128.93 259.2,-128.93 259.2,-131.82 256.43,-135.51 253.65,-136.3"/>
<text text-anchor="middle" x="221.63" y="-126.25" font-family="Helvetica,sans-Serif" font-size="9.00">LAION</text>
</g>
<!-- laion&#45;&gt;laion&#45;5b -->
<g id="edge6" class="edge">
<title>laion&#45;&gt;laion&#45;5b</title>
<path fill="none" stroke="#545454" stroke-width="0.75" d="M218.63,-117.64C218.63,-117.64 218.63,-86.66 218.63,-86.66"/>
<polygon fill="#545454" stroke="#545454" stroke-width="0.75" points="221.25,-86.66 218.63,-79.16 216,-86.66 221.25,-86.66"/>
</g>
</g>
</svg>
