<?xml version="1.0" encoding="UTF-8" standalone="no"?>
<!DOCTYPE svg PUBLIC "-//W3C//DTD SVG 1.1//EN"
 "http://www.w3.org/Graphics/SVG/1.1/DTD/svg11.dtd">
<!-- Generated by graphviz version 11.0.0 (20240428.1522)
 -->
<!-- Pages: 1 -->
<svg width="267pt" height="153pt"
 viewBox="0.00 0.00 266.51 153.43" xmlns="http://www.w3.org/2000/svg" xmlns:xlink="http://www.w3.org/1999/xlink">
<g id="graph0" class="graph" transform="scale(1 1) rotate(0) translate(4 149.43)">
<polygon fill="white" stroke="none" points="-4,4 -4,-149.43 262.51,-149.43 262.51,4 -4,4"/>
<!-- twitter -->
<g id="node1" class="node">
<title>twitter</title>
<path fill="#cbc3e3" stroke="black" stroke-width="0.5" d="M68.31,-136.33C68.31,-136.33 42.48,-143.82 42.48,-143.82 39.71,-144.63 34.15,-144.63 31.38,-143.82 31.38,-143.82 5.55,-136.33 5.55,-136.33 2.78,-135.52 0.01,-131.82 0.01,-128.93 0.01,-128.93 0.02,-123.15 0.02,-123.15 0.03,-120.26 2.93,-117.37 5.82,-117.37 5.82,-117.37 68.04,-117.37 68.04,-117.37 70.93,-117.37 73.83,-120.26 73.83,-123.15 73.83,-123.15 73.85,-128.93 73.85,-128.93 73.85,-131.82 71.08,-135.52 68.31,-136.33"/>
<text text-anchor="middle" x="36.93" y="-126.25" font-family="Helvetica,sans-Serif" font-size="9.00">Twitter</text>
</g>
<!-- pathology&#45;twitter -->
<g id="node2" class="node">
<title>pathology&#45;twitter</title>
<path fill="#e0b7f3" stroke="black" stroke-width="0.5" d="M83.68,-76.19C83.68,-77.41 64.97,-78.41 41.93,-78.41 18.89,-78.41 0.18,-77.41 0.18,-76.19 0.18,-76.19 0.18,-56.22 0.18,-56.22 0.18,-54.99 18.89,-54 41.93,-54 64.97,-54 83.68,-54.99 83.68,-56.22 83.68,-56.22 83.68,-76.19 83.68,-76.19"/>
<path fill="none" stroke="black" stroke-width="0.5" d="M83.68,-76.19C83.68,-74.96 64.97,-73.97 41.93,-73.97 18.89,-73.97 0.18,-74.96 0.18,-76.19"/>
<text text-anchor="middle" x="41.93" y="-62.53" font-family="Helvetica,sans-Serif" font-size="9.00">Pathology twitter</text>
</g>
<!-- twitter&#45;&gt;pathology&#45;twitter -->
<g id="edge1" class="edge">
<title>twitter&#45;&gt;pathology&#45;twitter</title>
<path fill="none" stroke="#545454" stroke-width="0.75" d="M37.02,-117.64C37.02,-117.64 37.02,-86.66 37.02,-86.66"/>
<polygon fill="#545454" stroke="#545454" stroke-width="0.75" points="39.64,-86.66 37.02,-79.16 34.39,-86.66 39.64,-86.66"/>
</g>
<!-- plip -->
<g id="node3" class="node">
<title>plip</title>
<path fill="#800080" stroke="black" stroke-width="0.5" d="M149.93,-18C149.93,-18 107.93,-18 107.93,-18 104.93,-18 101.93,-15 101.93,-12 101.93,-12 101.93,-6 101.93,-6 101.93,-3 104.93,0 107.93,0 107.93,0 149.93,0 149.93,0 152.93,0 155.93,-3 155.93,-6 155.93,-6 155.93,-12 155.93,-12 155.93,-15 152.93,-18 149.93,-18"/>
<text text-anchor="middle" x="128.93" y="-5.33" font-family="Helvetica,sans-Serif" font-size="9.00" fill="#ffffff">PLIP</text>
</g>
<!-- pathology&#45;twitter&#45;&gt;plip -->
<g id="edge2" class="edge">
<title>pathology&#45;twitter&#45;&gt;plip</title>
<path fill="none" stroke="#545454" stroke-width="0.75" d="M41.93,-54.07C41.93,-37.28 41.93,-9 41.93,-9 41.93,-9 93.72,-9 93.72,-9"/>
<polygon fill="#545454" stroke="#545454" stroke-width="0.75" points="93.72,-11.63 101.22,-9 93.72,-6.38 93.72,-11.63"/>
</g>
<!-- clip -->
<g id="node4" class="node">
<title>clip</title>
<path fill="#800080" stroke="black" stroke-width="0.5" d="M149.93,-75.2C149.93,-75.2 107.93,-75.2 107.93,-75.2 104.93,-75.2 101.93,-72.2 101.93,-69.2 101.93,-69.2 101.93,-63.2 101.93,-63.2 101.93,-60.2 104.93,-57.2 107.93,-57.2 107.93,-57.2 149.93,-57.2 149.93,-57.2 152.93,-57.2 155.93,-60.2 155.93,-63.2 155.93,-63.2 155.93,-69.2 155.93,-69.2 155.93,-72.2 152.93,-75.2 149.93,-75.2"/>
<text text-anchor="middle" x="128.93" y="-62.53" font-family="Helvetica,sans-Serif" font-size="9.00" fill="#ffffff">CLIP</text>
</g>
<!-- clip&#45;&gt;plip -->
<g id="edge3" class="edge">
<title>clip&#45;&gt;plip</title>
<path fill="none" stroke="#545454" stroke-width="0.75" d="M128.93,-57.27C128.93,-57.27 128.93,-26.32 128.93,-26.32"/>
<polygon fill="#545454" stroke="#545454" stroke-width="0.75" points="131.55,-26.32 128.93,-18.82 126.3,-26.32 131.55,-26.32"/>
</g>
<!-- laion -->
<g id="node5" class="node">
<title>laion</title>
<path fill="#cbc3e3" stroke="black" stroke-width="0.5" d="M252.95,-136.3C252.95,-136.3 226.49,-143.85 226.49,-143.85 223.71,-144.64 218.15,-144.64 215.37,-143.85 215.37,-143.85 188.9,-136.3 188.9,-136.3 186.12,-135.51 183.35,-131.82 183.36,-128.93 183.36,-128.93 183.37,-123.15 183.37,-123.15 183.37,-120.26 186.27,-117.37 189.16,-117.37 189.16,-117.37 252.7,-117.37 252.7,-117.37 255.59,-117.37 258.48,-120.26 258.49,-123.15 258.49,-123.15 258.5,-128.93 258.5,-128.93 258.51,-131.82 255.73,-135.51 252.95,-136.3"/>
<text text-anchor="middle" x="220.93" y="-126.25" font-family="Helvetica,sans-Serif" font-size="9.00">LAION</text>
</g>
<!-- laion&#45;5b -->
<g id="node6" class="node">
<title>laion&#45;5b</title>
<path fill="#e0b7f3" stroke="black" stroke-width="0.5" d="M237.18,-76.19C237.18,-77.41 224.52,-78.41 208.93,-78.41 193.34,-78.41 180.68,-77.41 180.68,-76.19 180.68,-76.19 180.68,-56.22 180.68,-56.22 180.68,-54.99 193.34,-54 208.93,-54 224.52,-54 237.18,-54.99 237.18,-56.22 237.18,-56.22 237.18,-76.19 237.18,-76.19"/>
<path fill="none" stroke="black" stroke-width="0.5" d="M237.18,-76.19C237.18,-74.96 224.52,-73.97 208.93,-73.97 193.34,-73.97 180.68,-74.96 180.68,-76.19"/>
<text text-anchor="middle" x="208.93" y="-62.53" font-family="Helvetica,sans-Serif" font-size="9.00">LAION 5B</text>
</g>
<!-- laion&#45;&gt;laion&#45;5b -->
<g id="edge4" class="edge">
<title>laion&#45;&gt;laion&#45;5b</title>
<path fill="none" stroke="#545454" stroke-width="0.75" d="M210.26,-117.64C210.26,-117.64 210.26,-86.66 210.26,-86.66"/>
<polygon fill="#545454" stroke="#545454" stroke-width="0.75" points="212.89,-86.66 210.26,-79.16 207.64,-86.66 212.89,-86.66"/>
</g>
<!-- laion&#45;5b&#45;&gt;plip -->
<g id="edge5" class="edge">
<title>laion&#45;5b&#45;&gt;plip</title>
<path fill="none" stroke="#545454" stroke-width="0.75" d="M208.93,-54.07C208.93,-37.28 208.93,-9 208.93,-9 208.93,-9 164.2,-9 164.2,-9"/>
<polygon fill="#545454" stroke="#545454" stroke-width="0.75" points="164.2,-6.38 156.7,-9 164.2,-11.63 164.2,-6.38"/>
</g>
<!-- WebImageText -->
<g id="node7" class="node">
<title>WebImageText</title>
<path fill="#e0b7f3" stroke="black" stroke-width="0.5" d="M169.55,-139.91C169.55,-141.13 151.35,-142.12 128.93,-142.12 106.51,-142.12 88.3,-141.13 88.3,-139.91 88.3,-139.91 88.3,-119.94 88.3,-119.94 88.3,-118.71 106.51,-117.72 128.93,-117.72 151.35,-117.72 169.55,-118.71 169.55,-119.94 169.55,-119.94 169.55,-139.91 169.55,-139.91"/>
<path fill="none" stroke="black" stroke-width="0.5" d="M169.55,-139.91C169.55,-138.68 151.35,-137.69 128.93,-137.69 106.51,-137.69 88.3,-138.68 88.3,-139.91"/>
<text text-anchor="middle" x="128.93" y="-126.25" font-family="Helvetica,sans-Serif" font-size="9.00">Web Image Text</text>
</g>
<!-- WebImageText&#45;&gt;clip -->
<g id="edge6" class="edge">
<title>WebImageText&#45;&gt;clip</title>
<path fill="none" stroke="#545454" stroke-width="0.75" d="M128.93,-117.94C128.93,-117.94 128.93,-83.5 128.93,-83.5"/>
<polygon fill="#545454" stroke="#545454" stroke-width="0.75" points="131.55,-83.5 128.93,-76 126.3,-83.5 131.55,-83.5"/>
</g>
</g>
</svg>
