<?xml version="1.0" encoding="UTF-8" standalone="no"?>
<!DOCTYPE svg PUBLIC "-//W3C//DTD SVG 1.1//EN"
 "http://www.w3.org/Graphics/SVG/1.1/DTD/svg11.dtd">
<!-- Generated by graphviz version 11.0.0 (20240428.1522)
 -->
<!-- Pages: 1 -->
<svg width="155pt" height="32pt"
 viewBox="0.00 0.00 154.50 32.41" xmlns="http://www.w3.org/2000/svg" xmlns:xlink="http://www.w3.org/1999/xlink">
<g id="graph0" class="graph" transform="scale(1 1) rotate(0) translate(4 28.41)">
<polygon fill="white" stroke="none" points="-4,4 -4,-28.41 150.5,-28.41 150.5,4 -4,4"/>
<!-- roots -->
<g id="node1" class="node">
<title>roots</title>
<path fill="#e0b7f3" stroke="black" stroke-width="0.5" d="M146.5,-22.19C146.5,-23.41 113.67,-24.41 73.25,-24.41 32.83,-24.41 0,-23.41 0,-22.19 0,-22.19 0,-2.22 0,-2.22 0,-0.99 32.83,0 73.25,0 113.67,0 146.5,-0.99 146.5,-2.22 146.5,-2.22 146.5,-22.19 146.5,-22.19"/>
<path fill="none" stroke="black" stroke-width="0.5" d="M146.5,-22.19C146.5,-20.96 113.67,-19.97 73.25,-19.97 32.83,-19.97 0,-20.96 0,-22.19"/>
<text text-anchor="middle" x="73.25" y="-8.53" font-family="Helvetica,sans-Serif" font-size="9.00">The BigScience ROOTS Corpus</text>
</g>
</g>
</svg>
