<?xml version="1.0" encoding="UTF-8" standalone="no"?>
<!DOCTYPE svg PUBLIC "-//W3C//DTD SVG 1.1//EN"
 "http://www.w3.org/Graphics/SVG/1.1/DTD/svg11.dtd">
<!-- Generated by graphviz version 11.0.0 (20240428.1522)
 -->
<!-- Pages: 1 -->
<svg width="72pt" height="32pt"
 viewBox="0.00 0.00 72.00 32.41" xmlns="http://www.w3.org/2000/svg" xmlns:xlink="http://www.w3.org/1999/xlink">
<g id="graph0" class="graph" transform="scale(1 1) rotate(0) translate(4 28.41)">
<polygon fill="white" stroke="none" points="-4,4 -4,-28.41 68,-28.41 68,4 -4,4"/>
<!-- science&#45;qa -->
<g id="node1" class="node">
<title>science&#45;qa</title>
<path fill="red" stroke="black" stroke-width="0.5" d="M64,-22.19C64,-23.41 49.66,-24.41 32,-24.41 14.34,-24.41 0,-23.41 0,-22.19 0,-22.19 0,-2.22 0,-2.22 0,-0.99 14.34,0 32,0 49.66,0 64,-0.99 64,-2.22 64,-2.22 64,-22.19 64,-22.19"/>
<path fill="none" stroke="black" stroke-width="0.5" d="M64,-22.19C64,-20.96 49.66,-19.97 32,-19.97 14.34,-19.97 0,-20.96 0,-22.19"/>
<text text-anchor="middle" x="32" y="-8.53" font-family="Helvetica,sans-Serif" font-size="9.00">Science QA</text>
</g>
</g>
</svg>
