<?xml version="1.0" encoding="UTF-8" standalone="no"?>
<!DOCTYPE svg PUBLIC "-//W3C//DTD SVG 1.1//EN"
 "http://www.w3.org/Graphics/SVG/1.1/DTD/svg11.dtd">
<!-- Generated by graphviz version 11.0.0 (20240428.1522)
 -->
<!-- Pages: 1 -->
<svg width="293pt" height="227pt"
 viewBox="0.00 0.00 292.72 227.09" xmlns="http://www.w3.org/2000/svg" xmlns:xlink="http://www.w3.org/1999/xlink">
<g id="graph0" class="graph" transform="scale(1 1) rotate(0) translate(4 223.09)">
<polygon fill="white" stroke="none" points="-4,4 -4,-223.09 288.72,-223.09 288.72,4 -4,4"/>
<!-- vicuna -->
<g id="node1" class="node">
<title>vicuna</title>
<path fill="#cbc3e3" stroke="black" stroke-width="0.5" d="M72.21,-75.84C72.21,-75.84 44.47,-83.49 44.47,-83.49 41.68,-84.26 36.11,-84.26 33.32,-83.49 33.32,-83.49 5.57,-75.84 5.57,-75.84 2.79,-75.08 0.01,-71.42 0.01,-68.53 0.01,-68.53 0.02,-62.74 0.02,-62.74 0.03,-59.85 2.93,-56.96 5.82,-56.96 5.82,-56.96 71.97,-56.96 71.97,-56.96 74.86,-56.96 77.76,-59.85 77.76,-62.74 77.76,-62.74 77.78,-68.53 77.78,-68.53 77.78,-71.42 75,-75.08 72.21,-75.84"/>
<text text-anchor="middle" x="38.89" y="-65.84" font-family="Helvetica,sans-Serif" font-size="9.00">Vicuna</text>
</g>
<!-- vicuna&#45;13b -->
<g id="node2" class="node">
<title>vicuna&#45;13b</title>
<path fill="#800080" stroke="black" stroke-width="0.5" d="M168.89,-18C168.89,-18 116.89,-18 116.89,-18 113.89,-18 110.89,-15 110.89,-12 110.89,-12 110.89,-6 110.89,-6 110.89,-3 113.89,0 116.89,0 116.89,0 168.89,0 168.89,0 171.89,0 174.89,-3 174.89,-6 174.89,-6 174.89,-12 174.89,-12 174.89,-15 171.89,-18 168.89,-18"/>
<text text-anchor="middle" x="142.89" y="-5.33" font-family="Helvetica,sans-Serif" font-size="9.00" fill="#ffffff">Vicuna&#45;13B</text>
</g>
<!-- vicuna&#45;&gt;vicuna&#45;13b -->
<g id="edge1" class="edge">
<title>vicuna&#45;&gt;vicuna&#45;13b</title>
<path fill="none" stroke="#545454" stroke-width="0.75" d="M38.89,-56.98C38.89,-39.25 38.89,-9 38.89,-9 38.89,-9 102.49,-9 102.49,-9"/>
<polygon fill="#545454" stroke="#545454" stroke-width="0.75" points="102.49,-11.63 109.99,-9 102.49,-6.38 102.49,-11.63"/>
</g>
<!-- gpt4 -->
<g id="node3" class="node">
<title>gpt4</title>
<path fill="#800080" stroke="black" stroke-width="0.5" d="M163.89,-145.54C163.89,-145.54 121.89,-145.54 121.89,-145.54 118.89,-145.54 115.89,-142.54 115.89,-139.54 115.89,-139.54 115.89,-133.54 115.89,-133.54 115.89,-130.54 118.89,-127.54 121.89,-127.54 121.89,-127.54 163.89,-127.54 163.89,-127.54 166.89,-127.54 169.89,-130.54 169.89,-133.54 169.89,-133.54 169.89,-139.54 169.89,-139.54 169.89,-142.54 166.89,-145.54 163.89,-145.54"/>
<text text-anchor="middle" x="142.89" y="-132.87" font-family="Helvetica,sans-Serif" font-size="9.00" fill="#ffffff">GPT 4</text>
</g>
<!-- vicuna&#45;70k&#45;gpt4 -->
<g id="node4" class="node">
<title>vicuna&#45;70k&#45;gpt4</title>
<path fill="#e0b7f3" stroke="black" stroke-width="0.5" d="M193.64,-79.5C193.64,-80.72 170.9,-81.72 142.89,-81.72 114.89,-81.72 92.14,-80.72 92.14,-79.5 92.14,-79.5 92.14,-59.53 92.14,-59.53 92.14,-58.31 114.89,-57.31 142.89,-57.31 170.9,-57.31 193.64,-58.31 193.64,-59.53 193.64,-59.53 193.64,-79.5 193.64,-79.5"/>
<path fill="none" stroke="black" stroke-width="0.5" d="M193.64,-79.5C193.64,-78.27 170.9,-77.28 142.89,-77.28 114.89,-77.28 92.14,-78.27 92.14,-79.5"/>
<text text-anchor="middle" x="142.89" y="-65.84" font-family="Helvetica,sans-Serif" font-size="9.00">Vicuna 70k ChatGPT</text>
</g>
<!-- gpt4&#45;&gt;vicuna&#45;70k&#45;gpt4 -->
<g id="edge2" class="edge">
<title>gpt4&#45;&gt;vicuna&#45;70k&#45;gpt4</title>
<path fill="none" stroke="#545454" stroke-width="0.75" d="M142.89,-127.78C142.89,-127.78 142.89,-90.32 142.89,-90.32"/>
<polygon fill="#545454" stroke="#545454" stroke-width="0.75" points="145.52,-90.32 142.89,-82.82 140.27,-90.32 145.52,-90.32"/>
</g>
<!-- vicuna&#45;70k&#45;gpt4&#45;&gt;vicuna&#45;13b -->
<g id="edge3" class="edge">
<title>vicuna&#45;70k&#45;gpt4&#45;&gt;vicuna&#45;13b</title>
<path fill="none" stroke="#545454" stroke-width="0.75" d="M142.89,-57.56C142.89,-57.56 142.89,-26.43 142.89,-26.43"/>
<polygon fill="#545454" stroke="#545454" stroke-width="0.75" points="145.52,-26.43 142.89,-18.93 140.27,-26.43 145.52,-26.43"/>
</g>
<!-- llama2 -->
<g id="node5" class="node">
<title>llama2</title>
<path fill="#cbc3e3" stroke="black" stroke-width="0.5" d="M279.11,-142.74C279.11,-142.74 247.5,-150.65 247.5,-150.65 244.7,-151.35 239.09,-151.35 236.29,-150.65 236.29,-150.65 204.67,-142.74 204.67,-142.74 201.87,-142.04 199.07,-138.45 199.08,-135.55 199.08,-135.55 199.09,-129.77 199.09,-129.77 199.1,-126.88 202,-123.99 204.89,-123.99 204.89,-123.99 278.9,-123.99 278.9,-123.99 281.79,-123.99 284.69,-126.88 284.7,-129.77 284.7,-129.77 284.71,-135.55 284.71,-135.55 284.72,-138.45 281.92,-142.04 279.11,-142.74"/>
<text text-anchor="middle" x="241.89" y="-132.87" font-family="Helvetica,sans-Serif" font-size="9.00">Llama 2</text>
</g>
<!-- llama2&#45;13b -->
<g id="node6" class="node">
<title>llama2&#45;13b</title>
<path fill="#800080" stroke="black" stroke-width="0.5" d="M269.77,-78.51C269.77,-78.51 214.02,-78.51 214.02,-78.51 211.02,-78.51 208.02,-75.51 208.02,-72.51 208.02,-72.51 208.02,-66.51 208.02,-66.51 208.02,-63.51 211.02,-60.51 214.02,-60.51 214.02,-60.51 269.77,-60.51 269.77,-60.51 272.77,-60.51 275.77,-63.51 275.77,-66.51 275.77,-66.51 275.77,-72.51 275.77,-72.51 275.77,-75.51 272.77,-78.51 269.77,-78.51"/>
<text text-anchor="middle" x="241.89" y="-65.84" font-family="Helvetica,sans-Serif" font-size="9.00" fill="#ffffff">Llama 2 13B</text>
</g>
<!-- llama2&#45;&gt;llama2&#45;13b -->
<g id="edge4" class="edge">
<title>llama2&#45;&gt;llama2&#45;13b</title>
<path fill="none" stroke="#545454" stroke-width="0.75" d="M241.89,-124.25C241.89,-124.25 241.89,-86.95 241.89,-86.95"/>
<polygon fill="#545454" stroke="#545454" stroke-width="0.75" points="244.52,-86.95 241.89,-79.45 239.27,-86.95 244.52,-86.95"/>
</g>
<!-- llama2&#45;13b&#45;&gt;vicuna&#45;13b -->
<g id="edge5" class="edge">
<title>llama2&#45;13b&#45;&gt;vicuna&#45;13b</title>
<path fill="none" stroke="#545454" stroke-width="0.75" d="M241.89,-60.59C241.89,-43.75 241.89,-9 241.89,-9 241.89,-9 183.4,-9 183.4,-9"/>
<polygon fill="#545454" stroke="#545454" stroke-width="0.75" points="183.4,-6.38 175.9,-9 183.4,-11.63 183.4,-6.38"/>
</g>
<!-- openai&#45;gpt -->
<g id="node7" class="node">
<title>openai&#45;gpt</title>
<path fill="#cbc3e3" stroke="black" stroke-width="0.5" d="M195.77,-209.41C195.77,-209.41 148.58,-218.04 148.58,-218.04 145.74,-218.56 140.05,-218.56 137.21,-218.04 137.21,-218.04 90.02,-209.41 90.02,-209.41 87.18,-208.89 84.34,-205.47 84.35,-202.58 84.35,-202.58 84.37,-196.8 84.37,-196.8 84.38,-193.91 87.28,-191.02 90.17,-191.02 90.17,-191.02 195.62,-191.02 195.62,-191.02 198.51,-191.02 201.41,-193.91 201.42,-196.8 201.42,-196.8 201.44,-202.58 201.44,-202.58 201.45,-205.47 198.61,-208.89 195.77,-209.41"/>
<text text-anchor="middle" x="142.89" y="-199.9" font-family="Helvetica,sans-Serif" font-size="9.00">OpenAI GPT</text>
</g>
<!-- openai&#45;gpt&#45;&gt;gpt4 -->
<g id="edge6" class="edge">
<title>openai&#45;gpt&#45;&gt;gpt4</title>
<path fill="none" stroke="#545454" stroke-width="0.75" d="M142.89,-191.28C142.89,-191.28 142.89,-153.97 142.89,-153.97"/>
<polygon fill="#545454" stroke="#545454" stroke-width="0.75" points="145.52,-153.97 142.89,-146.47 140.27,-153.98 145.52,-153.97"/>
</g>
</g>
</svg>
