<?xml version="1.0" encoding="UTF-8" standalone="no"?>
<!DOCTYPE svg PUBLIC "-//W3C//DTD SVG 1.1//EN"
 "http://www.w3.org/Graphics/SVG/1.1/DTD/svg11.dtd">
<!-- Generated by graphviz version 11.0.0 (20240428.1522)
 -->
<!-- Pages: 1 -->
<svg width="86pt" height="39pt"
 viewBox="0.00 0.00 85.79 39.03" xmlns="http://www.w3.org/2000/svg" xmlns:xlink="http://www.w3.org/1999/xlink">
<g id="graph0" class="graph" transform="scale(1 1) rotate(0) translate(4 35.03)">
<polygon fill="white" stroke="none" points="-4,4 -4,-35.03 81.79,-35.03 81.79,4 -4,4"/>
<!-- vicuna -->
<g id="node1" class="node">
<title>vicuna</title>
<path fill="#cbc3e3" stroke="black" stroke-width="0.5" d="M72.21,-21.84C72.21,-21.84 44.47,-29.49 44.47,-29.49 41.68,-30.26 36.11,-30.26 33.32,-29.49 33.32,-29.49 5.57,-21.84 5.57,-21.84 2.79,-21.08 0.01,-17.42 0.01,-14.53 0.01,-14.53 0.02,-8.74 0.02,-8.74 0.03,-5.85 2.93,-2.96 5.82,-2.96 5.82,-2.96 71.97,-2.96 71.97,-2.96 74.86,-2.96 77.76,-5.85 77.76,-8.74 77.76,-8.74 77.78,-14.53 77.78,-14.53 77.78,-17.42 75,-21.08 72.21,-21.84"/>
<text text-anchor="middle" x="38.89" y="-11.84" font-family="Helvetica,sans-Serif" font-size="9.00">Vicuna</text>
</g>
</g>
</svg>
