<?xml version="1.0" encoding="UTF-8" standalone="no"?>
<!DOCTYPE svg PUBLIC "-//W3C//DTD SVG 1.1//EN"
 "http://www.w3.org/Graphics/SVG/1.1/DTD/svg11.dtd">
<!-- Generated by graphviz version 11.0.0 (20240428.1522)
 -->
<!-- Pages: 1 -->
<svg width="300pt" height="227pt"
 viewBox="0.00 0.00 300.39 227.09" xmlns="http://www.w3.org/2000/svg" xmlns:xlink="http://www.w3.org/1999/xlink">
<g id="graph0" class="graph" transform="scale(1 1) rotate(0) translate(4 223.09)">
<polygon fill="white" stroke="none" points="-4,4 -4,-223.09 296.39,-223.09 296.39,4 -4,4"/>
<!-- vicuna&#45;13b -->
<g id="node1" class="node">
<title>vicuna&#45;13b</title>
<path fill="red" stroke="black" stroke-width="0.5" d="M188.56,-18C188.56,-18 136.56,-18 136.56,-18 133.56,-18 130.56,-15 130.56,-12 130.56,-12 130.56,-6 130.56,-6 130.56,-3 133.56,0 136.56,0 136.56,0 188.56,0 188.56,0 191.56,0 194.56,-3 194.56,-6 194.56,-6 194.56,-12 194.56,-12 194.56,-15 191.56,-18 188.56,-18"/>
<text text-anchor="middle" x="162.56" y="-5.33" font-family="Helvetica,sans-Serif" font-size="9.00" fill="#ffffff">Vicuna&#45;13B</text>
</g>
<!-- openai&#45;gpt -->
<g id="node2" class="node">
<title>openai&#45;gpt</title>
<path fill="#cbc3e3" stroke="black" stroke-width="0.5" d="M111.44,-209.41C111.44,-209.41 64.25,-218.04 64.25,-218.04 61.4,-218.56 55.72,-218.56 52.87,-218.04 52.87,-218.04 5.69,-209.41 5.69,-209.41 2.84,-208.89 0.01,-205.47 0.02,-202.58 0.02,-202.58 0.04,-196.8 0.04,-196.8 0.05,-193.91 2.95,-191.02 5.84,-191.02 5.84,-191.02 111.29,-191.02 111.29,-191.02 114.18,-191.02 117.08,-193.91 117.09,-196.8 117.09,-196.8 117.1,-202.58 117.1,-202.58 117.11,-205.47 114.28,-208.89 111.44,-209.41"/>
<text text-anchor="middle" x="58.56" y="-199.9" font-family="Helvetica,sans-Serif" font-size="9.00">OpenAI GPT</text>
</g>
<!-- gpt4 -->
<g id="node3" class="node">
<title>gpt4</title>
<path fill="red" stroke="black" stroke-width="0.5" d="M79.56,-145.54C79.56,-145.54 37.56,-145.54 37.56,-145.54 34.56,-145.54 31.56,-142.54 31.56,-139.54 31.56,-139.54 31.56,-133.54 31.56,-133.54 31.56,-130.54 34.56,-127.54 37.56,-127.54 37.56,-127.54 79.56,-127.54 79.56,-127.54 82.56,-127.54 85.56,-130.54 85.56,-133.54 85.56,-133.54 85.56,-139.54 85.56,-139.54 85.56,-142.54 82.56,-145.54 79.56,-145.54"/>
<text text-anchor="middle" x="58.56" y="-132.87" font-family="Helvetica,sans-Serif" font-size="9.00" fill="#ffffff">GPT 4</text>
</g>
<!-- openai&#45;gpt&#45;&gt;gpt4 -->
<g id="edge1" class="edge">
<title>openai&#45;gpt&#45;&gt;gpt4</title>
<path fill="none" stroke="#545454" stroke-width="0.75" d="M58.56,-191.28C58.56,-191.28 58.56,-153.97 58.56,-153.97"/>
<polygon fill="#545454" stroke="#545454" stroke-width="0.75" points="61.19,-153.97 58.56,-146.47 55.94,-153.98 61.19,-153.97"/>
</g>
<!-- vicuna&#45;70k&#45;gpt4 -->
<g id="node4" class="node">
<title>vicuna&#45;70k&#45;gpt4</title>
<path fill="red" stroke="black" stroke-width="0.5" d="M109.31,-79.5C109.31,-80.72 86.56,-81.72 58.56,-81.72 30.56,-81.72 7.81,-80.72 7.81,-79.5 7.81,-79.5 7.81,-59.53 7.81,-59.53 7.81,-58.31 30.56,-57.31 58.56,-57.31 86.56,-57.31 109.31,-58.31 109.31,-59.53 109.31,-59.53 109.31,-79.5 109.31,-79.5"/>
<path fill="none" stroke="black" stroke-width="0.5" d="M109.31,-79.5C109.31,-78.27 86.56,-77.28 58.56,-77.28 30.56,-77.28 7.81,-78.27 7.81,-79.5"/>
<text text-anchor="middle" x="58.56" y="-65.84" font-family="Helvetica,sans-Serif" font-size="9.00">Vicuna 70k ChatGPT</text>
</g>
<!-- gpt4&#45;&gt;vicuna&#45;70k&#45;gpt4 -->
<g id="edge2" class="edge">
<title>gpt4&#45;&gt;vicuna&#45;70k&#45;gpt4</title>
<path fill="none" stroke="#545454" stroke-width="0.75" d="M58.56,-127.78C58.56,-127.78 58.56,-90.32 58.56,-90.32"/>
<polygon fill="#545454" stroke="#545454" stroke-width="0.75" points="61.19,-90.32 58.56,-82.82 55.94,-90.32 61.19,-90.32"/>
</g>
<!-- vicuna&#45;70k&#45;gpt4&#45;&gt;vicuna&#45;13b -->
<g id="edge3" class="edge">
<title>vicuna&#45;70k&#45;gpt4&#45;&gt;vicuna&#45;13b</title>
<path fill="none" stroke="#545454" stroke-width="0.75" d="M58.56,-57.56C58.56,-39.92 58.56,-9 58.56,-9 58.56,-9 122.16,-9 122.16,-9"/>
<polygon fill="#545454" stroke="#545454" stroke-width="0.75" points="122.16,-11.63 129.66,-9 122.16,-6.38 122.16,-11.63"/>
</g>
<!-- vicuna -->
<g id="node5" class="node">
<title>vicuna</title>
<path fill="#cbc3e3" stroke="black" stroke-width="0.5" d="M195.88,-75.84C195.88,-75.84 168.14,-83.49 168.14,-83.49 165.35,-84.26 159.77,-84.26 156.99,-83.49 156.99,-83.49 129.24,-75.84 129.24,-75.84 126.45,-75.08 123.67,-71.42 123.68,-68.53 123.68,-68.53 123.69,-62.74 123.69,-62.74 123.7,-59.85 126.59,-56.96 129.48,-56.96 129.48,-56.96 195.64,-56.96 195.64,-56.96 198.53,-56.96 201.43,-59.85 201.43,-62.74 201.43,-62.74 201.44,-68.53 201.44,-68.53 201.45,-71.42 198.67,-75.08 195.88,-75.84"/>
<text text-anchor="middle" x="162.56" y="-65.84" font-family="Helvetica,sans-Serif" font-size="9.00">Vicuna</text>
</g>
<!-- vicuna&#45;&gt;vicuna&#45;13b -->
<g id="edge4" class="edge">
<title>vicuna&#45;&gt;vicuna&#45;13b</title>
<path fill="none" stroke="#545454" stroke-width="0.75" d="M162.56,-56.98C162.56,-56.98 162.56,-26.62 162.56,-26.62"/>
<polygon fill="#545454" stroke="#545454" stroke-width="0.75" points="165.19,-26.62 162.56,-19.12 159.94,-26.62 165.19,-26.62"/>
</g>
<!-- llama2 -->
<g id="node6" class="node">
<title>llama2</title>
<path fill="#cbc3e3" stroke="black" stroke-width="0.5" d="M286.78,-142.74C286.78,-142.74 255.17,-150.65 255.17,-150.65 252.37,-151.35 246.76,-151.35 243.95,-150.65 243.95,-150.65 212.34,-142.74 212.34,-142.74 209.54,-142.04 206.74,-138.45 206.75,-135.55 206.75,-135.55 206.76,-129.77 206.76,-129.77 206.77,-126.88 209.66,-123.99 212.55,-123.99 212.55,-123.99 286.57,-123.99 286.57,-123.99 289.46,-123.99 292.36,-126.88 292.36,-129.77 292.36,-129.77 292.38,-135.55 292.38,-135.55 292.38,-138.45 289.59,-142.04 286.78,-142.74"/>
<text text-anchor="middle" x="249.56" y="-132.87" font-family="Helvetica,sans-Serif" font-size="9.00">Llama 2</text>
</g>
<!-- llama2&#45;13b -->
<g id="node7" class="node">
<title>llama2&#45;13b</title>
<path fill="red" stroke="black" stroke-width="0.5" d="M277.44,-78.51C277.44,-78.51 221.69,-78.51 221.69,-78.51 218.69,-78.51 215.69,-75.51 215.69,-72.51 215.69,-72.51 215.69,-66.51 215.69,-66.51 215.69,-63.51 218.69,-60.51 221.69,-60.51 221.69,-60.51 277.44,-60.51 277.44,-60.51 280.44,-60.51 283.44,-63.51 283.44,-66.51 283.44,-66.51 283.44,-72.51 283.44,-72.51 283.44,-75.51 280.44,-78.51 277.44,-78.51"/>
<text text-anchor="middle" x="249.56" y="-65.84" font-family="Helvetica,sans-Serif" font-size="9.00" fill="#ffffff">Llama 2 13B</text>
</g>
<!-- llama2&#45;&gt;llama2&#45;13b -->
<g id="edge5" class="edge">
<title>llama2&#45;&gt;llama2&#45;13b</title>
<path fill="none" stroke="#545454" stroke-width="0.75" d="M249.56,-124.25C249.56,-124.25 249.56,-86.95 249.56,-86.95"/>
<polygon fill="#545454" stroke="#545454" stroke-width="0.75" points="252.19,-86.95 249.56,-79.45 246.94,-86.95 252.19,-86.95"/>
</g>
<!-- llama2&#45;13b&#45;&gt;vicuna&#45;13b -->
<g id="edge6" class="edge">
<title>llama2&#45;13b&#45;&gt;vicuna&#45;13b</title>
<path fill="none" stroke="#545454" stroke-width="0.75" d="M249.56,-60.59C249.56,-43.75 249.56,-9 249.56,-9 249.56,-9 203.1,-9 203.1,-9"/>
<polygon fill="#545454" stroke="#545454" stroke-width="0.75" points="203.1,-6.38 195.6,-9 203.1,-11.63 203.1,-6.38"/>
</g>
</g>
</svg>
