<?xml version="1.0" encoding="UTF-8" standalone="no"?>
<!DOCTYPE svg PUBLIC "-//W3C//DTD SVG 1.1//EN"
 "http://www.w3.org/Graphics/SVG/1.1/DTD/svg11.dtd">
<!-- Generated by graphviz version 11.0.0 (20240428.1522)
 -->
<!-- Pages: 1 -->
<svg width="300pt" height="227pt"
 viewBox="0.00 0.00 300.39 227.09" xmlns="http://www.w3.org/2000/svg" xmlns:xlink="http://www.w3.org/1999/xlink">
<g id="graph0" class="graph" transform="scale(1 1) rotate(0) translate(4 223.09)">
<polygon fill="white" stroke="none" points="-4,4 -4,-223.09 296.39,-223.09 296.39,4 -4,4"/>
<!-- vicuna&#45;70k&#45;gpt4 -->
<g id="node1" class="node">
<title>vicuna&#45;70k&#45;gpt4</title>
<path fill="#e0b7f3" stroke="black" stroke-width="0.5" d="M284.58,-79.5C284.58,-80.72 261.83,-81.72 233.83,-81.72 205.83,-81.72 183.08,-80.72 183.08,-79.5 183.08,-79.5 183.08,-59.53 183.08,-59.53 183.08,-58.31 205.83,-57.31 233.83,-57.31 261.83,-57.31 284.58,-58.31 284.58,-59.53 284.58,-59.53 284.58,-79.5 284.58,-79.5"/>
<path fill="none" stroke="black" stroke-width="0.5" d="M284.58,-79.5C284.58,-78.27 261.83,-77.28 233.83,-77.28 205.83,-77.28 183.08,-78.27 183.08,-79.5"/>
<text text-anchor="middle" x="233.83" y="-65.84" font-family="Helvetica,sans-Serif" font-size="9.00">Vicuna 70k ChatGPT</text>
</g>
<!-- vicuna&#45;13b -->
<g id="node2" class="node">
<title>vicuna&#45;13b</title>
<path fill="#800080" stroke="black" stroke-width="0.5" d="M155.83,-18C155.83,-18 103.83,-18 103.83,-18 100.83,-18 97.83,-15 97.83,-12 97.83,-12 97.83,-6 97.83,-6 97.83,-3 100.83,0 103.83,0 103.83,0 155.83,0 155.83,0 158.83,0 161.83,-3 161.83,-6 161.83,-6 161.83,-12 161.83,-12 161.83,-15 158.83,-18 155.83,-18"/>
<text text-anchor="middle" x="129.83" y="-5.33" font-family="Helvetica,sans-Serif" font-size="9.00" fill="#ffffff">Vicuna&#45;13B</text>
</g>
<!-- vicuna&#45;70k&#45;gpt4&#45;&gt;vicuna&#45;13b -->
<g id="edge1" class="edge">
<title>vicuna&#45;70k&#45;gpt4&#45;&gt;vicuna&#45;13b</title>
<path fill="none" stroke="#545454" stroke-width="0.75" d="M233.83,-57.56C233.83,-39.92 233.83,-9 233.83,-9 233.83,-9 170.23,-9 170.23,-9"/>
<polygon fill="#545454" stroke="#545454" stroke-width="0.75" points="170.23,-6.38 162.73,-9 170.23,-11.63 170.23,-6.38"/>
</g>
<!-- llama2 -->
<g id="node3" class="node">
<title>llama2</title>
<path fill="#cbc3e3" stroke="black" stroke-width="0.5" d="M80.05,-142.74C80.05,-142.74 48.44,-150.65 48.44,-150.65 45.63,-151.35 40.02,-151.35 37.22,-150.65 37.22,-150.65 5.61,-142.74 5.61,-142.74 2.8,-142.04 0.01,-138.45 0.01,-135.55 0.01,-135.55 0.03,-129.77 0.03,-129.77 0.03,-126.88 2.93,-123.99 5.82,-123.99 5.82,-123.99 79.84,-123.99 79.84,-123.99 82.73,-123.99 85.63,-126.88 85.63,-129.77 85.63,-129.77 85.65,-135.55 85.65,-135.55 85.65,-138.45 82.85,-142.04 80.05,-142.74"/>
<text text-anchor="middle" x="42.83" y="-132.87" font-family="Helvetica,sans-Serif" font-size="9.00">Llama 2</text>
</g>
<!-- llama2&#45;13b -->
<g id="node4" class="node">
<title>llama2&#45;13b</title>
<path fill="#800080" stroke="black" stroke-width="0.5" d="M70.7,-78.51C70.7,-78.51 14.95,-78.51 14.95,-78.51 11.95,-78.51 8.95,-75.51 8.95,-72.51 8.95,-72.51 8.95,-66.51 8.95,-66.51 8.95,-63.51 11.95,-60.51 14.95,-60.51 14.95,-60.51 70.7,-60.51 70.7,-60.51 73.7,-60.51 76.7,-63.51 76.7,-66.51 76.7,-66.51 76.7,-72.51 76.7,-72.51 76.7,-75.51 73.7,-78.51 70.7,-78.51"/>
<text text-anchor="middle" x="42.83" y="-65.84" font-family="Helvetica,sans-Serif" font-size="9.00" fill="#ffffff">Llama 2 13B</text>
</g>
<!-- llama2&#45;&gt;llama2&#45;13b -->
<g id="edge2" class="edge">
<title>llama2&#45;&gt;llama2&#45;13b</title>
<path fill="none" stroke="#545454" stroke-width="0.75" d="M42.83,-124.25C42.83,-124.25 42.83,-86.95 42.83,-86.95"/>
<polygon fill="#545454" stroke="#545454" stroke-width="0.75" points="45.45,-86.95 42.83,-79.45 40.2,-86.95 45.45,-86.95"/>
</g>
<!-- llama2&#45;13b&#45;&gt;vicuna&#45;13b -->
<g id="edge3" class="edge">
<title>llama2&#45;13b&#45;&gt;vicuna&#45;13b</title>
<path fill="none" stroke="#545454" stroke-width="0.75" d="M42.83,-60.59C42.83,-43.75 42.83,-9 42.83,-9 42.83,-9 89.29,-9 89.29,-9"/>
<polygon fill="#545454" stroke="#545454" stroke-width="0.75" points="89.29,-11.63 96.79,-9 89.29,-6.38 89.29,-11.63"/>
</g>
<!-- gpt4 -->
<g id="node5" class="node">
<title>gpt4</title>
<path fill="#800080" stroke="black" stroke-width="0.5" d="M254.83,-145.54C254.83,-145.54 212.83,-145.54 212.83,-145.54 209.83,-145.54 206.83,-142.54 206.83,-139.54 206.83,-139.54 206.83,-133.54 206.83,-133.54 206.83,-130.54 209.83,-127.54 212.83,-127.54 212.83,-127.54 254.83,-127.54 254.83,-127.54 257.83,-127.54 260.83,-130.54 260.83,-133.54 260.83,-133.54 260.83,-139.54 260.83,-139.54 260.83,-142.54 257.83,-145.54 254.83,-145.54"/>
<text text-anchor="middle" x="233.83" y="-132.87" font-family="Helvetica,sans-Serif" font-size="9.00" fill="#ffffff">GPT 4</text>
</g>
<!-- gpt4&#45;&gt;vicuna&#45;70k&#45;gpt4 -->
<g id="edge4" class="edge">
<title>gpt4&#45;&gt;vicuna&#45;70k&#45;gpt4</title>
<path fill="none" stroke="#545454" stroke-width="0.75" d="M233.83,-127.78C233.83,-127.78 233.83,-90.32 233.83,-90.32"/>
<polygon fill="#545454" stroke="#545454" stroke-width="0.75" points="236.45,-90.32 233.83,-82.82 231.2,-90.32 236.45,-90.32"/>
</g>
<!-- openai&#45;gpt -->
<g id="node6" class="node">
<title>openai&#45;gpt</title>
<path fill="#cbc3e3" stroke="black" stroke-width="0.5" d="M286.7,-209.41C286.7,-209.41 239.52,-218.04 239.52,-218.04 236.67,-218.56 230.99,-218.56 228.14,-218.04 228.14,-218.04 180.96,-209.41 180.96,-209.41 178.11,-208.89 175.28,-205.47 175.29,-202.58 175.29,-202.58 175.3,-196.8 175.3,-196.8 175.31,-193.91 178.21,-191.02 181.1,-191.02 181.1,-191.02 286.55,-191.02 286.55,-191.02 289.44,-191.02 292.34,-193.91 292.35,-196.8 292.35,-196.8 292.37,-202.58 292.37,-202.58 292.38,-205.47 289.55,-208.89 286.7,-209.41"/>
<text text-anchor="middle" x="233.83" y="-199.9" font-family="Helvetica,sans-Serif" font-size="9.00">OpenAI GPT</text>
</g>
<!-- openai&#45;gpt&#45;&gt;gpt4 -->
<g id="edge5" class="edge">
<title>openai&#45;gpt&#45;&gt;gpt4</title>
<path fill="none" stroke="#545454" stroke-width="0.75" d="M233.83,-191.28C233.83,-191.28 233.83,-153.97 233.83,-153.97"/>
<polygon fill="#545454" stroke="#545454" stroke-width="0.75" points="236.45,-153.97 233.83,-146.47 231.2,-153.98 236.45,-153.97"/>
</g>
<!-- vicuna -->
<g id="node7" class="node">
<title>vicuna</title>
<path fill="#cbc3e3" stroke="black" stroke-width="0.5" d="M163.15,-75.84C163.15,-75.84 135.4,-83.49 135.4,-83.49 132.62,-84.26 127.04,-84.26 124.26,-83.49 124.26,-83.49 96.51,-75.84 96.51,-75.84 93.72,-75.08 90.94,-71.42 90.95,-68.53 90.95,-68.53 90.96,-62.74 90.96,-62.74 90.97,-59.85 93.86,-56.96 96.75,-56.96 96.75,-56.96 162.91,-56.96 162.91,-56.96 165.8,-56.96 168.69,-59.85 168.7,-62.74 168.7,-62.74 168.71,-68.53 168.71,-68.53 168.72,-71.42 165.94,-75.08 163.15,-75.84"/>
<text text-anchor="middle" x="129.83" y="-65.84" font-family="Helvetica,sans-Serif" font-size="9.00">Vicuna</text>
</g>
<!-- vicuna&#45;&gt;vicuna&#45;13b -->
<g id="edge6" class="edge">
<title>vicuna&#45;&gt;vicuna&#45;13b</title>
<path fill="none" stroke="#545454" stroke-width="0.75" d="M129.83,-56.98C129.83,-56.98 129.83,-26.62 129.83,-26.62"/>
<polygon fill="#545454" stroke="#545454" stroke-width="0.75" points="132.45,-26.62 129.83,-19.12 127.2,-26.62 132.45,-26.62"/>
</g>
</g>
</svg>
