<?xml version="1.0" encoding="UTF-8" standalone="no"?>
<!DOCTYPE svg PUBLIC "-//W3C//DTD SVG 1.1//EN"
 "http://www.w3.org/Graphics/SVG/1.1/DTD/svg11.dtd">
<!-- Generated by graphviz version 11.0.0 (20240428.1522)
 -->
<!-- Pages: 1 -->
<svg width="291pt" height="227pt"
 viewBox="0.00 0.00 291.46 227.09" xmlns="http://www.w3.org/2000/svg" xmlns:xlink="http://www.w3.org/1999/xlink">
<g id="graph0" class="graph" transform="scale(1 1) rotate(0) translate(4 223.09)">
<polygon fill="white" stroke="none" points="-4,4 -4,-223.09 287.46,-223.09 287.46,4 -4,4"/>
<!-- vicuna&#45;70k&#45;gpt4 -->
<g id="node1" class="node">
<title>vicuna&#45;70k&#45;gpt4</title>
<path fill="#e0b7f3" stroke="black" stroke-width="0.5" d="M275.64,-79.5C275.64,-80.72 252.9,-81.72 224.89,-81.72 196.89,-81.72 174.14,-80.72 174.14,-79.5 174.14,-79.5 174.14,-59.53 174.14,-59.53 174.14,-58.31 196.89,-57.31 224.89,-57.31 252.9,-57.31 275.64,-58.31 275.64,-59.53 275.64,-59.53 275.64,-79.5 275.64,-79.5"/>
<path fill="none" stroke="black" stroke-width="0.5" d="M275.64,-79.5C275.64,-78.27 252.9,-77.28 224.89,-77.28 196.89,-77.28 174.14,-78.27 174.14,-79.5"/>
<text text-anchor="middle" x="224.89" y="-65.84" font-family="Helvetica,sans-Serif" font-size="9.00">Vicuna 70k ChatGPT</text>
</g>
<!-- vicuna&#45;13b -->
<g id="node2" class="node">
<title>vicuna&#45;13b</title>
<path fill="#800080" stroke="black" stroke-width="0.5" d="M151.89,-18C151.89,-18 99.89,-18 99.89,-18 96.89,-18 93.89,-15 93.89,-12 93.89,-12 93.89,-6 93.89,-6 93.89,-3 96.89,0 99.89,0 99.89,0 151.89,0 151.89,0 154.89,0 157.89,-3 157.89,-6 157.89,-6 157.89,-12 157.89,-12 157.89,-15 154.89,-18 151.89,-18"/>
<text text-anchor="middle" x="125.89" y="-5.33" font-family="Helvetica,sans-Serif" font-size="9.00" fill="#ffffff">Vicuna&#45;13B</text>
</g>
<!-- vicuna&#45;70k&#45;gpt4&#45;&gt;vicuna&#45;13b -->
<g id="edge1" class="edge">
<title>vicuna&#45;70k&#45;gpt4&#45;&gt;vicuna&#45;13b</title>
<path fill="none" stroke="#545454" stroke-width="0.75" d="M224.89,-57.56C224.89,-39.92 224.89,-9 224.89,-9 224.89,-9 166.4,-9 166.4,-9"/>
<polygon fill="#545454" stroke="#545454" stroke-width="0.75" points="166.4,-6.38 158.9,-9 166.4,-11.63 166.4,-6.38"/>
</g>
<!-- openai&#45;gpt -->
<g id="node3" class="node">
<title>openai&#45;gpt</title>
<path fill="#cbc3e3" stroke="black" stroke-width="0.5" d="M277.77,-209.41C277.77,-209.41 230.58,-218.04 230.58,-218.04 227.74,-218.56 222.05,-218.56 219.21,-218.04 219.21,-218.04 172.02,-209.41 172.02,-209.41 169.18,-208.89 166.34,-205.47 166.35,-202.58 166.35,-202.58 166.37,-196.8 166.37,-196.8 166.38,-193.91 169.28,-191.02 172.17,-191.02 172.17,-191.02 277.62,-191.02 277.62,-191.02 280.51,-191.02 283.41,-193.91 283.42,-196.8 283.42,-196.8 283.44,-202.58 283.44,-202.58 283.45,-205.47 280.61,-208.89 277.77,-209.41"/>
<text text-anchor="middle" x="224.89" y="-199.9" font-family="Helvetica,sans-Serif" font-size="9.00">OpenAI GPT</text>
</g>
<!-- gpt4 -->
<g id="node4" class="node">
<title>gpt4</title>
<path fill="#800080" stroke="black" stroke-width="0.5" d="M245.89,-145.54C245.89,-145.54 203.89,-145.54 203.89,-145.54 200.89,-145.54 197.89,-142.54 197.89,-139.54 197.89,-139.54 197.89,-133.54 197.89,-133.54 197.89,-130.54 200.89,-127.54 203.89,-127.54 203.89,-127.54 245.89,-127.54 245.89,-127.54 248.89,-127.54 251.89,-130.54 251.89,-133.54 251.89,-133.54 251.89,-139.54 251.89,-139.54 251.89,-142.54 248.89,-145.54 245.89,-145.54"/>
<text text-anchor="middle" x="224.89" y="-132.87" font-family="Helvetica,sans-Serif" font-size="9.00" fill="#ffffff">GPT 4</text>
</g>
<!-- openai&#45;gpt&#45;&gt;gpt4 -->
<g id="edge2" class="edge">
<title>openai&#45;gpt&#45;&gt;gpt4</title>
<path fill="none" stroke="#545454" stroke-width="0.75" d="M224.89,-191.28C224.89,-191.28 224.89,-153.97 224.89,-153.97"/>
<polygon fill="#545454" stroke="#545454" stroke-width="0.75" points="227.52,-153.97 224.89,-146.47 222.27,-153.98 227.52,-153.97"/>
</g>
<!-- gpt4&#45;&gt;vicuna&#45;70k&#45;gpt4 -->
<g id="edge3" class="edge">
<title>gpt4&#45;&gt;vicuna&#45;70k&#45;gpt4</title>
<path fill="none" stroke="#545454" stroke-width="0.75" d="M224.89,-127.78C224.89,-127.78 224.89,-90.32 224.89,-90.32"/>
<polygon fill="#545454" stroke="#545454" stroke-width="0.75" points="227.52,-90.32 224.89,-82.82 222.27,-90.32 227.52,-90.32"/>
</g>
<!-- vicuna -->
<g id="node5" class="node">
<title>vicuna</title>
<path fill="#cbc3e3" stroke="black" stroke-width="0.5" d="M72.21,-75.84C72.21,-75.84 44.47,-83.49 44.47,-83.49 41.68,-84.26 36.11,-84.26 33.32,-83.49 33.32,-83.49 5.57,-75.84 5.57,-75.84 2.79,-75.08 0.01,-71.42 0.01,-68.53 0.01,-68.53 0.02,-62.74 0.02,-62.74 0.03,-59.85 2.93,-56.96 5.82,-56.96 5.82,-56.96 71.97,-56.96 71.97,-56.96 74.86,-56.96 77.76,-59.85 77.76,-62.74 77.76,-62.74 77.78,-68.53 77.78,-68.53 77.78,-71.42 75,-75.08 72.21,-75.84"/>
<text text-anchor="middle" x="38.89" y="-65.84" font-family="Helvetica,sans-Serif" font-size="9.00">Vicuna</text>
</g>
<!-- vicuna&#45;&gt;vicuna&#45;13b -->
<g id="edge4" class="edge">
<title>vicuna&#45;&gt;vicuna&#45;13b</title>
<path fill="none" stroke="#545454" stroke-width="0.75" d="M38.89,-56.98C38.89,-39.25 38.89,-9 38.89,-9 38.89,-9 85.36,-9 85.36,-9"/>
<polygon fill="#545454" stroke="#545454" stroke-width="0.75" points="85.36,-11.63 92.86,-9 85.36,-6.38 85.36,-11.63"/>
</g>
<!-- llama2&#45;13b -->
<g id="node6" class="node">
<title>llama2&#45;13b</title>
<path fill="#800080" stroke="black" stroke-width="0.5" d="M153.77,-78.51C153.77,-78.51 98.02,-78.51 98.02,-78.51 95.02,-78.51 92.02,-75.51 92.02,-72.51 92.02,-72.51 92.02,-66.51 92.02,-66.51 92.02,-63.51 95.02,-60.51 98.02,-60.51 98.02,-60.51 153.77,-60.51 153.77,-60.51 156.77,-60.51 159.77,-63.51 159.77,-66.51 159.77,-66.51 159.77,-72.51 159.77,-72.51 159.77,-75.51 156.77,-78.51 153.77,-78.51"/>
<text text-anchor="middle" x="125.89" y="-65.84" font-family="Helvetica,sans-Serif" font-size="9.00" fill="#ffffff">Llama 2 13B</text>
</g>
<!-- llama2&#45;13b&#45;&gt;vicuna&#45;13b -->
<g id="edge5" class="edge">
<title>llama2&#45;13b&#45;&gt;vicuna&#45;13b</title>
<path fill="none" stroke="#545454" stroke-width="0.75" d="M125.89,-60.59C125.89,-60.59 125.89,-26.6 125.89,-26.6"/>
<polygon fill="#545454" stroke="#545454" stroke-width="0.75" points="128.52,-26.6 125.89,-19.1 123.27,-26.6 128.52,-26.6"/>
</g>
<!-- llama2 -->
<g id="node7" class="node">
<title>llama2</title>
<path fill="#cbc3e3" stroke="black" stroke-width="0.5" d="M163.11,-142.74C163.11,-142.74 131.5,-150.65 131.5,-150.65 128.7,-151.35 123.09,-151.35 120.29,-150.65 120.29,-150.65 88.67,-142.74 88.67,-142.74 85.87,-142.04 83.07,-138.45 83.08,-135.55 83.08,-135.55 83.09,-129.77 83.09,-129.77 83.1,-126.88 86,-123.99 88.89,-123.99 88.89,-123.99 162.9,-123.99 162.9,-123.99 165.79,-123.99 168.69,-126.88 168.7,-129.77 168.7,-129.77 168.71,-135.55 168.71,-135.55 168.72,-138.45 165.92,-142.04 163.11,-142.74"/>
<text text-anchor="middle" x="125.89" y="-132.87" font-family="Helvetica,sans-Serif" font-size="9.00">Llama 2</text>
</g>
<!-- llama2&#45;&gt;llama2&#45;13b -->
<g id="edge6" class="edge">
<title>llama2&#45;&gt;llama2&#45;13b</title>
<path fill="none" stroke="#545454" stroke-width="0.75" d="M125.89,-124.25C125.89,-124.25 125.89,-86.95 125.89,-86.95"/>
<polygon fill="#545454" stroke="#545454" stroke-width="0.75" points="128.52,-86.95 125.89,-79.45 123.27,-86.95 128.52,-86.95"/>
</g>
</g>
</svg>
