<?xml version="1.0" encoding="UTF-8" standalone="no"?>
<!DOCTYPE svg PUBLIC "-//W3C//DTD SVG 1.1//EN"
 "http://www.w3.org/Graphics/SVG/1.1/DTD/svg11.dtd">
<!-- Generated by graphviz version 11.0.0 (20240428.1522)
 -->
<!-- Pages: 1 -->
<svg width="89pt" height="32pt"
 viewBox="0.00 0.00 89.25 32.41" xmlns="http://www.w3.org/2000/svg" xmlns:xlink="http://www.w3.org/1999/xlink">
<g id="graph0" class="graph" transform="scale(1 1) rotate(0) translate(4 28.41)">
<polygon fill="white" stroke="none" points="-4,4 -4,-28.41 85.25,-28.41 85.25,4 -4,4"/>
<!-- WebImageText -->
<g id="node1" class="node">
<title>WebImageText</title>
<path fill="red" stroke="black" stroke-width="0.5" d="M81.25,-22.19C81.25,-23.41 63.04,-24.41 40.63,-24.41 18.21,-24.41 0,-23.41 0,-22.19 0,-22.19 0,-2.22 0,-2.22 0,-0.99 18.21,0 40.63,0 63.04,0 81.25,-0.99 81.25,-2.22 81.25,-2.22 81.25,-22.19 81.25,-22.19"/>
<path fill="none" stroke="black" stroke-width="0.5" d="M81.25,-22.19C81.25,-20.96 63.04,-19.97 40.63,-19.97 18.21,-19.97 0,-20.96 0,-22.19"/>
<text text-anchor="middle" x="40.63" y="-8.53" font-family="Helvetica,sans-Serif" font-size="9.00">Web Image Text</text>
</g>
</g>
</svg>
