<?xml version="1.0" encoding="UTF-8" standalone="no"?>
<!DOCTYPE svg PUBLIC "-//W3C//DTD SVG 1.1//EN"
 "http://www.w3.org/Graphics/SVG/1.1/DTD/svg11.dtd">
<!-- Generated by graphviz version 11.0.0 (20240428.1522)
 -->
<!-- Pages: 1 -->
<svg width="68pt" height="32pt"
 viewBox="0.00 0.00 67.50 32.41" xmlns="http://www.w3.org/2000/svg" xmlns:xlink="http://www.w3.org/1999/xlink">
<g id="graph0" class="graph" transform="scale(1 1) rotate(0) translate(4 28.41)">
<polygon fill="white" stroke="none" points="-4,4 -4,-28.41 63.5,-28.41 63.5,4 -4,4"/>
<!-- xp3megds -->
<g id="node1" class="node">
<title>xp3megds</title>
<path fill="#e0b7f3" stroke="black" stroke-width="0.5" d="M59.5,-22.19C59.5,-23.41 46.17,-24.41 29.75,-24.41 13.33,-24.41 0,-23.41 0,-22.19 0,-22.19 0,-2.22 0,-2.22 0,-0.99 13.33,0 29.75,0 46.17,0 59.5,-0.99 59.5,-2.22 59.5,-2.22 59.5,-22.19 59.5,-22.19"/>
<path fill="none" stroke="black" stroke-width="0.5" d="M59.5,-22.19C59.5,-20.96 46.17,-19.97 29.75,-19.97 13.33,-19.97 0,-20.96 0,-22.19"/>
<text text-anchor="middle" x="29.75" y="-8.53" font-family="Helvetica,sans-Serif" font-size="9.00">xP3megds</text>
</g>
</g>
</svg>
