<?xml version="1.0" encoding="UTF-8" standalone="no"?>
<!DOCTYPE svg PUBLIC "-//W3C//DTD SVG 1.1//EN"
 "http://www.w3.org/Graphics/SVG/1.1/DTD/svg11.dtd">
<!-- Generated by graphviz version 12.0.0 (20240704.0754)
 -->
<!-- Pages: 1 -->
<svg width="494pt" height="294pt"
 viewBox="0.00 0.00 493.83 294.11" xmlns="http://www.w3.org/2000/svg" xmlns:xlink="http://www.w3.org/1999/xlink">
<g id="graph0" class="graph" transform="scale(1 1) rotate(0) translate(4 290.11)">
<polygon fill="white" stroke="none" points="-4,4 -4,-290.11 489.83,-290.11 489.83,4 -4,4"/>
<!-- LLaVA -->
<g id="node1" class="node">
<title>LLaVA</title>
<path fill="#dab6fc" stroke="black" stroke-width="0.7" d="M132.5,-75.87C132.5,-75.87 105.4,-83.47 105.4,-83.47 102.61,-84.25 97.05,-84.25 94.26,-83.47 94.26,-83.47 67.16,-75.87 67.16,-75.87 64.37,-75.09 61.6,-71.42 61.6,-68.53 61.6,-68.53 61.61,-62.74 61.61,-62.74 61.62,-59.85 64.52,-56.96 67.41,-56.96 67.41,-56.96 132.25,-56.96 132.25,-56.96 135.14,-56.96 138.04,-59.85 138.04,-62.74 138.04,-62.74 138.06,-68.53 138.06,-68.53 138.06,-71.42 135.28,-75.09 132.5,-75.87"/>
<text text-anchor="middle" x="99.83" y="-65.84" font-family="Helvetica,sans-Serif" font-size="9.00" fill="#3d0075">LLaVA</text>
</g>
<!-- LLaVA&#45;1.6&#45;Vicuna&#45;13B -->
<g id="node2" class="node">
<title>LLaVA&#45;1.6&#45;Vicuna&#45;13B</title>
<path fill="#7741b0" stroke="black" stroke-width="0.7" d="M326.08,-18C326.08,-18 227.58,-18 227.58,-18 224.58,-18 221.58,-15 221.58,-12 221.58,-12 221.58,-6 221.58,-6 221.58,-3 224.58,0 227.58,0 227.58,0 326.08,0 326.08,0 329.08,0 332.08,-3 332.08,-6 332.08,-6 332.08,-12 332.08,-12 332.08,-15 329.08,-18 326.08,-18"/>
<text text-anchor="middle" x="276.83" y="-5.33" font-family="Helvetica,sans-Serif" font-weight="bold" font-size="9.00" fill="#ffffff">LLaVA&#45;1.6 Vicuna 13B</text>
</g>
<!-- LLaVA&#45;&gt;LLaVA&#45;1.6&#45;Vicuna&#45;13B -->
<g id="edge1" class="edge">
<title>LLaVA&#45;&gt;LLaVA&#45;1.6&#45;Vicuna&#45;13B</title>
<path fill="none" stroke="#545454" stroke-width="0.75" d="M134.38,-57.09C167.24,-46.23 216.16,-30.06 247.26,-19.77"/>
<polygon fill="#545454" stroke="#545454" stroke-width="0.75" points="247.58,-21.51 251.78,-18.28 246.49,-18.19 247.58,-21.51"/>
</g>
<!-- gpt4 -->
<g id="node3" class="node">
<title>gpt4</title>
<path fill="#7741b0" stroke="black" stroke-width="0.7" d="M320.83,-212.57C320.83,-212.57 278.83,-212.57 278.83,-212.57 275.83,-212.57 272.83,-209.57 272.83,-206.57 272.83,-206.57 272.83,-200.57 272.83,-200.57 272.83,-197.57 275.83,-194.57 278.83,-194.57 278.83,-194.57 320.83,-194.57 320.83,-194.57 323.83,-194.57 326.83,-197.57 326.83,-200.57 326.83,-200.57 326.83,-206.57 326.83,-206.57 326.83,-209.57 323.83,-212.57 320.83,-212.57"/>
<text text-anchor="middle" x="299.83" y="-199.89" font-family="Helvetica,sans-Serif" font-weight="bold" font-size="9.00" fill="#ffffff">GPT 4</text>
</g>
<!-- mm&#45;instruct&#45;data -->
<g id="node4" class="node">
<title>mm&#45;instruct&#45;data</title>
<path fill="#c59af7" stroke="black" stroke-width="0.7" d="M403.71,-146.52C403.71,-147.75 383.14,-148.74 357.83,-148.74 332.52,-148.74 311.96,-147.75 311.96,-146.52 311.96,-146.52 311.96,-126.56 311.96,-126.56 311.96,-125.33 332.52,-124.34 357.83,-124.34 383.14,-124.34 403.71,-125.33 403.71,-126.56 403.71,-126.56 403.71,-146.52 403.71,-146.52"/>
<path fill="none" stroke="black" stroke-width="0.7" d="M403.71,-146.52C403.71,-145.3 383.14,-144.31 357.83,-144.31 332.52,-144.31 311.96,-145.3 311.96,-146.52"/>
<text text-anchor="middle" x="357.83" y="-132.86" font-family="Helvetica,sans-Serif" font-size="9.00" fill="#3d0075">LLaVa MM&#45;Instruct</text>
</g>
<!-- gpt4&#45;&gt;mm&#45;instruct&#45;data -->
<g id="edge2" class="edge">
<title>gpt4&#45;&gt;mm&#45;instruct&#45;data</title>
<path fill="none" stroke="#545454" stroke-width="0.75" d="M306.94,-194.6C316.1,-184.33 332.22,-166.25 343.87,-153.19"/>
<polygon fill="#545454" stroke="#545454" stroke-width="0.75" points="345.16,-154.37 347.19,-149.48 342.55,-152.04 345.16,-154.37"/>
</g>
<!-- vicuna&#45;70k&#45;gpt4 -->
<g id="node5" class="node">
<title>vicuna&#45;70k&#45;gpt4</title>
<path fill="#c59af7" stroke="black" stroke-width="0.7" d="M293.58,-146.52C293.58,-147.75 270.83,-148.74 242.83,-148.74 214.83,-148.74 192.08,-147.75 192.08,-146.52 192.08,-146.52 192.08,-126.56 192.08,-126.56 192.08,-125.33 214.83,-124.34 242.83,-124.34 270.83,-124.34 293.58,-125.33 293.58,-126.56 293.58,-126.56 293.58,-146.52 293.58,-146.52"/>
<path fill="none" stroke="black" stroke-width="0.7" d="M293.58,-146.52C293.58,-145.3 270.83,-144.31 242.83,-144.31 214.83,-144.31 192.08,-145.3 192.08,-146.52"/>
<text text-anchor="middle" x="242.83" y="-132.86" font-family="Helvetica,sans-Serif" font-size="9.00" fill="#3d0075">Vicuna 70k ChatGPT</text>
</g>
<!-- gpt4&#45;&gt;vicuna&#45;70k&#45;gpt4 -->
<g id="edge3" class="edge">
<title>gpt4&#45;&gt;vicuna&#45;70k&#45;gpt4</title>
<path fill="none" stroke="#545454" stroke-width="0.75" d="M292.84,-194.6C283.84,-184.33 267.99,-166.25 256.54,-153.19"/>
<polygon fill="#545454" stroke="#545454" stroke-width="0.75" points="257.91,-152.09 253.3,-149.48 255.27,-154.4 257.91,-152.09"/>
</g>
<!-- mm&#45;instruct&#45;data&#45;&gt;LLaVA&#45;1.6&#45;Vicuna&#45;13B -->
<g id="edge4" class="edge">
<title>mm&#45;instruct&#45;data&#45;&gt;LLaVA&#45;1.6&#45;Vicuna&#45;13B</title>
<path fill="none" stroke="#545454" stroke-width="0.75" d="M321.91,-125.02C302.52,-117.31 280.27,-104.68 268.83,-85.03 257.56,-65.67 264.91,-38.7 271.04,-22.92"/>
<polygon fill="#545454" stroke="#545454" stroke-width="0.75" points="272.49,-23.99 272.77,-18.7 269.26,-22.66 272.49,-23.99"/>
</g>
<!-- vicuna&#45;13b -->
<g id="node6" class="node">
<title>vicuna&#45;13b</title>
<path fill="#7741b0" stroke="black" stroke-width="0.7" d="M215.58,-78.51C215.58,-78.51 162.08,-78.51 162.08,-78.51 159.08,-78.51 156.08,-75.51 156.08,-72.51 156.08,-72.51 156.08,-66.51 156.08,-66.51 156.08,-63.51 159.08,-60.51 162.08,-60.51 162.08,-60.51 215.58,-60.51 215.58,-60.51 218.58,-60.51 221.58,-63.51 221.58,-66.51 221.58,-66.51 221.58,-72.51 221.58,-72.51 221.58,-75.51 218.58,-78.51 215.58,-78.51"/>
<text text-anchor="middle" x="188.83" y="-65.84" font-family="Helvetica,sans-Serif" font-weight="bold" font-size="9.00" fill="#ffffff">Vicuna&#45;13B</text>
</g>
<!-- vicuna&#45;70k&#45;gpt4&#45;&gt;vicuna&#45;13b -->
<g id="edge5" class="edge">
<title>vicuna&#45;70k&#45;gpt4&#45;&gt;vicuna&#45;13b</title>
<path fill="none" stroke="#545454" stroke-width="0.75" d="M233.67,-124.51C224,-112.87 208.8,-94.57 198.83,-82.56"/>
<polygon fill="#545454" stroke="#545454" stroke-width="0.75" points="200.43,-81.74 195.89,-79.01 197.73,-83.97 200.43,-81.74"/>
</g>
<!-- vicuna&#45;13b&#45;&gt;LLaVA&#45;1.6&#45;Vicuna&#45;13B -->
<g id="edge6" class="edge">
<title>vicuna&#45;13b&#45;&gt;LLaVA&#45;1.6&#45;Vicuna&#45;13B</title>
<path fill="none" stroke="#545454" stroke-width="0.75" d="M200.7,-60.62C215.92,-50.5 242.42,-32.88 259.79,-21.33"/>
<polygon fill="#545454" stroke="#545454" stroke-width="0.75" points="260.73,-22.81 263.93,-18.58 258.79,-19.89 260.73,-22.81"/>
</g>
<!-- openai&#45;gpt -->
<g id="node7" class="node">
<title>openai&#45;gpt</title>
<path fill="#dab6fc" stroke="black" stroke-width="0.7" d="M352.71,-276.44C352.71,-276.44 305.52,-285.07 305.52,-285.07 302.67,-285.59 296.99,-285.59 294.14,-285.07 294.14,-285.07 246.96,-276.44 246.96,-276.44 244.11,-275.91 241.28,-272.5 241.29,-269.61 241.29,-269.61 241.31,-263.83 241.31,-263.83 241.32,-260.94 244.22,-258.05 247.11,-258.05 247.11,-258.05 352.56,-258.05 352.56,-258.05 355.45,-258.05 358.35,-260.94 358.36,-263.83 358.36,-263.83 358.37,-269.61 358.37,-269.61 358.38,-272.5 355.55,-275.91 352.71,-276.44"/>
<text text-anchor="middle" x="299.83" y="-266.93" font-family="Helvetica,sans-Serif" font-size="9.00" fill="#3d0075">OpenAI GPT</text>
</g>
<!-- openai&#45;gpt&#45;&gt;gpt4 -->
<g id="edge7" class="edge">
<title>openai&#45;gpt&#45;&gt;gpt4</title>
<path fill="none" stroke="#545454" stroke-width="0.75" d="M294.56,-258.27C292.72,-247.22 292.59,-230.38 294.17,-218.51"/>
<polygon fill="#545454" stroke="#545454" stroke-width="0.75" points="295.89,-218.84 295.03,-213.62 292.44,-218.24 295.89,-218.84"/>
</g>
<!-- openai&#45;gpt&#45;&gt;gpt4 -->
<g id="edge8" class="edge">
<title>openai&#45;gpt&#45;&gt;gpt4</title>
<path fill="none" stroke="#545454" stroke-width="0.75" d="M305.09,-258.27C306.93,-247.22 307.06,-230.38 305.48,-218.51"/>
<polygon fill="#545454" stroke="#545454" stroke-width="0.75" points="307.21,-218.24 304.63,-213.62 303.76,-218.84 307.21,-218.24"/>
</g>
<!-- llama2&#45;13b -->
<g id="node8" class="node">
<title>llama2&#45;13b</title>
<path fill="#7741b0" stroke="black" stroke-width="0.7" d="M71.45,-145.54C71.45,-145.54 14.2,-145.54 14.2,-145.54 11.2,-145.54 8.2,-142.54 8.2,-139.54 8.2,-139.54 8.2,-133.54 8.2,-133.54 8.2,-130.54 11.2,-127.54 14.2,-127.54 14.2,-127.54 71.45,-127.54 71.45,-127.54 74.45,-127.54 77.45,-130.54 77.45,-133.54 77.45,-133.54 77.45,-139.54 77.45,-139.54 77.45,-142.54 74.45,-145.54 71.45,-145.54"/>
<text text-anchor="middle" x="42.83" y="-132.86" font-family="Helvetica,sans-Serif" font-weight="bold" font-size="9.00" fill="#ffffff">Llama 2 13B</text>
</g>
<!-- llama2&#45;13b&#45;&gt;vicuna&#45;13b -->
<g id="edge9" class="edge">
<title>llama2&#45;13b&#45;&gt;vicuna&#45;13b</title>
<path fill="none" stroke="#545454" stroke-width="0.75" d="M60.73,-127.57C87.14,-115.8 136.56,-93.79 165.69,-80.82"/>
<polygon fill="#545454" stroke="#545454" stroke-width="0.75" points="166.34,-82.45 170.19,-78.81 164.91,-79.25 166.34,-82.45"/>
</g>
<!-- coco -->
<g id="node9" class="node">
<title>coco</title>
<path fill="#c59af7" stroke="black" stroke-width="0.7" d="M331.83,-79.5C331.83,-80.72 319.73,-81.72 304.83,-81.72 289.93,-81.72 277.83,-80.72 277.83,-79.5 277.83,-79.5 277.83,-59.53 277.83,-59.53 277.83,-58.31 289.93,-57.31 304.83,-57.31 319.73,-57.31 331.83,-58.31 331.83,-59.53 331.83,-59.53 331.83,-79.5 331.83,-79.5"/>
<path fill="none" stroke="black" stroke-width="0.7" d="M331.83,-79.5C331.83,-78.27 319.73,-77.28 304.83,-77.28 289.93,-77.28 277.83,-78.27 277.83,-79.5"/>
<text text-anchor="middle" x="304.83" y="-65.84" font-family="Helvetica,sans-Serif" font-size="9.00" fill="#3d0075">COCO</text>
</g>
<!-- coco&#45;&gt;LLaVA&#45;1.6&#45;Vicuna&#45;13B -->
<g id="edge10" class="edge">
<title>coco&#45;&gt;LLaVA&#45;1.6&#45;Vicuna&#45;13B</title>
<path fill="none" stroke="#545454" stroke-width="0.75" d="M299.56,-57.51C294.91,-47.79 288.12,-33.59 283.17,-23.25"/>
<polygon fill="#545454" stroke="#545454" stroke-width="0.75" points="284.86,-22.73 281.12,-18.98 281.71,-24.24 284.86,-22.73"/>
</g>
<!-- CC3M -->
<g id="node10" class="node">
<title>CC3M</title>
<path fill="#c59af7" stroke="black" stroke-width="0.7" d="M403.83,-79.5C403.83,-80.72 391.73,-81.72 376.83,-81.72 361.93,-81.72 349.83,-80.72 349.83,-79.5 349.83,-79.5 349.83,-59.53 349.83,-59.53 349.83,-58.31 361.93,-57.31 376.83,-57.31 391.73,-57.31 403.83,-58.31 403.83,-59.53 403.83,-59.53 403.83,-79.5 403.83,-79.5"/>
<path fill="none" stroke="black" stroke-width="0.7" d="M403.83,-79.5C403.83,-78.27 391.73,-77.28 376.83,-77.28 361.93,-77.28 349.83,-78.27 349.83,-79.5"/>
<text text-anchor="middle" x="376.83" y="-65.84" font-family="Helvetica,sans-Serif" font-size="9.00" fill="#3d0075">CC3M</text>
</g>
<!-- CC3M&#45;&gt;LLaVA&#45;1.6&#45;Vicuna&#45;13B -->
<g id="edge11" class="edge">
<title>CC3M&#45;&gt;LLaVA&#45;1.6&#45;Vicuna&#45;13B</title>
<path fill="none" stroke="#545454" stroke-width="0.75" d="M358.49,-57.78C340.6,-47.32 313.54,-31.48 295.53,-20.94"/>
<polygon fill="#545454" stroke="#545454" stroke-width="0.75" points="296.43,-19.44 291.23,-18.43 294.66,-22.46 296.43,-19.44"/>
</g>
<!-- llama2 -->
<g id="node11" class="node">
<title>llama2</title>
<path fill="#dab6fc" stroke="black" stroke-width="0.7" d="M80.05,-209.77C80.05,-209.77 48.44,-217.68 48.44,-217.68 45.63,-218.38 40.02,-218.38 37.22,-217.68 37.22,-217.68 5.61,-209.77 5.61,-209.77 2.8,-209.07 0.01,-205.47 0.01,-202.58 0.01,-202.58 0.03,-196.8 0.03,-196.8 0.03,-193.91 2.93,-191.02 5.82,-191.02 5.82,-191.02 79.84,-191.02 79.84,-191.02 82.73,-191.02 85.63,-193.91 85.63,-196.8 85.63,-196.8 85.65,-202.58 85.65,-202.58 85.65,-205.47 82.85,-209.07 80.05,-209.77"/>
<text text-anchor="middle" x="42.83" y="-199.89" font-family="Helvetica,sans-Serif" font-size="9.00" fill="#3d0075">Llama 2</text>
</g>
<!-- llama2&#45;&gt;llama2&#45;13b -->
<g id="edge12" class="edge">
<title>llama2&#45;&gt;llama2&#45;13b</title>
<path fill="none" stroke="#545454" stroke-width="0.75" d="M42.83,-191.24C42.83,-180.19 42.83,-163.35 42.83,-151.48"/>
<polygon fill="#545454" stroke="#545454" stroke-width="0.75" points="44.58,-151.61 42.83,-146.61 41.08,-151.61 44.58,-151.61"/>
</g>
<!-- science&#45;qa -->
<g id="node12" class="node">
<title>science&#45;qa</title>
<path fill="#c59af7" stroke="black" stroke-width="0.7" d="M485.83,-79.5C485.83,-80.72 471.49,-81.72 453.83,-81.72 436.17,-81.72 421.83,-80.72 421.83,-79.5 421.83,-79.5 421.83,-59.53 421.83,-59.53 421.83,-58.31 436.17,-57.31 453.83,-57.31 471.49,-57.31 485.83,-58.31 485.83,-59.53 485.83,-59.53 485.83,-79.5 485.83,-79.5"/>
<path fill="none" stroke="black" stroke-width="0.7" d="M485.83,-79.5C485.83,-78.27 471.49,-77.28 453.83,-77.28 436.17,-77.28 421.83,-78.27 421.83,-79.5"/>
<text text-anchor="middle" x="453.83" y="-65.84" font-family="Helvetica,sans-Serif" font-size="9.00" fill="#3d0075">Science QA</text>
</g>
<!-- science&#45;qa&#45;&gt;LLaVA&#45;1.6&#45;Vicuna&#45;13B -->
<g id="edge13" class="edge">
<title>science&#45;qa&#45;&gt;LLaVA&#45;1.6&#45;Vicuna&#45;13B</title>
<path fill="none" stroke="#545454" stroke-width="0.75" d="M424.74,-58.11C420.75,-56.71 416.69,-55.31 412.83,-54 376.95,-41.85 335.51,-28.55 307.89,-19.78"/>
<polygon fill="#545454" stroke="#545454" stroke-width="0.75" points="308.59,-18.17 303.29,-18.33 307.53,-21.5 308.59,-18.17"/>
</g>
<!-- vicuna -->
<g id="node13" class="node">
<title>vicuna</title>
<path fill="#dab6fc" stroke="black" stroke-width="0.7" d="M168.15,-142.87C168.15,-142.87 140.41,-150.52 140.41,-150.52 137.62,-151.29 132.04,-151.29 129.26,-150.52 129.26,-150.52 101.51,-142.87 101.51,-142.87 98.72,-142.1 95.94,-138.44 95.95,-135.55 95.95,-135.55 95.96,-129.77 95.96,-129.77 95.97,-126.88 98.86,-123.99 101.75,-123.99 101.75,-123.99 167.91,-123.99 167.91,-123.99 170.8,-123.99 173.7,-126.88 173.7,-129.77 173.7,-129.77 173.71,-135.55 173.71,-135.55 173.72,-138.44 170.94,-142.1 168.15,-142.87"/>
<text text-anchor="middle" x="134.83" y="-132.86" font-family="Helvetica,sans-Serif" font-size="9.00" fill="#3d0075">Vicuna</text>
</g>
<!-- vicuna&#45;&gt;vicuna&#45;13b -->
<g id="edge14" class="edge">
<title>vicuna&#45;&gt;vicuna&#45;13b</title>
<path fill="none" stroke="#545454" stroke-width="0.75" d="M144.23,-124.22C153.75,-112.75 168.44,-95.07 178.33,-83.16"/>
<polygon fill="#545454" stroke="#545454" stroke-width="0.75" points="179.68,-84.28 181.53,-79.31 176.98,-82.04 179.68,-84.28"/>
</g>
</g>
</svg>
