<?xml version="1.0" encoding="UTF-8" standalone="no"?>
<!DOCTYPE svg PUBLIC "-//W3C//DTD SVG 1.1//EN"
 "http://www.w3.org/Graphics/SVG/1.1/DTD/svg11.dtd">
<!-- Generated by graphviz version 11.0.0 (20240428.1522)
 -->
<!-- Pages: 1 -->
<svg width="553pt" height="294pt"
 viewBox="0.00 0.00 552.88 294.11" xmlns="http://www.w3.org/2000/svg" xmlns:xlink="http://www.w3.org/1999/xlink">
<g id="graph0" class="graph" transform="scale(1 1) rotate(0) translate(4 290.11)">
<polygon fill="white" stroke="none" points="-4,4 -4,-290.11 548.88,-290.11 548.88,4 -4,4"/>
<!-- llama2&#45;13b -->
<g id="node1" class="node">
<title>llama2&#45;13b</title>
<path fill="#800080" stroke="black" stroke-width="0.5" d="M375.75,-145.54C375.75,-145.54 320,-145.54 320,-145.54 317,-145.54 314,-142.54 314,-139.54 314,-139.54 314,-133.54 314,-133.54 314,-130.54 317,-127.54 320,-127.54 320,-127.54 375.75,-127.54 375.75,-127.54 378.75,-127.54 381.75,-130.54 381.75,-133.54 381.75,-133.54 381.75,-139.54 381.75,-139.54 381.75,-142.54 378.75,-145.54 375.75,-145.54"/>
<text text-anchor="middle" x="347.88" y="-132.87" font-family="Helvetica,sans-Serif" font-size="9.00" fill="#ffffff">Llama 2 13B</text>
</g>
<!-- vicuna&#45;13b -->
<g id="node2" class="node">
<title>vicuna&#45;13b</title>
<path fill="#800080" stroke="black" stroke-width="0.5" d="M234.88,-78.51C234.88,-78.51 182.87,-78.51 182.87,-78.51 179.87,-78.51 176.87,-75.51 176.87,-72.51 176.87,-72.51 176.87,-66.51 176.87,-66.51 176.87,-63.51 179.87,-60.51 182.87,-60.51 182.87,-60.51 234.88,-60.51 234.88,-60.51 237.88,-60.51 240.88,-63.51 240.88,-66.51 240.88,-66.51 240.88,-72.51 240.88,-72.51 240.88,-75.51 237.88,-78.51 234.88,-78.51"/>
<text text-anchor="middle" x="208.88" y="-65.84" font-family="Helvetica,sans-Serif" font-size="9.00" fill="#ffffff">Vicuna&#45;13B</text>
</g>
<!-- llama2&#45;13b&#45;&gt;vicuna&#45;13b -->
<g id="edge1" class="edge">
<title>llama2&#45;13b&#45;&gt;vicuna&#45;13b</title>
<path fill="none" stroke="#545454" stroke-width="0.75" d="M318.44,-127.73C318.44,-117.79 318.44,-103 318.44,-103 318.44,-103 234.58,-103 234.58,-103 234.58,-103 234.58,-86.95 234.58,-86.95"/>
<polygon fill="#545454" stroke="#545454" stroke-width="0.75" points="237.2,-86.95 234.58,-79.45 231.95,-86.95 237.2,-86.95"/>
</g>
<!-- LLaVA&#45;1.6&#45;Vicuna&#45;13B -->
<g id="node3" class="node">
<title>LLaVA&#45;1.6&#45;Vicuna&#45;13B</title>
<path fill="#800080" stroke="black" stroke-width="0.5" d="M364.38,-18C364.38,-18 267.37,-18 267.37,-18 264.37,-18 261.37,-15 261.37,-12 261.37,-12 261.37,-6 261.37,-6 261.37,-3 264.37,0 267.37,0 267.37,0 364.38,0 364.38,0 367.38,0 370.38,-3 370.38,-6 370.38,-6 370.38,-12 370.38,-12 370.38,-15 367.38,-18 364.38,-18"/>
<text text-anchor="middle" x="315.88" y="-5.33" font-family="Helvetica,sans-Serif" font-size="9.00" fill="#ffffff">LLaVA&#45;1.6 Vicuna 13B</text>
</g>
<!-- vicuna&#45;13b&#45;&gt;LLaVA&#45;1.6&#45;Vicuna&#45;13B -->
<g id="edge2" class="edge">
<title>vicuna&#45;13b&#45;&gt;LLaVA&#45;1.6&#45;Vicuna&#45;13B</title>
<path fill="none" stroke="#545454" stroke-width="0.75" d="M208.88,-60.53C208.88,-44.35 208.88,-12 208.88,-12 208.88,-12 252.8,-12 252.8,-12"/>
<polygon fill="#545454" stroke="#545454" stroke-width="0.75" points="252.8,-14.63 260.3,-12 252.8,-9.38 252.8,-14.63"/>
</g>
<!-- llama2 -->
<g id="node4" class="node">
<title>llama2</title>
<path fill="#cbc3e3" stroke="black" stroke-width="0.5" d="M385.1,-209.77C385.1,-209.77 353.48,-217.68 353.48,-217.68 350.68,-218.38 345.07,-218.38 342.27,-217.68 342.27,-217.68 310.65,-209.77 310.65,-209.77 307.85,-209.07 305.05,-205.47 305.06,-202.58 305.06,-202.58 305.07,-196.8 305.07,-196.8 305.08,-193.91 307.98,-191.02 310.87,-191.02 310.87,-191.02 384.88,-191.02 384.88,-191.02 387.77,-191.02 390.67,-193.91 390.68,-196.8 390.68,-196.8 390.69,-202.58 390.69,-202.58 390.7,-205.47 387.9,-209.07 385.1,-209.77"/>
<text text-anchor="middle" x="347.88" y="-199.9" font-family="Helvetica,sans-Serif" font-size="9.00">Llama 2</text>
</g>
<!-- llama2&#45;&gt;llama2&#45;13b -->
<g id="edge3" class="edge">
<title>llama2&#45;&gt;llama2&#45;13b</title>
<path fill="none" stroke="#545454" stroke-width="0.75" d="M347.88,-191.28C347.88,-191.28 347.88,-153.97 347.88,-153.97"/>
<polygon fill="#545454" stroke="#545454" stroke-width="0.75" points="350.5,-153.97 347.88,-146.47 345.25,-153.98 350.5,-153.97"/>
</g>
<!-- mm&#45;instruct&#45;data -->
<g id="node5" class="node">
<title>mm&#45;instruct&#45;data</title>
<path fill="#e0b7f3" stroke="black" stroke-width="0.5" d="M91.75,-146.53C91.75,-147.75 71.19,-148.75 45.88,-148.75 20.56,-148.75 0,-147.75 0,-146.53 0,-146.53 0,-126.56 0,-126.56 0,-125.33 20.56,-124.34 45.88,-124.34 71.19,-124.34 91.75,-125.33 91.75,-126.56 91.75,-126.56 91.75,-146.53 91.75,-146.53"/>
<path fill="none" stroke="black" stroke-width="0.5" d="M91.75,-146.53C91.75,-145.3 71.19,-144.31 45.88,-144.31 20.56,-144.31 0,-145.3 0,-146.53"/>
<text text-anchor="middle" x="45.88" y="-132.87" font-family="Helvetica,sans-Serif" font-size="9.00">LLaVa MM&#45;Instruct</text>
</g>
<!-- mm&#45;instruct&#45;data&#45;&gt;LLaVA&#45;1.6&#45;Vicuna&#45;13B -->
<g id="edge4" class="edge">
<title>mm&#45;instruct&#45;data&#45;&gt;LLaVA&#45;1.6&#45;Vicuna&#45;13B</title>
<path fill="none" stroke="#545454" stroke-width="0.75" d="M45.88,-124.5C45.88,-92.18 45.88,-6 45.88,-6 45.88,-6 252.93,-6 252.93,-6"/>
<polygon fill="#545454" stroke="#545454" stroke-width="0.75" points="252.93,-8.63 260.43,-6 252.93,-3.38 252.93,-8.63"/>
</g>
<!-- vicuna -->
<g id="node6" class="node">
<title>vicuna</title>
<path fill="#cbc3e3" stroke="black" stroke-width="0.5" d="M294.2,-142.87C294.2,-142.87 266.45,-150.52 266.45,-150.52 263.66,-151.29 258.09,-151.29 255.3,-150.52 255.3,-150.52 227.55,-142.87 227.55,-142.87 224.77,-142.1 221.99,-138.45 221.99,-135.55 221.99,-135.55 222,-129.77 222,-129.77 222.01,-126.88 224.91,-123.99 227.8,-123.99 227.8,-123.99 293.95,-123.99 293.95,-123.99 296.84,-123.99 299.74,-126.88 299.75,-129.77 299.75,-129.77 299.76,-135.55 299.76,-135.55 299.76,-138.45 296.98,-142.1 294.2,-142.87"/>
<text text-anchor="middle" x="260.88" y="-132.87" font-family="Helvetica,sans-Serif" font-size="9.00">Vicuna</text>
</g>
<!-- vicuna&#45;&gt;vicuna&#45;13b -->
<g id="edge5" class="edge">
<title>vicuna&#45;&gt;vicuna&#45;13b</title>
<path fill="none" stroke="#545454" stroke-width="0.75" d="M228.28,-124.25C228.28,-124.25 228.28,-86.95 228.28,-86.95"/>
<polygon fill="#545454" stroke="#545454" stroke-width="0.75" points="230.9,-86.95 228.28,-79.45 225.65,-86.95 230.9,-86.95"/>
</g>
<!-- CC3M -->
<g id="node7" class="node">
<title>CC3M</title>
<path fill="#e0b7f3" stroke="black" stroke-width="0.5" d="M308.88,-79.5C308.88,-80.72 296.77,-81.72 281.88,-81.72 266.98,-81.72 254.88,-80.72 254.88,-79.5 254.88,-79.5 254.88,-59.53 254.88,-59.53 254.88,-58.31 266.98,-57.31 281.88,-57.31 296.77,-57.31 308.88,-58.31 308.88,-59.53 308.88,-59.53 308.88,-79.5 308.88,-79.5"/>
<path fill="none" stroke="black" stroke-width="0.5" d="M308.88,-79.5C308.88,-78.27 296.77,-77.28 281.88,-77.28 266.98,-77.28 254.88,-78.27 254.88,-79.5"/>
<text text-anchor="middle" x="281.88" y="-65.84" font-family="Helvetica,sans-Serif" font-size="9.00">CC3M</text>
</g>
<!-- CC3M&#45;&gt;LLaVA&#45;1.6&#45;Vicuna&#45;13B -->
<g id="edge6" class="edge">
<title>CC3M&#45;&gt;LLaVA&#45;1.6&#45;Vicuna&#45;13B</title>
<path fill="none" stroke="#545454" stroke-width="0.75" d="M285.12,-57.56C285.12,-57.56 285.12,-26.43 285.12,-26.43"/>
<polygon fill="#545454" stroke="#545454" stroke-width="0.75" points="287.75,-26.43 285.12,-18.93 282.5,-26.43 287.75,-26.43"/>
</g>
<!-- coco -->
<g id="node8" class="node">
<title>coco</title>
<path fill="#e0b7f3" stroke="black" stroke-width="0.5" d="M376.88,-79.5C376.88,-80.72 364.77,-81.72 349.88,-81.72 334.98,-81.72 322.88,-80.72 322.88,-79.5 322.88,-79.5 322.88,-59.53 322.88,-59.53 322.88,-58.31 334.98,-57.31 349.88,-57.31 364.77,-57.31 376.88,-58.31 376.88,-59.53 376.88,-59.53 376.88,-79.5 376.88,-79.5"/>
<path fill="none" stroke="black" stroke-width="0.5" d="M376.88,-79.5C376.88,-78.27 364.77,-77.28 349.88,-77.28 334.98,-77.28 322.88,-78.27 322.88,-79.5"/>
<text text-anchor="middle" x="349.88" y="-65.84" font-family="Helvetica,sans-Serif" font-size="9.00">COCO</text>
</g>
<!-- coco&#45;&gt;LLaVA&#45;1.6&#45;Vicuna&#45;13B -->
<g id="edge7" class="edge">
<title>coco&#45;&gt;LLaVA&#45;1.6&#45;Vicuna&#45;13B</title>
<path fill="none" stroke="#545454" stroke-width="0.75" d="M346.63,-57.56C346.63,-57.56 346.63,-26.43 346.63,-26.43"/>
<polygon fill="#545454" stroke="#545454" stroke-width="0.75" points="349.25,-26.43 346.63,-18.93 344,-26.43 349.25,-26.43"/>
</g>
<!-- openai&#45;gpt -->
<g id="node9" class="node">
<title>openai&#45;gpt</title>
<path fill="#cbc3e3" stroke="black" stroke-width="0.5" d="M154.75,-276.43C154.75,-276.43 107.56,-285.07 107.56,-285.07 104.72,-285.59 99.03,-285.59 96.19,-285.07 96.19,-285.07 49,-276.43 49,-276.43 46.16,-275.91 43.32,-272.5 43.33,-269.61 43.33,-269.61 43.35,-263.83 43.35,-263.83 43.36,-260.94 46.26,-258.05 49.15,-258.05 49.15,-258.05 154.6,-258.05 154.6,-258.05 157.49,-258.05 160.39,-260.94 160.4,-263.83 160.4,-263.83 160.42,-269.61 160.42,-269.61 160.43,-272.5 157.59,-275.91 154.75,-276.43"/>
<text text-anchor="middle" x="101.88" y="-266.92" font-family="Helvetica,sans-Serif" font-size="9.00">OpenAI GPT</text>
</g>
<!-- gpt4 -->
<g id="node10" class="node">
<title>gpt4</title>
<path fill="#800080" stroke="black" stroke-width="0.5" d="M122.88,-212.57C122.88,-212.57 80.88,-212.57 80.88,-212.57 77.88,-212.57 74.88,-209.57 74.88,-206.57 74.88,-206.57 74.88,-200.57 74.88,-200.57 74.88,-197.57 77.88,-194.57 80.88,-194.57 80.88,-194.57 122.88,-194.57 122.88,-194.57 125.88,-194.57 128.88,-197.57 128.88,-200.57 128.88,-200.57 128.88,-206.57 128.88,-206.57 128.88,-209.57 125.88,-212.57 122.88,-212.57"/>
<text text-anchor="middle" x="101.88" y="-199.9" font-family="Helvetica,sans-Serif" font-size="9.00" fill="#ffffff">GPT 4</text>
</g>
<!-- openai&#45;gpt&#45;&gt;gpt4 -->
<g id="edge8" class="edge">
<title>openai&#45;gpt&#45;&gt;gpt4</title>
<path fill="none" stroke="#545454" stroke-width="0.75" d="M92.88,-258.31C92.88,-258.31 92.88,-221 92.88,-221"/>
<polygon fill="#545454" stroke="#545454" stroke-width="0.75" points="95.5,-221 92.88,-213.5 90.25,-221 95.5,-221"/>
</g>
<!-- openai&#45;gpt&#45;&gt;gpt4 -->
<g id="edge9" class="edge">
<title>openai&#45;gpt&#45;&gt;gpt4</title>
<path fill="none" stroke="#545454" stroke-width="0.75" d="M110.88,-258.31C110.88,-258.31 110.88,-221 110.88,-221"/>
<polygon fill="#545454" stroke="#545454" stroke-width="0.75" points="113.5,-221 110.88,-213.5 108.25,-221 113.5,-221"/>
</g>
<!-- gpt4&#45;&gt;mm&#45;instruct&#45;data -->
<g id="edge10" class="edge">
<title>gpt4&#45;&gt;mm&#45;instruct&#45;data</title>
<path fill="none" stroke="#545454" stroke-width="0.75" d="M83.31,-194.81C83.31,-194.81 83.31,-156.4 83.31,-156.4"/>
<polygon fill="#545454" stroke="#545454" stroke-width="0.75" points="85.94,-156.4 83.31,-148.9 80.69,-156.4 85.94,-156.4"/>
</g>
<!-- vicuna&#45;70k&#45;gpt4 -->
<g id="node11" class="node">
<title>vicuna&#45;70k&#45;gpt4</title>
<path fill="#e0b7f3" stroke="black" stroke-width="0.5" d="M207.62,-146.53C207.62,-147.75 184.88,-148.75 156.88,-148.75 128.87,-148.75 106.12,-147.75 106.12,-146.53 106.12,-146.53 106.12,-126.56 106.12,-126.56 106.12,-125.33 128.87,-124.34 156.88,-124.34 184.88,-124.34 207.62,-125.33 207.62,-126.56 207.62,-126.56 207.62,-146.53 207.62,-146.53"/>
<path fill="none" stroke="black" stroke-width="0.5" d="M207.62,-146.53C207.62,-145.3 184.88,-144.31 156.88,-144.31 128.87,-144.31 106.12,-145.3 106.12,-146.53"/>
<text text-anchor="middle" x="156.88" y="-132.87" font-family="Helvetica,sans-Serif" font-size="9.00">Vicuna 70k ChatGPT</text>
</g>
<!-- gpt4&#45;&gt;vicuna&#45;70k&#45;gpt4 -->
<g id="edge11" class="edge">
<title>gpt4&#45;&gt;vicuna&#45;70k&#45;gpt4</title>
<path fill="none" stroke="#545454" stroke-width="0.75" d="M117.5,-194.81C117.5,-194.81 117.5,-156.87 117.5,-156.87"/>
<polygon fill="#545454" stroke="#545454" stroke-width="0.75" points="120.13,-156.87 117.5,-149.37 114.88,-156.87 120.13,-156.87"/>
</g>
<!-- vicuna&#45;70k&#45;gpt4&#45;&gt;vicuna&#45;13b -->
<g id="edge12" class="edge">
<title>vicuna&#45;70k&#45;gpt4&#45;&gt;vicuna&#45;13b</title>
<path fill="none" stroke="#545454" stroke-width="0.75" d="M192.25,-124.56C192.25,-124.56 192.25,-87.03 192.25,-87.03"/>
<polygon fill="#545454" stroke="#545454" stroke-width="0.75" points="194.88,-87.03 192.25,-79.53 189.63,-87.03 194.88,-87.03"/>
</g>
<!-- LLaVA -->
<g id="node12" class="node">
<title>LLaVA</title>
<path fill="#cbc3e3" stroke="black" stroke-width="0.5" d="M461.55,-75.87C461.55,-75.87 434.44,-83.47 434.44,-83.47 431.66,-84.25 426.09,-84.25 423.31,-83.47 423.31,-83.47 396.2,-75.87 396.2,-75.87 393.42,-75.09 390.64,-71.42 390.65,-68.53 390.65,-68.53 390.66,-62.74 390.66,-62.74 390.67,-59.85 393.56,-56.96 396.45,-56.96 396.45,-56.96 461.3,-56.96 461.3,-56.96 464.19,-56.96 467.08,-59.85 467.09,-62.74 467.09,-62.74 467.1,-68.53 467.1,-68.53 467.11,-71.42 464.33,-75.09 461.55,-75.87"/>
<text text-anchor="middle" x="428.88" y="-65.84" font-family="Helvetica,sans-Serif" font-size="9.00">LLaVA</text>
</g>
<!-- LLaVA&#45;&gt;LLaVA&#45;1.6&#45;Vicuna&#45;13B -->
<g id="edge13" class="edge">
<title>LLaVA&#45;&gt;LLaVA&#45;1.6&#45;Vicuna&#45;13B</title>
<path fill="none" stroke="#545454" stroke-width="0.75" d="M428.88,-57.03C428.88,-40.12 428.88,-12 428.88,-12 428.88,-12 378.69,-12 378.69,-12"/>
<polygon fill="#545454" stroke="#545454" stroke-width="0.75" points="378.69,-9.38 371.19,-12 378.69,-14.63 378.69,-9.38"/>
</g>
<!-- science&#45;qa -->
<g id="node13" class="node">
<title>science&#45;qa</title>
<path fill="#e0b7f3" stroke="black" stroke-width="0.5" d="M544.88,-79.5C544.88,-80.72 530.53,-81.72 512.88,-81.72 495.22,-81.72 480.87,-80.72 480.87,-79.5 480.87,-79.5 480.87,-59.53 480.87,-59.53 480.87,-58.31 495.22,-57.31 512.88,-57.31 530.53,-57.31 544.88,-58.31 544.88,-59.53 544.88,-59.53 544.88,-79.5 544.88,-79.5"/>
<path fill="none" stroke="black" stroke-width="0.5" d="M544.88,-79.5C544.88,-78.27 530.53,-77.28 512.88,-77.28 495.22,-77.28 480.87,-78.27 480.87,-79.5"/>
<text text-anchor="middle" x="512.88" y="-65.84" font-family="Helvetica,sans-Serif" font-size="9.00">Science QA</text>
</g>
<!-- science&#45;qa&#45;&gt;LLaVA&#45;1.6&#45;Vicuna&#45;13B -->
<g id="edge14" class="edge">
<title>science&#45;qa&#45;&gt;LLaVA&#45;1.6&#45;Vicuna&#45;13B</title>
<path fill="none" stroke="#545454" stroke-width="0.75" d="M512.88,-57.57C512.88,-39.17 512.88,-6 512.88,-6 512.88,-6 378.86,-6 378.86,-6"/>
<polygon fill="#545454" stroke="#545454" stroke-width="0.75" points="378.86,-3.38 371.36,-6 378.86,-8.63 378.86,-3.38"/>
</g>
</g>
</svg>
